<?xml version="1.0" encoding="utf-8"?>
<!-- Generator: Adobe Illustrator 19.0.0, SVG Export Plug-In . SVG Version: 6.00 Build 0)  -->
<svg version="1.1" id="Layer_1" xmlns="http://www.w3.org/2000/svg" xmlns:xlink="http://www.w3.org/1999/xlink" x="0px" y="0px"
	 viewBox="0 0 812.9 245.9" style="enable-background:new 0 0 812.9 245.9;" xml:space="preserve">
<style type="text/css">
	.st0{fill-rule:evenodd;clip-rule:evenodd;fill:#FFFFFF;}
	.st1{fill:#991B1E;}
	.st2{fill-rule:evenodd;clip-rule:evenodd;fill:#1D1D1B;}
	.st3{fill:#FFFFFF;}
	.st4{fill:#010101;}
</style>
<g id="XMLID_2731_">
	<g id="XMLID_2786_">
		<g id="XMLID_2788_">
			<circle class="st0" cx="123.5" cy="123.1" r="60.9"/>
		</g>
		<g id="XMLID_2787_">
			<path id="XMLID_61_" class="st1" d="M123.5,188.6c-36.1,0-65.4-29.4-65.4-65.4c0-36.1,29.4-65.4,65.4-65.4s65.4,29.4,65.4,65.4
				C188.9,159.2,159.6,188.6,123.5,188.6z M123.5,66.7c-31.1,0-56.4,25.3-56.4,56.4s25.3,56.4,56.4,56.4s56.4-25.3,56.4-56.4
				S154.6,66.7,123.5,66.7z"/>
		</g>
	</g>
	<g id="XMLID_2732_">
		<g id="XMLID_2783_">
			<g id="XMLID_2784_">
				<path class="st2" d="M92.2,163.6c6.4-13.5,5.6-15.6-2.9-31.3c-9.5-20.1-3-38.6,6-45.9c9.3-7.6,34.9-16.8,57.3,2.4
					c7.2,6.1,8.1,22.8,7.3,24.6c-1.4,1.7-2.9,3.2-1.7,6c1,2.3,10.2,12.1,10.2,12.1s0.5,2.3-0.5,3.2c-1.1,1-5.9,3.1-6.2,4.3
					c-0.4,1.8,1.1,3.7,0.9,4.4c-0.2,0.8-1.3,1.8-1.5,2.7c-0.2,1,0.8,2.7-0.2,3.6s-4,0.7-3.3,6.9c0.1,2.7-5.9,7.8-21.9,0.3
					c-1.3,1.8-1.6,2.3-1.2,6.8C125.7,163.7,93.5,163.7,92.2,163.6z"/>
			</g>
		</g>
		<g id="XMLID_2779_">
			<g id="XMLID_2780_">
				<path class="st3" d="M100.7,105.6c-2.9,0-5.3-2.4-5.3-5.3s2.4-5.3,5.3-5.3s5.3,2.4,5.3,5.3S103.6,105.6,100.7,105.6z
					 M100.7,96.8c-1.9,0-3.4,1.5-3.4,3.4c0,1.9,1.5,3.4,3.4,3.4s3.4-1.5,3.4-3.4C104.1,98.4,102.6,96.8,100.7,96.8z"/>
			</g>
		</g>
		<g id="XMLID_2775_">
			<g id="XMLID_2776_">
				<path class="st3" d="M91.9,118.3c-2.9,0-5.3-2.4-5.3-5.3s2.4-5.3,5.3-5.3s5.3,2.4,5.3,5.3S94.9,118.3,91.9,118.3z M91.9,109.6
					c-1.9,0-3.4,1.5-3.4,3.4s1.5,3.4,3.4,3.4s3.4-1.5,3.4-3.4S93.8,109.6,91.9,109.6z"/>
			</g>
		</g>
		<g id="XMLID_2771_">
			<g id="XMLID_2772_">
				<path class="st3" d="M145.7,150.9c-2.9,0-5.3-2.4-5.3-5.3s2.4-5.3,5.3-5.3s5.3,2.4,5.3,5.3S148.6,150.9,145.7,150.9z
					 M145.7,142.2c-1.9,0-3.4,1.5-3.4,3.4s1.5,3.4,3.4,3.4s3.4-1.5,3.4-3.4S147.6,142.2,145.7,142.2z"/>
			</g>
		</g>
		<g id="XMLID_2767_">
			<g id="XMLID_2768_">
				<path class="st3" d="M139.6,105.6c-2.9,0-5.3-2.4-5.3-5.3s2.4-5.3,5.3-5.3s5.3,2.4,5.3,5.3S142.5,105.6,139.6,105.6z
					 M139.6,96.8c-1.9,0-3.4,1.5-3.4,3.4c0,1.9,1.5,3.4,3.4,3.4s3.4-1.5,3.4-3.4C143.1,98.4,141.5,96.8,139.6,96.8z"/>
			</g>
		</g>
		<g id="XMLID_2765_">
			<g id="XMLID_2766_">
				
					<rect x="97.1" y="132.4" transform="matrix(0.531 0.8474 -0.8474 0.531 162.0013 -25.9468)" class="st3" width="14.7" height="1.9"/>
			</g>
		</g>
		<g id="XMLID_2763_">
			<g id="XMLID_2764_">
				<rect x="99.7" y="104.6" class="st3" width="1.9" height="23"/>
			</g>
		</g>
		<g id="XMLID_2761_">
			<g id="XMLID_2762_">
				<rect x="107.3" y="139.1" class="st3" width="1.9" height="25.1"/>
			</g>
		</g>
		<g id="XMLID_2759_">
			<g id="XMLID_2760_">
				
					<rect x="102.7" y="84.5" transform="matrix(0.5604 0.8282 -0.8282 0.5604 119.5778 -54.3423)" class="st3" width="16.6" height="1.9"/>
			</g>
		</g>
		<g id="XMLID_2757_">
			<g id="XMLID_2758_">
				<rect x="114.6" y="91.8" class="st3" width="1.9" height="71.8"/>
			</g>
		</g>
		<g id="XMLID_2755_">
			<g id="XMLID_2756_">
				
					<rect x="109.1" y="84.1" transform="matrix(0.554 0.8325 -0.8325 0.554 123.1603 -59.9314)" class="st3" width="16.8" height="1.9"/>
			</g>
		</g>
		<g id="XMLID_2753_">
			<g id="XMLID_2754_">
				<rect x="121.1" y="91.5" class="st3" width="1.9" height="68.9"/>
			</g>
		</g>
		<g id="XMLID_2751_">
			<g id="XMLID_2752_">
				
					<rect x="87.6" y="134.7" transform="matrix(0.5359 0.8443 -0.8443 0.5359 159.3927 -18.7061)" class="st3" width="18.3" height="1.9"/>
			</g>
		</g>
		<g id="XMLID_2749_">
			<g id="XMLID_2750_">
				<rect x="91" y="117.3" class="st3" width="1.9" height="11.1"/>
			</g>
		</g>
		<g id="XMLID_2747_">
			<g id="XMLID_2748_">
				<rect x="100.5" y="142.8" class="st3" width="1.9" height="22.4"/>
			</g>
		</g>
		<g id="XMLID_2745_">
			<g id="XMLID_2746_">
				<rect x="121.1" y="158.5" class="st3" width="13.9" height="1.9"/>
			</g>
		</g>
		<g id="XMLID_2743_">
			<g id="XMLID_2744_">
				<rect x="128" y="75.9" class="st3" width="1.9" height="71.4"/>
			</g>
		</g>
		<g id="XMLID_2741_">
			<g id="XMLID_2742_">
				<rect x="128.1" y="145.4" class="st3" width="13.8" height="1.9"/>
			</g>
		</g>
		<g id="XMLID_2739_">
			<g id="XMLID_2740_">
				<rect x="147.3" y="82.8" class="st3" width="1.9" height="47.1"/>
			</g>
		</g>
		<g id="XMLID_2737_">
			<g id="XMLID_2738_">
				<rect x="148.9" y="128.1" class="st3" width="18.5" height="1.9"/>
			</g>
		</g>
		<g id="XMLID_2735_">
			<g id="XMLID_2736_">
				<rect x="138.7" y="105.4" class="st3" width="1.9" height="31.5"/>
			</g>
		</g>
		<g id="XMLID_2733_">
			<g id="XMLID_2734_">
				<rect x="138.8" y="135" class="st3" width="29.7" height="1.9"/>
			</g>
		</g>
	</g>
</g>
<g id="XMLID_159_">
	<g id="XMLID_289_">
		<g id="XMLID_2727_">
			<path class="st4" d="M249.2,100.9l-4,10.3c-0.4,0.5-0.9,0.9-1.5,1.2c-0.7,0.3-1.4,0.4-2.1,0.4c-0.9,0-1.7-0.2-2.5-0.7
				c-0.3-0.2-0.5-0.5-0.7-0.7c-0.2-0.3-0.4-0.6-0.5-0.9l-6.8-18.4h5.9l4.8,14.5l4.9-14.5h7.7c0.7,0.1,1.2,0.3,1.5,0.9l7.4,13.2h0.3
				V92.3h5v18.1c-0.3,0.8-0.8,1.4-1.4,1.9c-0.5,0.4-1.3,0.6-2.3,0.6c-0.7,0-1.3-0.1-1.8-0.3c-0.5-0.2-1.4-0.8-1.5-1l-7.2-13h-0.3
				v14.1h-4.9V100.9z"/>
		</g>
		<g id="XMLID_2724_">
			<path class="st4" d="M222.1,105.1l2.5-8.9l2.3,8.9H222.1z M228.7,94.8c-0.3-0.8-0.8-1.5-1.6-2c-0.8-0.5-1.7-0.8-2.7-0.8
				c0,0-0.3,0-0.4,0c-0.3,0-0.6,0-1,0.2c-0.4,0.1-0.7,0.2-0.9,0.4c-0.7,0.5-1.2,1.2-1.5,1.9l-5.2,13l-3-4c1.1-0.4,2-0.8,2.7-1.3
				c0.7-0.5,1.3-1.1,1.8-1.8c0.4-0.7,0.6-1.4,0.6-2.2c0-1.6-0.8-2.9-2.3-4.1c-1.6-1.2-3.4-1.7-5.5-1.7H204c-0.7,0-1.5,0.4-2.1,0.9
				c-0.6,0.5-1,1-1.1,1.7l0,2.7l0,15v0h5.4V96.2h3.7c0.6,0.4,1.1,0.7,1.4,1.1c0.3,0.4,0.5,0.8,0.5,1.2c0,0.8-0.6,1.4-1.9,1.9
				c-0.6,0.2-1.2,0.4-1.8,0.6c-1.1,0.4-1.7,1-1.7,1.9c0,0.3,0.1,0.6,0.2,1l6.1,8.9h6.5l0,0l1.5-3.9h7.7l1.4,3.9l5.7-0.1L228.7,94.8z
				"/>
		</g>
	</g>
	<g id="XMLID_282_">
		<path id="XMLID_2_" d="M225.8,154.3c-0.8,0.4-1.8,0.7-3.1,0.7c-1.1,0-2-0.3-2.7-1c-0.7-0.6-1-1.7-1-3.1c-1.2,1.4-2.6,2.5-4.2,3.1
			c-1.6,0.6-3.3,1-5.2,1c-1.2,0-2.3-0.1-3.4-0.4c-1.1-0.3-2-0.7-2.8-1.3c-0.8-0.6-1.4-1.3-1.9-2.3c-0.5-0.9-0.7-2.1-0.7-3.4
			c0-1.5,0.3-2.7,0.8-3.7c0.5-1,1.2-1.7,2-2.3c0.8-0.6,1.8-1.1,2.9-1.4s2.2-0.6,3.3-0.8c1.2-0.2,2.3-0.4,3.4-0.5
			c1.1-0.1,2-0.3,2.9-0.5c0.8-0.2,1.5-0.5,2-1c0.5-0.4,0.7-1.1,0.7-1.9c0-1-0.2-1.7-0.5-2.3c-0.4-0.6-0.8-1-1.4-1.3
			c-0.6-0.3-1.2-0.5-1.9-0.6c-0.7-0.1-1.4-0.2-2.1-0.2c-1.9,0-3.4,0.4-4.6,1.1c-1.2,0.7-1.9,2-2,4h-4.4c0.1-1.6,0.4-3,1-4.2
			s1.4-2,2.5-2.8c1-0.7,2.2-1.2,3.5-1.5c1.3-0.3,2.7-0.5,4.2-0.5c1.2,0,2.4,0.1,3.6,0.3s2.3,0.5,3.2,1.1c1,0.5,1.7,1.3,2.3,2.2
			c0.6,1,0.9,2.2,0.9,3.7v13.6c0,1,0.1,1.8,0.2,2.3c0.1,0.5,0.5,0.7,1.2,0.7c0.4,0,0.8-0.1,1.3-0.2V154.3z M218.8,140.6
			c-0.5,0.4-1.3,0.7-2.2,0.9c-0.9,0.2-1.8,0.3-2.8,0.5c-1,0.1-2,0.3-3,0.4c-1,0.2-1.9,0.4-2.7,0.7c-0.8,0.3-1.4,0.8-1.9,1.5
			c-0.5,0.6-0.7,1.5-0.7,2.6c0,0.7,0.1,1.3,0.4,1.8c0.3,0.5,0.7,0.9,1.1,1.2c0.5,0.3,1,0.5,1.6,0.7c0.6,0.1,1.3,0.2,2,0.2
			c1.4,0,2.7-0.2,3.7-0.6c1-0.4,1.9-0.9,2.5-1.5c0.7-0.6,1.1-1.2,1.4-1.9c0.3-0.7,0.5-1.4,0.5-2V140.6z"/>
		<path id="XMLID_5_" d="M234.4,127.8v3.6h0.1c0.7-1.5,1.9-2.5,3.4-3.2c1.5-0.7,3.2-1,5.1-1c2.1,0,3.8,0.4,5.4,1.1
			c1.5,0.8,2.8,1.8,3.8,3.1c1,1.3,1.8,2.8,2.3,4.4c0.5,1.7,0.8,3.5,0.8,5.3s-0.2,3.7-0.7,5.3c-0.5,1.7-1.3,3.1-2.3,4.4
			s-2.3,2.2-3.8,3c-1.5,0.7-3.3,1.1-5.3,1.1c-0.7,0-1.4-0.1-2.2-0.2c-0.8-0.1-1.6-0.4-2.4-0.7s-1.5-0.7-2.2-1.3s-1.3-1.2-1.8-2h-0.1
			v13.7h-4.4v-36.7H234.4z M250.1,137.2c-0.3-1.2-0.8-2.2-1.5-3.2c-0.7-0.9-1.5-1.7-2.6-2.2c-1-0.5-2.3-0.8-3.7-0.8
			c-1.5,0-2.7,0.3-3.8,0.9c-1,0.6-1.9,1.3-2.5,2.3c-0.7,0.9-1.1,2-1.4,3.2c-0.3,1.2-0.4,2.4-0.4,3.6c0,1.3,0.2,2.6,0.5,3.8
			c0.3,1.2,0.8,2.3,1.5,3.2c0.7,0.9,1.5,1.7,2.6,2.2s2.3,0.8,3.9,0.8s2.8-0.3,3.8-0.9c1-0.6,1.8-1.4,2.4-2.3c0.6-1,1.1-2.1,1.3-3.3
			c0.3-1.2,0.4-2.5,0.4-3.8C250.6,139.6,250.5,138.4,250.1,137.2z"/>
		<path id="XMLID_8_" d="M264.9,127.8v3.6h0.1c0.7-1.5,1.9-2.5,3.4-3.2c1.5-0.7,3.2-1,5.1-1c2.1,0,3.8,0.4,5.4,1.1
			c1.5,0.8,2.8,1.8,3.8,3.1c1,1.3,1.8,2.8,2.3,4.4c0.5,1.7,0.8,3.5,0.8,5.3s-0.2,3.7-0.7,5.3c-0.5,1.7-1.3,3.1-2.3,4.4
			s-2.3,2.2-3.8,3c-1.5,0.7-3.3,1.1-5.3,1.1c-0.7,0-1.4-0.1-2.2-0.2c-0.8-0.1-1.6-0.4-2.4-0.7s-1.5-0.7-2.2-1.3s-1.3-1.2-1.8-2h-0.1
			v13.7h-4.4v-36.7H264.9z M280.6,137.2c-0.3-1.2-0.8-2.2-1.5-3.2c-0.7-0.9-1.5-1.7-2.6-2.2c-1-0.5-2.3-0.8-3.7-0.8
			c-1.5,0-2.7,0.3-3.8,0.9c-1,0.6-1.9,1.3-2.5,2.3c-0.7,0.9-1.1,2-1.4,3.2c-0.3,1.2-0.4,2.4-0.4,3.6c0,1.3,0.2,2.6,0.5,3.8
			c0.3,1.2,0.8,2.3,1.5,3.2c0.7,0.9,1.5,1.7,2.6,2.2s2.3,0.8,3.9,0.8s2.8-0.3,3.8-0.9c1-0.6,1.8-1.4,2.4-2.3c0.6-1,1.1-2.1,1.3-3.3
			c0.3-1.2,0.4-2.5,0.4-3.8C281.1,139.6,280.9,138.4,280.6,137.2z"/>
		<path id="XMLID_11_" d="M295.5,117.7v36.7h-4.4v-36.7H295.5z"/>
		<path id="XMLID_13_" d="M302.5,123v-5.3h4.4v5.3H302.5z M306.9,127.8v26.6h-4.4v-26.6H306.9z"/>
		<path id="XMLID_16_" d="M332.5,152.7c-2,1.5-4.5,2.3-7.5,2.3c-2.1,0-4-0.3-5.5-1c-1.6-0.7-2.9-1.6-3.9-2.9
			c-1.1-1.2-1.9-2.7-2.4-4.4c-0.5-1.7-0.8-3.6-0.9-5.6c0-2,0.3-3.9,0.9-5.6c0.6-1.7,1.5-3.1,2.6-4.4c1.1-1.2,2.4-2.2,4-2.9
			c1.5-0.7,3.2-1,5-1c2.4,0,4.3,0.5,5.9,1.5s2.8,2.2,3.8,3.7c0.9,1.5,1.6,3.2,2,4.9c0.4,1.8,0.5,3.5,0.4,5.1h-19.9
			c0,1.2,0.1,2.3,0.4,3.3c0.3,1,0.8,2,1.5,2.8c0.7,0.8,1.6,1.4,2.6,1.9c1.1,0.5,2.3,0.7,3.8,0.7c1.9,0,3.4-0.4,4.5-1.3
			s2-2.2,2.3-3.9h4.3C335.8,148.9,334.5,151.2,332.5,152.7z M331.5,135.6c-0.4-0.9-0.9-1.7-1.6-2.4c-0.7-0.7-1.5-1.2-2.4-1.6
			c-0.9-0.4-1.9-0.6-3-0.6c-1.1,0-2.2,0.2-3.1,0.6c-0.9,0.4-1.7,0.9-2.3,1.6c-0.7,0.7-1.2,1.5-1.5,2.4c-0.4,0.9-0.6,1.9-0.7,2.9
			h15.3C332.1,137.5,331.9,136.5,331.5,135.6z"/>
		<path id="XMLID_19_" d="M360.7,154.4v-3.6h-0.1c-0.7,1.5-1.9,2.5-3.4,3.2s-3.2,1-5.1,1c-2.1,0-3.8-0.4-5.4-1.1
			c-1.5-0.8-2.8-1.8-3.8-3c-1-1.3-1.8-2.7-2.3-4.4c-0.5-1.7-0.8-3.5-0.8-5.3s0.2-3.7,0.7-5.3c0.5-1.7,1.3-3.1,2.3-4.4s2.3-2.2,3.8-3
			c1.5-0.7,3.3-1.1,5.3-1.1c0.7,0,1.4,0.1,2.2,0.2c0.8,0.1,1.6,0.4,2.4,0.7c0.8,0.3,1.5,0.8,2.2,1.3s1.3,1.2,1.8,2h0.1v-13.7h4.4
			v36.7H360.7z M345,144.9c0.3,1.2,0.8,2.2,1.5,3.2s1.5,1.7,2.6,2.2c1,0.5,2.3,0.8,3.7,0.8c1.5,0,2.7-0.3,3.8-0.9
			c1-0.6,1.9-1.3,2.5-2.3c0.7-0.9,1.1-2,1.4-3.2c0.3-1.2,0.4-2.4,0.4-3.6c0-1.3-0.2-2.6-0.5-3.8c-0.3-1.2-0.8-2.3-1.5-3.2
			c-0.7-0.9-1.5-1.7-2.6-2.2s-2.3-0.8-3.9-0.8c-1.5,0-2.7,0.3-3.8,0.9s-1.9,1.4-2.5,2.3c-0.6,1-1.1,2.1-1.3,3.3
			c-0.3,1.2-0.4,2.5-0.4,3.8C344.5,142.5,344.6,143.8,345,144.9z"/>
		<path id="XMLID_22_" d="M402,132.4c-1.1-0.9-2.6-1.4-4.4-1.4c-1.6,0-2.9,0.3-4,0.9c-1.1,0.6-1.9,1.4-2.5,2.3
			c-0.6,1-1.1,2.1-1.4,3.3c-0.3,1.3-0.4,2.5-0.4,3.9c0,1.2,0.1,2.4,0.4,3.6c0.3,1.2,0.7,2.2,1.4,3.1c0.6,0.9,1.4,1.6,2.4,2.2
			c1,0.5,2.2,0.8,3.5,0.8c2.2,0,3.8-0.6,5.1-1.7c1.2-1.1,2-2.7,2.2-4.8h4.5c-0.5,3.3-1.7,5.8-3.7,7.6c-2,1.8-4.7,2.7-8,2.7
			c-2,0-3.8-0.3-5.4-1c-1.6-0.7-2.9-1.6-3.9-2.8c-1-1.2-1.8-2.6-2.4-4.3c-0.5-1.7-0.8-3.5-0.8-5.5c0-2,0.3-3.8,0.8-5.6
			c0.5-1.7,1.3-3.2,2.3-4.5c1-1.3,2.4-2.3,3.9-3c1.6-0.7,3.4-1.1,5.5-1.1c1.5,0,2.9,0.2,4.2,0.5c1.3,0.4,2.5,0.9,3.5,1.7
			c1,0.8,1.8,1.7,2.5,2.9c0.7,1.1,1.1,2.5,1.2,4.1h-4.5C403.8,134.6,403.1,133.3,402,132.4z"/>
		<path id="XMLID_24_" d="M413.1,135.6c0.5-1.7,1.4-3.2,2.5-4.4c1.1-1.3,2.4-2.2,4.1-3c1.6-0.7,3.5-1.1,5.6-1.1c2.1,0,4,0.4,5.6,1.1
			c1.6,0.7,2.9,1.7,4,3c1.1,1.3,1.9,2.7,2.5,4.4s0.8,3.5,0.8,5.5s-0.3,3.8-0.8,5.4c-0.5,1.7-1.4,3.1-2.5,4.4c-1.1,1.3-2.4,2.2-4,2.9
			c-1.6,0.7-3.5,1.1-5.6,1.1c-2.1,0-3.9-0.4-5.6-1.1c-1.6-0.7-3-1.7-4.1-2.9c-1.1-1.2-1.9-2.7-2.5-4.4c-0.5-1.7-0.8-3.5-0.8-5.4
			S412.5,137.3,413.1,135.6z M417.5,145.4c0.4,1.3,1,2.3,1.8,3.1c0.8,0.8,1.6,1.5,2.6,1.9c1,0.4,2.1,0.7,3.2,0.7s2.2-0.2,3.2-0.7
			c1-0.4,1.9-1.1,2.6-1.9c0.8-0.8,1.3-1.9,1.8-3.1c0.4-1.2,0.6-2.7,0.6-4.3c0-1.6-0.2-3-0.6-4.3s-1-2.3-1.8-3.2
			c-0.8-0.9-1.6-1.5-2.6-2c-1-0.4-2.1-0.7-3.2-0.7s-2.2,0.2-3.2,0.7c-1,0.4-1.9,1.1-2.6,2c-0.8,0.9-1.3,1.9-1.8,3.2
			s-0.6,2.7-0.6,4.3C416.9,142.7,417.1,144.1,417.5,145.4z"/>
		<path id="XMLID_27_" d="M463.1,161.9c-2,2.2-5.1,3.2-9.4,3.2c-1.2,0-2.5-0.1-3.8-0.4c-1.3-0.3-2.5-0.7-3.5-1.3
			c-1-0.6-1.9-1.4-2.6-2.4c-0.7-1-1.1-2.2-1.1-3.7h4.4c0,0.8,0.3,1.5,0.7,2c0.5,0.5,1,1,1.7,1.3c0.7,0.3,1.4,0.6,2.2,0.7
			c0.8,0.2,1.5,0.2,2.3,0.2c1.4,0,2.7-0.2,3.6-0.7c1-0.5,1.8-1.2,2.5-2.1c0.7-0.9,1.1-1.9,1.4-3.2s0.4-2.6,0.4-4.1v-1.7h-0.1
			c-0.8,1.6-1.9,2.9-3.4,3.6c-1.5,0.8-3.1,1.2-4.9,1.2c-2,0-3.7-0.4-5.2-1.1c-1.5-0.7-2.7-1.7-3.7-2.9c-1-1.2-1.7-2.6-2.2-4.3
			s-0.7-3.3-0.7-5.2c0-1.6,0.2-3.2,0.6-4.9s1.1-3.2,2.1-4.5c1-1.4,2.2-2.5,3.8-3.3s3.5-1.3,5.8-1.3c1.7,0,3.2,0.4,4.6,1.1
			s2.5,1.8,3.3,3.3h0.1v-3.8h4.1v24.3C466.1,156.5,465.1,159.7,463.1,161.9z M457.5,149.9c1-0.6,1.8-1.4,2.4-2.4
			c0.6-1,1.1-2.1,1.4-3.3c0.3-1.2,0.4-2.5,0.4-3.7c0-1.2-0.1-2.3-0.4-3.4c-0.3-1.1-0.7-2.2-1.3-3.1c-0.6-0.9-1.4-1.6-2.3-2.2
			c-1-0.5-2.1-0.8-3.5-0.8c-1.4,0-2.6,0.3-3.6,0.8c-1,0.5-1.8,1.2-2.4,2.1c-0.6,0.9-1.1,1.9-1.4,3.1c-0.3,1.2-0.4,2.4-0.4,3.6
			c0,1.2,0.1,2.4,0.4,3.6c0.2,1.2,0.7,2.3,1.2,3.3s1.4,1.8,2.3,2.4c1,0.6,2.2,0.9,3.6,0.9S456.5,150.5,457.5,149.9z"/>
		<path id="XMLID_30_" d="M476.8,127.8v4.2h0.1c1.8-3.2,4.7-4.8,8.6-4.8c1.7,0,3.2,0.2,4.4,0.7c1.2,0.5,2.1,1.1,2.8,2
			s1.2,1.9,1.5,3.1c0.3,1.2,0.4,2.5,0.4,3.9v17.5h-4.4v-18c0-1.6-0.5-2.9-1.4-3.9c-1-1-2.3-1.4-4-1.4c-1.3,0-2.5,0.2-3.5,0.6
			c-1,0.4-1.8,1-2.4,1.7c-0.7,0.8-1.1,1.6-1.5,2.6c-0.3,1-0.5,2.1-0.5,3.3v15h-4.4v-26.6H476.8z"/>
		<path id="XMLID_32_" d="M501.5,123v-5.3h4.4v5.3H501.5z M505.9,127.8v26.6h-4.4v-26.6H505.9z"/>
		<path id="XMLID_35_" d="M524,127.8v3.9h-5.3v16.5c0,0.5,0,0.9,0.1,1.2c0.1,0.3,0.2,0.5,0.5,0.7c0.2,0.2,0.6,0.3,1,0.3
			s1,0.1,1.7,0.1h2v3.9h-3.3c-1.1,0-2.1-0.1-2.9-0.2s-1.5-0.4-2-0.8c-0.5-0.4-0.9-1-1.1-1.7c-0.2-0.8-0.4-1.7-0.4-3v-16.9h-4.5v-3.9
			h4.5v-8h4.4v8H524z"/>
		<path id="XMLID_37_" d="M529.1,123v-5.3h4.4v5.3H529.1z M533.5,127.8v26.6h-4.4v-26.6H533.5z"/>
		<path id="XMLID_40_" d="M547.6,154.4l-9.9-26.6h4.9l7.5,22.2h0.1l7.2-22.2h4.6l-9.7,26.6H547.6z"/>
		<path id="XMLID_42_" d="M584.8,152.7c-2,1.5-4.5,2.3-7.5,2.3c-2.1,0-4-0.3-5.5-1c-1.6-0.7-2.9-1.6-3.9-2.9
			c-1.1-1.2-1.9-2.7-2.4-4.4c-0.5-1.7-0.8-3.6-0.9-5.6c0-2,0.3-3.9,0.9-5.6c0.6-1.7,1.5-3.1,2.6-4.4c1.1-1.2,2.4-2.2,4-2.9
			c1.5-0.7,3.2-1,5-1c2.4,0,4.3,0.5,5.9,1.5s2.8,2.2,3.8,3.7c0.9,1.5,1.6,3.2,2,4.9c0.4,1.8,0.5,3.5,0.4,5.1h-19.9
			c0,1.2,0.1,2.3,0.4,3.3c0.3,1,0.8,2,1.5,2.8c0.7,0.8,1.6,1.4,2.6,1.9c1.1,0.5,2.3,0.7,3.8,0.7c1.9,0,3.4-0.4,4.5-1.3
			s2-2.2,2.3-3.9h4.3C588.1,148.9,586.8,151.2,584.8,152.7z M583.7,135.6c-0.4-0.9-0.9-1.7-1.6-2.4c-0.7-0.7-1.5-1.2-2.4-1.6
			c-0.9-0.4-1.9-0.6-3-0.6c-1.1,0-2.2,0.2-3.1,0.6c-0.9,0.4-1.7,0.9-2.3,1.6c-0.7,0.7-1.2,1.5-1.5,2.4c-0.4,0.9-0.6,1.9-0.7,2.9
			h15.3C584.4,137.5,584.1,136.5,583.7,135.6z"/>
		<path id="XMLID_45_" d="M626.7,152.7c-2,1.5-4.5,2.3-7.5,2.3c-2.1,0-4-0.3-5.5-1c-1.6-0.7-2.9-1.6-3.9-2.9
			c-1.1-1.2-1.9-2.7-2.4-4.4c-0.5-1.7-0.8-3.6-0.9-5.6c0-2,0.3-3.9,0.9-5.6c0.6-1.7,1.5-3.1,2.6-4.4c1.1-1.2,2.4-2.2,4-2.9
			c1.5-0.7,3.2-1,5-1c2.4,0,4.3,0.5,5.9,1.5s2.8,2.2,3.8,3.7c0.9,1.5,1.6,3.2,2,4.9c0.4,1.8,0.5,3.5,0.4,5.1h-19.9
			c0,1.2,0.1,2.3,0.4,3.3c0.3,1,0.8,2,1.5,2.8c0.7,0.8,1.6,1.4,2.6,1.9c1.1,0.5,2.3,0.7,3.8,0.7c1.9,0,3.4-0.4,4.5-1.3
			s2-2.2,2.3-3.9h4.3C630,148.9,628.7,151.2,626.7,152.7z M625.6,135.6c-0.4-0.9-0.9-1.7-1.6-2.4c-0.7-0.7-1.5-1.2-2.4-1.6
			c-0.9-0.4-1.9-0.6-3-0.6c-1.1,0-2.2,0.2-3.1,0.6c-0.9,0.4-1.7,0.9-2.3,1.6c-0.7,0.7-1.2,1.5-1.5,2.4c-0.4,0.9-0.6,1.9-0.7,2.9
			h15.3C626.3,137.5,626,136.5,625.6,135.6z"/>
		<path id="XMLID_48_" d="M639.6,127.8v4.2h0.1c1.8-3.2,4.7-4.8,8.6-4.8c1.7,0,3.2,0.2,4.4,0.7c1.2,0.5,2.1,1.1,2.8,2
			s1.2,1.9,1.5,3.1c0.3,1.2,0.4,2.5,0.4,3.9v17.5h-4.4v-18c0-1.6-0.5-2.9-1.4-3.9c-1-1-2.3-1.4-4-1.4c-1.3,0-2.5,0.2-3.5,0.6
			c-1,0.4-1.8,1-2.4,1.7c-0.7,0.8-1.1,1.6-1.5,2.6c-0.3,1-0.5,2.1-0.5,3.3v15h-4.4v-26.6H639.6z"/>
		<path id="XMLID_50_" d="M684,161.9c-2,2.2-5.1,3.2-9.4,3.2c-1.2,0-2.5-0.1-3.8-0.4c-1.3-0.3-2.5-0.7-3.5-1.3
			c-1-0.6-1.9-1.4-2.6-2.4c-0.7-1-1.1-2.2-1.1-3.7h4.4c0,0.8,0.3,1.5,0.7,2c0.5,0.5,1,1,1.7,1.3c0.7,0.3,1.4,0.6,2.2,0.7
			c0.8,0.2,1.5,0.2,2.3,0.2c1.4,0,2.7-0.2,3.6-0.7c1-0.5,1.8-1.2,2.5-2.1c0.7-0.9,1.1-1.9,1.4-3.2s0.4-2.6,0.4-4.1v-1.7h-0.1
			c-0.8,1.6-1.9,2.9-3.4,3.6c-1.5,0.8-3.1,1.2-4.9,1.2c-2,0-3.7-0.4-5.2-1.1c-1.5-0.7-2.7-1.7-3.7-2.9c-1-1.2-1.7-2.6-2.2-4.3
			s-0.7-3.3-0.7-5.2c0-1.6,0.2-3.2,0.6-4.9s1.1-3.2,2.1-4.5c1-1.4,2.2-2.5,3.8-3.3s3.5-1.3,5.8-1.3c1.7,0,3.2,0.4,4.6,1.1
			s2.5,1.8,3.3,3.3h0.1v-3.8h4.1v24.3C687,156.5,686,159.7,684,161.9z M678.4,149.9c1-0.6,1.8-1.4,2.4-2.4c0.6-1,1.1-2.1,1.4-3.3
			c0.3-1.2,0.4-2.5,0.4-3.7c0-1.2-0.1-2.3-0.4-3.4c-0.3-1.1-0.7-2.2-1.3-3.1c-0.6-0.9-1.4-1.6-2.3-2.2c-1-0.5-2.1-0.8-3.5-0.8
			c-1.4,0-2.6,0.3-3.6,0.8c-1,0.5-1.8,1.2-2.4,2.1c-0.6,0.9-1.1,1.9-1.4,3.1c-0.3,1.2-0.4,2.4-0.4,3.6c0,1.2,0.1,2.4,0.4,3.6
			c0.2,1.2,0.7,2.3,1.2,3.3s1.4,1.8,2.3,2.4c1,0.6,2.2,0.9,3.6,0.9S677.4,150.5,678.4,149.9z"/>
		<path id="XMLID_53_" d="M693.8,123v-5.3h4.4v5.3H693.8z M698.2,127.8v26.6h-4.4v-26.6H698.2z"/>
		<path id="XMLID_56_" d="M709.1,127.8v4.2h0.1c1.8-3.2,4.7-4.8,8.6-4.8c1.7,0,3.2,0.2,4.4,0.7c1.2,0.5,2.1,1.1,2.8,2
			s1.2,1.9,1.5,3.1c0.3,1.2,0.4,2.5,0.4,3.9v17.5h-4.4v-18c0-1.6-0.5-2.9-1.4-3.9c-1-1-2.3-1.4-4-1.4c-1.3,0-2.5,0.2-3.5,0.6
			c-1,0.4-1.8,1-2.4,1.7c-0.7,0.8-1.1,1.6-1.5,2.6c-0.3,1-0.5,2.1-0.5,3.3v15H705v-26.6H709.1z"/>
		<path id="XMLID_58_" d="M752.4,152.7c-2,1.5-4.5,2.3-7.5,2.3c-2.1,0-4-0.3-5.5-1c-1.6-0.7-2.9-1.6-3.9-2.9
			c-1.1-1.2-1.9-2.7-2.4-4.4c-0.5-1.7-0.8-3.6-0.9-5.6c0-2,0.3-3.9,0.9-5.6c0.6-1.7,1.5-3.1,2.6-4.4c1.1-1.2,2.4-2.2,4-2.9
			c1.5-0.7,3.2-1,5-1c2.4,0,4.3,0.5,5.9,1.5s2.8,2.2,3.8,3.7c0.9,1.5,1.6,3.2,2,4.9c0.4,1.8,0.5,3.5,0.4,5.1h-19.9
			c0,1.2,0.1,2.3,0.4,3.3c0.3,1,0.8,2,1.5,2.8c0.7,0.8,1.6,1.4,2.6,1.9c1.1,0.5,2.3,0.7,3.8,0.7c1.9,0,3.4-0.4,4.5-1.3
			s2-2.2,2.3-3.9h4.3C755.7,148.9,754.4,151.2,752.4,152.7z M751.3,135.6c-0.4-0.9-0.9-1.7-1.6-2.4c-0.7-0.7-1.5-1.2-2.4-1.6
			c-0.9-0.4-1.9-0.6-3-0.6c-1.1,0-2.2,0.2-3.1,0.6c-0.9,0.4-1.7,0.9-2.3,1.6c-0.7,0.7-1.2,1.5-1.5,2.4c-0.4,0.9-0.6,1.9-0.7,2.9H752
			C751.9,137.5,751.7,136.5,751.3,135.6z"/>
	</g>
</g>
</svg>
