<?xml version="1.0" encoding="utf-8"?>
<!-- Generator: Adobe Illustrator 19.0.0, SVG Export Plug-In . SVG Version: 6.00 Build 0)  -->
<svg version="1.1" id="Layer_1" xmlns="http://www.w3.org/2000/svg" xmlns:xlink="http://www.w3.org/1999/xlink" x="0px" y="0px"
	 viewBox="0 0 337 245.8" style="enable-background:new 0 0 337 245.8;" xml:space="preserve">
<style type="text/css">
	.st0{fill-rule:evenodd;clip-rule:evenodd;fill:#FFFFFF;}
	.st1{fill:#991B1E;}
	.st2{fill-rule:evenodd;clip-rule:evenodd;fill:#1D1D1B;}
	.st3{fill:#FFFFFF;}
	.st4{fill:none;}
	.st5{fill:#010101;}
</style>
<g id="XMLID_2321_">
	<g id="XMLID_2583_">
		<g id="XMLID_2585_">
			<circle class="st0" cx="122.2" cy="122.6" r="60.9"/>
		</g>
		<g id="XMLID_2584_">
			<path id="XMLID_36_" class="st1" d="M122.2,188.1c-36.1,0-65.4-29.4-65.4-65.4s29.4-65.4,65.4-65.4s65.4,29.4,65.4,65.4
				S158.3,188.1,122.2,188.1z M122.2,66.2c-31.1,0-56.4,25.3-56.4,56.4c0,31.1,25.3,56.4,56.4,56.4s56.4-25.3,56.4-56.4
				C178.7,91.5,153.4,66.2,122.2,66.2z"/>
		</g>
	</g>
	<g id="XMLID_2322_">
		<g id="XMLID_2580_">
			<g id="XMLID_2581_">
				<path class="st2" d="M90.9,163.1c6.4-13.5,5.6-15.6-2.9-31.3c-9.5-20.1-3-38.6,6-45.9c9.3-7.6,34.9-16.8,57.3,2.4
					c7.2,6.1,8.1,22.8,7.3,24.6c-1.4,1.7-2.9,3.2-1.7,6c1,2.3,10.2,12.1,10.2,12.1s0.5,2.3-0.5,3.2c-1.1,1-5.9,3.1-6.2,4.3
					c-0.4,1.8,1.1,3.7,0.9,4.4c-0.2,0.8-1.3,1.8-1.5,2.7c-0.2,1,0.8,2.7-0.2,3.6s-4,0.7-3.3,6.9c0.1,2.7-5.9,7.8-21.9,0.3
					c-1.3,1.8-1.6,2.3-1.2,6.8C124.4,163.2,92.3,163.3,90.9,163.1z"/>
			</g>
		</g>
		<g id="XMLID_2576_">
			<g id="XMLID_2577_">
				<path class="st3" d="M99.4,105.1c-2.9,0-5.3-2.4-5.3-5.3s2.4-5.3,5.3-5.3s5.3,2.4,5.3,5.3S102.3,105.1,99.4,105.1z M99.4,96.4
					c-1.9,0-3.4,1.5-3.4,3.4c0,1.9,1.5,3.4,3.4,3.4s3.4-1.5,3.4-3.4C102.8,97.9,101.3,96.4,99.4,96.4z"/>
			</g>
		</g>
		<g id="XMLID_2572_">
			<g id="XMLID_2573_">
				<path class="st3" d="M90.7,117.8c-2.9,0-5.3-2.4-5.3-5.3s2.4-5.3,5.3-5.3s5.3,2.4,5.3,5.3S93.6,117.8,90.7,117.8z M90.7,109.1
					c-1.9,0-3.4,1.5-3.4,3.4s1.5,3.4,3.4,3.4s3.4-1.5,3.4-3.4S92.6,109.1,90.7,109.1z"/>
			</g>
		</g>
		<g id="XMLID_2568_">
			<g id="XMLID_2569_">
				<path class="st3" d="M144.4,150.4c-2.9,0-5.3-2.4-5.3-5.3s2.4-5.3,5.3-5.3s5.3,2.4,5.3,5.3S147.4,150.4,144.4,150.4z
					 M144.4,141.7c-1.9,0-3.4,1.5-3.4,3.4s1.5,3.4,3.4,3.4s3.4-1.5,3.4-3.4S146.3,141.7,144.4,141.7z"/>
			</g>
		</g>
		<g id="XMLID_2564_">
			<g id="XMLID_2565_">
				<path class="st3" d="M138.4,105.1c-2.9,0-5.3-2.4-5.3-5.3s2.4-5.3,5.3-5.3s5.3,2.4,5.3,5.3S141.3,105.1,138.4,105.1z
					 M138.4,96.4c-1.9,0-3.4,1.5-3.4,3.4c0,1.9,1.5,3.4,3.4,3.4s3.4-1.5,3.4-3.4C141.8,97.9,140.3,96.4,138.4,96.4z"/>
			</g>
		</g>
		<g id="XMLID_2562_">
			<g id="XMLID_2563_">
				
					<rect x="95.8" y="132" transform="matrix(0.531 0.8474 -0.8474 0.531 160.9989 -25.1139)" class="st3" width="14.7" height="1.9"/>
			</g>
		</g>
		<g id="XMLID_2560_">
			<g id="XMLID_2561_">
				<rect x="98.5" y="104.2" class="st3" width="1.9" height="23"/>
			</g>
		</g>
		<g id="XMLID_2558_">
			<g id="XMLID_2559_">
				<rect x="106" y="138.6" class="st3" width="1.9" height="25.1"/>
			</g>
		</g>
		<g id="XMLID_2556_">
			<g id="XMLID_2557_">
				
					<rect x="101.4" y="84.1" transform="matrix(0.5604 0.8282 -0.8282 0.5604 118.6216 -53.5191)" class="st3" width="16.6" height="1.9"/>
			</g>
		</g>
		<g id="XMLID_2554_">
			<g id="XMLID_2555_">
				<rect x="113.3" y="91.3" class="st3" width="1.9" height="71.8"/>
			</g>
		</g>
		<g id="XMLID_2552_">
			<g id="XMLID_2553_">
				
					<rect x="107.9" y="83.6" transform="matrix(0.554 0.8325 -0.8325 0.554 122.194 -59.106)" class="st3" width="16.8" height="1.9"/>
			</g>
		</g>
		<g id="XMLID_2548_">
			<g id="XMLID_2549_">
				<rect x="119.9" y="91" class="st3" width="1.9" height="68.9"/>
			</g>
		</g>
		<g id="XMLID_2546_">
			<g id="XMLID_2547_">
				
					<rect x="86.3" y="134.2" transform="matrix(0.5359 0.8443 -0.8443 0.5359 158.3979 -17.8747)" class="st3" width="18.3" height="1.9"/>
			</g>
		</g>
		<g id="XMLID_2339_">
			<g id="XMLID_2340_">
				<rect x="89.8" y="116.8" class="st3" width="1.9" height="11.1"/>
			</g>
		</g>
		<g id="XMLID_2337_">
			<g id="XMLID_2338_">
				<rect x="99.3" y="142.4" class="st3" width="1.9" height="22.4"/>
			</g>
		</g>
		<g id="XMLID_2335_">
			<g id="XMLID_2336_">
				<rect x="119.9" y="158" class="st3" width="13.9" height="1.9"/>
			</g>
		</g>
		<g id="XMLID_2333_">
			<g id="XMLID_2334_">
				<rect x="126.8" y="75.4" class="st3" width="1.9" height="71.4"/>
			</g>
		</g>
		<g id="XMLID_2331_">
			<g id="XMLID_2332_">
				<rect x="126.9" y="144.9" class="st3" width="13.8" height="1.9"/>
			</g>
		</g>
		<g id="XMLID_2329_">
			<g id="XMLID_2330_">
				<rect x="146" y="82.3" class="st3" width="1.9" height="47.1"/>
			</g>
		</g>
		<g id="XMLID_2327_">
			<g id="XMLID_2328_">
				<rect x="147.7" y="127.6" class="st3" width="18.5" height="1.9"/>
			</g>
		</g>
		<g id="XMLID_2325_">
			<g id="XMLID_2326_">
				<rect x="137.4" y="104.9" class="st3" width="1.9" height="31.5"/>
			</g>
		</g>
		<g id="XMLID_2323_">
			<g id="XMLID_2324_">
				<rect x="137.5" y="134.5" class="st3" width="29.7" height="1.9"/>
			</g>
		</g>
	</g>
</g>
<polyline id="XMLID_2319_" class="st4" points="460.7,-32.3 -23.6,-32.3 -23.6,275.5 460.7,275.5 "/>
<g id="XMLID_2317_">
	<path class="st5" d="M248.3,100.7l-4,10.3c-0.4,0.5-0.9,0.9-1.5,1.2c-0.7,0.3-1.4,0.4-2.1,0.4c-0.9,0-1.7-0.2-2.5-0.7
		c-0.3-0.2-0.5-0.5-0.7-0.7c-0.2-0.3-0.4-0.6-0.5-0.9l-6.8-18.4h5.9l4.8,14.5l4.9-14.5h7.7c0.7,0.1,1.2,0.3,1.5,0.9l7.4,13.2h0.3
		V92.1h5v18.1c-0.3,0.8-0.8,1.4-1.4,1.9c-0.5,0.4-1.3,0.6-2.3,0.6c-0.7,0-1.3-0.1-1.8-0.3c-0.5-0.2-1.4-0.8-1.5-1l-7.2-13h-0.3v14.1
		h-4.9V100.7z"/>
</g>
<g id="XMLID_610_">
	<path class="st5" d="M221.2,104.8l2.5-8.9l2.3,8.9H221.2z M227.8,94.6c-0.3-0.8-0.8-1.5-1.6-2c-0.8-0.5-1.7-0.8-2.7-0.8
		c0,0-0.3,0-0.4,0c-0.3,0-0.6,0-1,0.2c-0.4,0.1-0.7,0.2-0.9,0.4c-0.7,0.5-1.2,1.2-1.5,1.9l-5.2,13l-3-4c1.1-0.4,2-0.8,2.7-1.3
		c0.7-0.5,1.3-1.1,1.8-1.8c0.4-0.7,0.6-1.4,0.6-2.2c0-1.6-0.8-2.9-2.3-4.1c-1.6-1.2-3.4-1.7-5.5-1.7h-5.6c-0.7,0-1.5,0.4-2.1,0.9
		c-0.6,0.5-1,1-1.1,1.7l0,2.7l0,15v0h5.4V96h3.7c0.6,0.4,1.1,0.7,1.4,1.1c0.3,0.4,0.5,0.8,0.5,1.2c0,0.8-0.6,1.4-1.9,1.9
		c-0.6,0.2-1.2,0.4-1.8,0.6c-1.1,0.4-1.7,1-1.7,1.9c0,0.3,0.1,0.6,0.2,1l6.1,8.9h6.5l0,0l1.5-3.9h7.7l1.4,3.9l5.7-0.1L227.8,94.6z"
		/>
</g>
<polyline id="XMLID_577_" class="st4" points="460.7,-32.3 -23.6,-32.3 -23.6,275.5 460.7,275.5 "/>
<g id="XMLID_571_">
	<path id="XMLID_28_" d="M225,154c-0.8,0.4-1.8,0.7-3.1,0.7c-1.1,0-2-0.3-2.7-1c-0.7-0.6-1-1.7-1-3.1c-1.2,1.4-2.6,2.5-4.2,3.1
		s-3.3,1-5.2,1c-1.2,0-2.3-0.1-3.4-0.4c-1.1-0.3-2-0.7-2.8-1.3c-0.8-0.6-1.4-1.3-1.9-2.3c-0.5-0.9-0.7-2.1-0.7-3.4
		c0-1.5,0.3-2.7,0.8-3.7c0.5-1,1.2-1.7,2-2.3c0.8-0.6,1.8-1.1,2.9-1.4c1.1-0.3,2.2-0.6,3.3-0.8c1.2-0.2,2.3-0.4,3.4-0.5
		s2-0.3,2.9-0.5c0.8-0.2,1.5-0.5,2-1c0.5-0.4,0.7-1.1,0.7-1.9c0-1-0.2-1.7-0.5-2.3c-0.4-0.6-0.8-1-1.4-1.3c-0.6-0.3-1.2-0.5-1.9-0.6
		c-0.7-0.1-1.4-0.2-2.1-0.2c-1.9,0-3.4,0.4-4.6,1.1c-1.2,0.7-1.9,2-2,4H201c0.1-1.6,0.4-3,1-4.2c0.6-1.1,1.4-2,2.5-2.8
		c1-0.7,2.2-1.2,3.5-1.5c1.3-0.3,2.7-0.5,4.2-0.5c1.2,0,2.4,0.1,3.6,0.3c1.2,0.2,2.3,0.5,3.2,1.1c1,0.5,1.7,1.3,2.3,2.2
		c0.6,1,0.9,2.2,0.9,3.7v13.6c0,1,0.1,1.8,0.2,2.3c0.1,0.5,0.5,0.7,1.2,0.7c0.4,0,0.8-0.1,1.3-0.2V154z M217.9,140.4
		c-0.5,0.4-1.3,0.7-2.2,0.9c-0.9,0.2-1.8,0.3-2.8,0.5c-1,0.1-2,0.3-3,0.4c-1,0.2-1.9,0.4-2.7,0.7c-0.8,0.3-1.4,0.8-1.9,1.5
		c-0.5,0.6-0.7,1.5-0.7,2.6c0,0.7,0.1,1.3,0.4,1.8c0.3,0.5,0.7,0.9,1.1,1.2c0.5,0.3,1,0.5,1.6,0.7s1.3,0.2,2,0.2
		c1.4,0,2.7-0.2,3.7-0.6s1.9-0.9,2.5-1.5s1.1-1.2,1.4-1.9c0.3-0.7,0.5-1.4,0.5-2V140.4z"/>
	<path id="XMLID_31_" d="M244.9,132.2c-1.1-0.9-2.6-1.4-4.4-1.4c-1.6,0-2.9,0.3-4,0.9c-1.1,0.6-1.9,1.4-2.5,2.3
		c-0.6,1-1.1,2.1-1.4,3.3c-0.3,1.3-0.4,2.5-0.4,3.9c0,1.2,0.1,2.4,0.4,3.6c0.3,1.2,0.7,2.2,1.4,3.1c0.6,0.9,1.4,1.6,2.4,2.2
		c1,0.5,2.2,0.8,3.5,0.8c2.2,0,3.8-0.6,5.1-1.7c1.2-1.1,2-2.7,2.2-4.8h4.5c-0.5,3.3-1.7,5.8-3.7,7.6c-2,1.8-4.7,2.7-8,2.7
		c-2,0-3.8-0.3-5.4-1c-1.6-0.7-2.9-1.6-3.9-2.8c-1-1.2-1.8-2.6-2.4-4.3c-0.5-1.7-0.8-3.5-0.8-5.5c0-2,0.3-3.8,0.8-5.6
		c0.5-1.7,1.3-3.2,2.3-4.5c1-1.3,2.4-2.3,3.9-3c1.6-0.7,3.4-1.1,5.5-1.1c1.5,0,2.9,0.2,4.2,0.5c1.3,0.4,2.5,0.9,3.5,1.7
		c1,0.8,1.8,1.7,2.5,2.9c0.7,1.1,1.1,2.5,1.2,4.1h-4.5C246.7,134.4,246,133.1,244.9,132.2z"/>
	<path id="XMLID_33_" d="M275.4,152.4c-2,1.5-4.5,2.3-7.5,2.3c-2.1,0-4-0.3-5.5-1c-1.6-0.7-2.9-1.6-3.9-2.9
		c-1.1-1.2-1.9-2.7-2.4-4.4c-0.5-1.7-0.8-3.6-0.9-5.6c0-2,0.3-3.9,0.9-5.6c0.6-1.7,1.5-3.1,2.6-4.4c1.1-1.2,2.4-2.2,4-2.9
		c1.5-0.7,3.2-1,5-1c2.4,0,4.3,0.5,5.9,1.5s2.8,2.2,3.8,3.7c0.9,1.5,1.6,3.2,2,4.9c0.4,1.8,0.5,3.5,0.4,5.1h-19.9
		c0,1.2,0.1,2.3,0.4,3.3c0.3,1,0.8,2,1.5,2.8c0.7,0.8,1.6,1.4,2.6,1.9c1.1,0.5,2.3,0.7,3.8,0.7c1.9,0,3.4-0.4,4.5-1.3s2-2.2,2.3-3.9
		h4.3C278.7,148.7,277.4,150.9,275.4,152.4z M274.4,135.4c-0.4-0.9-0.9-1.7-1.6-2.4c-0.7-0.7-1.5-1.2-2.4-1.6
		c-0.9-0.4-1.9-0.6-3-0.6c-1.1,0-2.2,0.2-3.1,0.6c-0.9,0.4-1.7,0.9-2.3,1.6c-0.7,0.7-1.2,1.5-1.5,2.4c-0.4,0.9-0.6,1.9-0.7,2.9h15.3
		C275,137.3,274.8,136.3,274.4,135.4z"/>
</g>
<polyline id="XMLID_569_" class="st4" points="460.7,-32.3 -23.6,-32.3 -23.6,275.5 460.7,275.5 "/>
</svg>
