<?xml version="1.0" encoding="utf-8"?>
<!-- Generator: Adobe Illustrator 19.0.0, SVG Export Plug-In . SVG Version: 6.00 Build 0)  -->
<svg version="1.1" id="Layer_1" xmlns="http://www.w3.org/2000/svg" xmlns:xlink="http://www.w3.org/1999/xlink" x="0px" y="0px"
	 viewBox="0 0 442.4 245.8" style="enable-background:new 0 0 442.4 245.8;" xml:space="preserve">
<style type="text/css">
	.st0{fill:#010101;}
	.st1{fill-rule:evenodd;clip-rule:evenodd;fill:#FFFFFF;}
	.st2{fill:#FFFFFF;}
	.st3{fill:#991B1E;}
</style>
<g id="XMLID_37_">
	<path class="st0" d="M248.2,102.4l-4,10.3c-0.4,0.5-0.9,0.9-1.5,1.2c-0.7,0.3-1.4,0.4-2.1,0.4c-0.9,0-1.7-0.2-2.5-0.7
		c-0.3-0.2-0.5-0.5-0.7-0.7c-0.2-0.3-0.4-0.6-0.5-0.9l-6.8-18.4h5.9l4.8,14.5l4.9-14.5h7.7c0.7,0.1,1.2,0.3,1.5,0.9l7.4,13.2h0.3
		V93.8h5v18.1c-0.3,0.8-0.8,1.4-1.4,1.9c-0.5,0.4-1.3,0.6-2.3,0.6c-0.7,0-1.3-0.1-1.8-0.3c-0.5-0.2-1.4-0.8-1.5-1l-7.2-13h-0.3v14.1
		h-4.9V102.4z"/>
</g>
<g id="XMLID_34_">
	<path class="st0" d="M221.1,106.5l2.5-8.9l2.3,8.9H221.1z M227.7,96.3c-0.3-0.8-0.8-1.5-1.6-2c-0.8-0.5-1.7-0.8-2.7-0.8
		c0,0-0.3,0-0.4,0c-0.3,0-0.6,0-1,0.2c-0.4,0.1-0.7,0.2-0.9,0.4c-0.7,0.5-1.2,1.2-1.5,1.9l-5.2,13l-3-4c1.1-0.4,2-0.8,2.7-1.3
		c0.7-0.5,1.3-1.1,1.8-1.8c0.4-0.7,0.6-1.4,0.6-2.2c0-1.6-0.8-2.9-2.3-4.1c-1.6-1.2-3.4-1.7-5.5-1.7H203c-0.7,0-1.5,0.4-2.1,0.9
		c-0.6,0.5-1,1-1.1,1.7l0,2.7l0,15v0h5.4V97.7h3.7c0.6,0.4,1.1,0.7,1.4,1.1c0.3,0.4,0.5,0.8,0.5,1.2c0,0.8-0.6,1.4-1.9,1.9
		c-0.6,0.2-1.2,0.4-1.8,0.6c-1.1,0.4-1.7,1-1.7,1.9c0,0.3,0.1,0.6,0.2,1l6.1,8.9h6.5l0,0l1.5-3.9h7.7l1.4,3.9l5.7-0.1L227.7,96.3z"
		/>
</g>
<g id="XMLID_33_">
	<path id="XMLID_42_" d="M205.8,119.1v13.7h0.1c0.7-1.5,1.9-2.5,3.4-3.2c1.5-0.7,3.2-1,5.1-1c2.1,0,3.8,0.4,5.4,1.1
		c1.5,0.8,2.8,1.8,3.8,3.1c1,1.3,1.8,2.8,2.3,4.4c0.5,1.7,0.8,3.5,0.8,5.3s-0.2,3.7-0.7,5.3c-0.5,1.7-1.3,3.1-2.3,4.4
		s-2.3,2.2-3.8,3c-1.5,0.7-3.3,1.1-5.3,1.1c-0.7,0-1.4-0.1-2.2-0.2c-0.8-0.1-1.6-0.4-2.4-0.7c-0.8-0.3-1.5-0.7-2.2-1.3
		c-0.7-0.5-1.3-1.2-1.8-2h-0.1v3.5h-4.4v-36.7H205.8z M221.5,138.7c-0.3-1.2-0.8-2.2-1.5-3.2c-0.7-0.9-1.5-1.7-2.6-2.2
		c-1-0.5-2.3-0.8-3.7-0.8c-1.5,0-2.7,0.3-3.8,0.9c-1,0.6-1.9,1.3-2.5,2.3c-0.7,0.9-1.1,2-1.4,3.2c-0.3,1.2-0.4,2.4-0.4,3.6
		c0,1.3,0.2,2.6,0.5,3.8c0.3,1.2,0.8,2.3,1.5,3.2c0.7,0.9,1.5,1.7,2.6,2.2c1.1,0.6,2.3,0.8,3.9,0.8c1.5,0,2.8-0.3,3.8-0.9
		c1-0.6,1.8-1.4,2.4-2.3c0.6-1,1.1-2.1,1.3-3.3c0.3-1.2,0.4-2.5,0.4-3.8C222,141.1,221.9,139.9,221.5,138.7z"/>
	<path id="XMLID_45_" d="M232,124.5v-5.3h4.4v5.3H232z M236.4,129.3v26.6H232v-26.6H236.4z"/>
	<path id="XMLID_48_" d="M263.1,163.3c-2,2.2-5.1,3.2-9.4,3.2c-1.2,0-2.5-0.1-3.8-0.4c-1.3-0.3-2.5-0.7-3.5-1.3
		c-1-0.6-1.9-1.4-2.6-2.4c-0.7-1-1.1-2.2-1.1-3.7h4.4c0,0.8,0.3,1.5,0.7,2c0.5,0.5,1,1,1.7,1.3c0.7,0.3,1.4,0.6,2.2,0.7
		c0.8,0.2,1.5,0.2,2.3,0.2c1.4,0,2.7-0.2,3.6-0.7c1-0.5,1.8-1.2,2.5-2.1c0.7-0.9,1.1-1.9,1.4-3.2s0.4-2.6,0.4-4.1v-1.7h-0.1
		c-0.8,1.6-1.9,2.9-3.4,3.6c-1.5,0.8-3.1,1.2-4.9,1.2c-2,0-3.7-0.4-5.2-1.1c-1.5-0.7-2.7-1.7-3.7-2.9c-1-1.2-1.7-2.6-2.2-4.3
		s-0.7-3.3-0.7-5.2c0-1.6,0.2-3.2,0.6-4.9s1.1-3.2,2.1-4.5c1-1.4,2.2-2.5,3.8-3.3s3.5-1.3,5.8-1.3c1.7,0,3.2,0.4,4.6,1.1
		s2.5,1.8,3.3,3.3h0.1v-3.8h4.1v24.3C266.1,157.9,265.1,161.2,263.1,163.3z M257.6,151.4c1-0.6,1.8-1.4,2.4-2.4
		c0.6-1,1.1-2.1,1.4-3.3c0.3-1.2,0.4-2.5,0.4-3.7c0-1.2-0.1-2.3-0.4-3.4c-0.3-1.1-0.7-2.2-1.3-3.1c-0.6-0.9-1.4-1.6-2.3-2.2
		c-1-0.5-2.1-0.8-3.5-0.8c-1.4,0-2.6,0.3-3.6,0.8c-1,0.5-1.8,1.2-2.4,2.1c-0.6,0.9-1.1,1.9-1.4,3.1c-0.3,1.2-0.4,2.4-0.4,3.6
		c0,1.2,0.1,2.4,0.4,3.6c0.2,1.2,0.7,2.3,1.2,3.3s1.4,1.8,2.3,2.4c1,0.6,2.2,0.9,3.6,0.9S256.6,152,257.6,151.4z"/>
	<path id="XMLID_51_" d="M306.4,155.8v-3.6h-0.1c-0.7,1.5-1.9,2.5-3.4,3.2s-3.2,1-5.1,1c-2.1,0-3.8-0.4-5.4-1.1
		c-1.5-0.8-2.8-1.8-3.8-3c-1-1.3-1.8-2.7-2.3-4.4c-0.5-1.7-0.8-3.5-0.8-5.3s0.2-3.7,0.7-5.3c0.5-1.7,1.3-3.1,2.3-4.4s2.3-2.2,3.8-3
		c1.5-0.7,3.3-1.1,5.3-1.1c0.7,0,1.4,0.1,2.2,0.2c0.8,0.1,1.6,0.4,2.4,0.7c0.8,0.3,1.5,0.8,2.2,1.3s1.3,1.2,1.8,2h0.1v-13.7h4.4
		v36.7H306.4z M290.7,146.4c0.3,1.2,0.8,2.2,1.5,3.2s1.5,1.7,2.6,2.2c1,0.5,2.3,0.8,3.7,0.8c1.5,0,2.7-0.3,3.8-0.9
		c1-0.6,1.9-1.3,2.5-2.3c0.7-0.9,1.1-2,1.4-3.2c0.3-1.2,0.4-2.4,0.4-3.6c0-1.3-0.2-2.6-0.5-3.8c-0.3-1.2-0.8-2.3-1.5-3.2
		c-0.7-0.9-1.5-1.7-2.6-2.2s-2.3-0.8-3.9-0.8c-1.5,0-2.7,0.3-3.8,0.9s-1.9,1.4-2.5,2.3c-0.6,1-1.1,2.1-1.3,3.3
		c-0.3,1.2-0.4,2.5-0.4,3.8C290.2,144,290.3,145.2,290.7,146.4z"/>
	<path id="XMLID_54_" d="M341,155.7c-0.8,0.4-1.8,0.7-3.1,0.7c-1.1,0-2-0.3-2.7-1s-1-1.7-1-3.1c-1.2,1.4-2.6,2.5-4.2,3.1
		c-1.6,0.6-3.3,1-5.2,1c-1.2,0-2.3-0.1-3.4-0.4c-1.1-0.3-2-0.7-2.8-1.3c-0.8-0.6-1.4-1.3-1.9-2.3c-0.5-0.9-0.7-2.1-0.7-3.4
		c0-1.5,0.3-2.7,0.8-3.7c0.5-1,1.2-1.7,2-2.3c0.8-0.6,1.8-1.1,2.9-1.4c1.1-0.3,2.2-0.6,3.3-0.8c1.2-0.2,2.3-0.4,3.4-0.5
		c1.1-0.1,2-0.3,2.9-0.5c0.8-0.2,1.5-0.5,2-1c0.5-0.4,0.7-1.1,0.7-1.9c0-1-0.2-1.7-0.5-2.3c-0.4-0.6-0.8-1-1.4-1.3
		c-0.6-0.3-1.2-0.5-1.9-0.6c-0.7-0.1-1.4-0.2-2.1-0.2c-1.9,0-3.4,0.4-4.6,1.1c-1.2,0.7-1.9,2-2,4h-4.4c0.1-1.6,0.4-3,1-4.2
		c0.6-1.1,1.4-2,2.5-2.8c1-0.7,2.2-1.2,3.5-1.5c1.3-0.3,2.7-0.5,4.2-0.5c1.2,0,2.4,0.1,3.6,0.3s2.3,0.5,3.2,1.1
		c1,0.5,1.7,1.3,2.3,2.2c0.6,1,0.9,2.2,0.9,3.7v13.6c0,1,0.1,1.8,0.2,2.3c0.1,0.5,0.5,0.7,1.2,0.7c0.4,0,0.8-0.1,1.3-0.2V155.7z
		 M333.9,142.1c-0.5,0.4-1.3,0.7-2.2,0.9c-0.9,0.2-1.8,0.3-2.8,0.5s-2,0.3-3,0.4c-1,0.2-1.9,0.4-2.7,0.7c-0.8,0.3-1.4,0.8-1.9,1.5
		c-0.5,0.6-0.7,1.5-0.7,2.6c0,0.7,0.1,1.3,0.4,1.8c0.3,0.5,0.7,0.9,1.1,1.2s1,0.5,1.6,0.7s1.3,0.2,2,0.2c1.4,0,2.7-0.2,3.7-0.6
		c1-0.4,1.9-0.9,2.5-1.5c0.7-0.6,1.1-1.2,1.4-1.9c0.3-0.7,0.5-1.4,0.5-2V142.1z"/>
	<path id="XMLID_57_" d="M356.4,129.3v3.9h-5.3v16.5c0,0.5,0,0.9,0.1,1.2c0.1,0.3,0.2,0.5,0.5,0.7c0.2,0.2,0.6,0.3,1,0.3
		s1,0.1,1.7,0.1h2v3.9h-3.3c-1.1,0-2.1-0.1-2.9-0.2s-1.5-0.4-2-0.8c-0.5-0.4-0.9-1-1.1-1.7c-0.2-0.8-0.4-1.7-0.4-3v-16.9h-4.5v-3.9
		h4.5v-8h4.4v8H356.4z"/>
	<path id="XMLID_59_" d="M384.8,155.7c-0.8,0.4-1.8,0.7-3.1,0.7c-1.1,0-2-0.3-2.7-1s-1-1.7-1-3.1c-1.2,1.4-2.6,2.5-4.2,3.1
		c-1.6,0.6-3.3,1-5.2,1c-1.2,0-2.3-0.1-3.4-0.4c-1.1-0.3-2-0.7-2.8-1.3c-0.8-0.6-1.4-1.3-1.9-2.3c-0.5-0.9-0.7-2.1-0.7-3.4
		c0-1.5,0.3-2.7,0.8-3.7c0.5-1,1.2-1.7,2-2.3c0.8-0.6,1.8-1.1,2.9-1.4c1.1-0.3,2.2-0.6,3.3-0.8c1.2-0.2,2.3-0.4,3.4-0.5
		c1.1-0.1,2-0.3,2.9-0.5c0.8-0.2,1.5-0.5,2-1c0.5-0.4,0.7-1.1,0.7-1.9c0-1-0.2-1.7-0.5-2.3c-0.4-0.6-0.8-1-1.4-1.3
		c-0.6-0.3-1.2-0.5-1.9-0.6c-0.7-0.1-1.4-0.2-2.1-0.2c-1.9,0-3.4,0.4-4.6,1.1c-1.2,0.7-1.9,2-2,4h-4.4c0.1-1.6,0.4-3,1-4.2
		c0.6-1.1,1.4-2,2.5-2.8c1-0.7,2.2-1.2,3.5-1.5c1.3-0.3,2.7-0.5,4.2-0.5c1.2,0,2.4,0.1,3.6,0.3s2.3,0.5,3.2,1.1
		c1,0.5,1.7,1.3,2.3,2.2c0.6,1,0.9,2.2,0.9,3.7v13.6c0,1,0.1,1.8,0.2,2.3c0.1,0.5,0.5,0.7,1.2,0.7c0.4,0,0.8-0.1,1.3-0.2V155.7z
		 M377.7,142.1c-0.5,0.4-1.3,0.7-2.2,0.9c-0.9,0.2-1.8,0.3-2.8,0.5s-2,0.3-3,0.4c-1,0.2-1.9,0.4-2.7,0.7c-0.8,0.3-1.4,0.8-1.9,1.5
		c-0.5,0.6-0.7,1.5-0.7,2.6c0,0.7,0.1,1.3,0.4,1.8c0.3,0.5,0.7,0.9,1.1,1.2s1,0.5,1.6,0.7s1.3,0.2,2,0.2c1.4,0,2.7-0.2,3.7-0.6
		c1-0.4,1.9-0.9,2.5-1.5c0.7-0.6,1.1-1.2,1.4-1.9c0.3-0.7,0.5-1.4,0.5-2V142.1z"/>
</g>
<g id="XMLID_1_">
	<g id="XMLID_32_">
		<circle class="st1" cx="122.5" cy="124.8" r="60.9"/>
	</g>
	<g id="XMLID_2_">
		<g id="XMLID_27_">
			<g id="XMLID_28_">
				<g id="XMLID_29_">
					<path class="st0" d="M122,160.7c-12.3,0-23.7-6.2-30.4-16.6c-5.2-8.1-6.9-17.7-4.9-27.1c2.1-9.4,7.6-17.5,15.7-22.7
						c5.8-3.7,12.5-5.7,19.4-5.7c12.3,0,23.7,6.2,30.4,16.6c10.7,16.7,5.9,39.1-10.9,49.8C135.6,158.7,128.9,160.7,122,160.7z
						 M121.9,95.6c-5.5,0-11,1.6-15.7,4.6c-6.5,4.2-11,10.7-12.7,18.3c-1.7,7.6-0.3,15.3,3.9,21.9c5.4,8.4,14.5,13.4,24.5,13.4
						c5.5,0,11-1.6,15.7-4.6c13.5-8.7,17.4-26.7,8.7-40.1c-3.4-5.4-8.4-9.3-14.2-11.5C129,96.3,125.5,95.6,121.9,95.6z"/>
				</g>
			</g>
		</g>
		<g id="XMLID_25_">
			<g id="XMLID_26_">
				<path class="st2" d="M109.3,134.6c4.8,7.5,2.6,17.5-4.9,22.3c-7.5,4.8-17.5,2.6-22.3-4.9c-3.1-4.9-3.3-10.9-1-15.7
					c1.3-2.6,1.2-8.9,3.9-10.6c5.4-3.5,14.3-2.8,19.4,0.3C106.4,127.3,107.9,132.5,109.3,134.6z"/>
			</g>
		</g>
		<g id="XMLID_20_">
			<g id="XMLID_24_">
				<path class="st0" d="M103.7,139.4c2.5,3.9,1.4,9.1-2.5,11.6c-3.9,2.5-9.1,1.4-11.6-2.5c-2.5-3.9-1.4-9.1,2.5-11.6
					C96,134.4,101.2,135.5,103.7,139.4z"/>
			</g>
			<g id="XMLID_21_">
				<path class="st0" d="M96.7,152.8c-3,0-5.8-1.5-7.5-4.1c-1.3-2-1.7-4.4-1.2-6.7c0.5-2.3,1.9-4.3,3.9-5.6c1.4-0.9,3.1-1.4,4.8-1.4
					c3,0,5.9,1.5,7.5,4.1c1.3,2,1.7,4.4,1.2,6.7c-0.5,2.3-1.9,4.3-3.9,5.6C100,152.3,98.4,152.8,96.7,152.8z M96.6,136
					c-1.5,0-3,0.4-4.3,1.3c-1.8,1.1-3,2.9-3.4,5c-0.4,2.1-0.1,4.2,1.1,6c1.5,2.3,3.9,3.6,6.7,3.6c1.5,0,3-0.4,4.3-1.3
					c1.8-1.1,3-2.9,3.4-5c0.4-2.1,0.1-4.2-1.1-5.9C101.8,137.4,99.3,136,96.6,136z"/>
			</g>
		</g>
		<g id="XMLID_18_">
			<g id="XMLID_19_">
				<path class="st2" d="M168.2,96.8c5.8,9.1,3.8,21-4.3,27.7c-0.7,0.5-1.9,9.4-2.6,9.9c-4.8,3.1-11.1-0.5-16.2-1.5
					c-5.5-1.1-9.1-8.1-12.4-13.2c-6.3-9.8-3.5-22.9,6.4-29.2C148.9,84.1,161.9,87,168.2,96.8z"/>
			</g>
		</g>
		<g id="XMLID_13_">
			<g id="XMLID_17_">
				<path class="st0" d="M161.3,99.7c4.2,6.5,2.3,15.1-4.2,19.3c-6.5,4.2-15.1,2.3-19.3-4.2c-4.2-6.5-2.3-15.1,4.2-19.3
					C148.5,91.4,157.1,93.2,161.3,99.7z"/>
			</g>
			<g id="XMLID_14_">
				<path class="st0" d="M149.5,121.7c-5,0-9.5-2.5-12.2-6.7c-4.3-6.7-2.4-15.7,4.4-20c2.3-1.5,5-2.3,7.8-2.3c5,0,9.5,2.5,12.2,6.7
					c2.1,3.2,2.8,7.1,2,10.9c-0.8,3.8-3.1,7-6.3,9.1C155,121,152.3,121.7,149.5,121.7z M149.5,93.8c-2.6,0-5.1,0.7-7.3,2.1
					c-6.2,4-8.1,12.4-4.1,18.6c2.5,3.9,6.7,6.2,11.3,6.2c2.6,0,5.1-0.7,7.3-2.1c3-1.9,5.1-4.9,5.9-8.5c0.8-3.5,0.1-7.1-1.8-10.1
					C158.4,96.1,154.1,93.8,149.5,93.8z"/>
			</g>
		</g>
		<g id="XMLID_8_">
			<g id="XMLID_12_">
				<polygon class="st0" points="84.7,123.2 94.8,122.7 90.2,131.6 				"/>
			</g>
			<g id="XMLID_9_">
				<path class="st0" d="M90.2,132.6l-6.4-9.9l11.8-0.6L90.2,132.6z M85.6,123.6l4.5,7l3.8-7.4L85.6,123.6z"/>
			</g>
		</g>
		<g id="XMLID_3_">
			<g id="XMLID_7_">
				<polygon class="st0" points="147.6,134.2 154.4,126.2 157.9,136.1 				"/>
			</g>
			<g id="XMLID_4_">
				<path class="st0" d="M158.7,136.7l-12-2.2l7.9-9.3L158.7,136.7z M148.6,133.9l8.6,1.6l-2.9-8.2L148.6,133.9z"/>
			</g>
		</g>
	</g>
</g>
<g id="XMLID_1446_">
	<path id="XMLID_39_" class="st3" d="M122.2,190.3c-36.1,0-65.4-29.4-65.4-65.4c0-36.1,29.4-65.4,65.4-65.4s65.4,29.4,65.4,65.4
		C187.7,161,158.3,190.3,122.2,190.3z M122.2,68.5c-31.1,0-56.4,25.3-56.4,56.4c0,31.1,25.3,56.4,56.4,56.4s56.4-25.3,56.4-56.4
		C178.7,93.8,153.3,68.5,122.2,68.5z"/>
</g>
</svg>
