<?xml version="1.0" encoding="utf-8"?>
<!-- Generator: Adobe Illustrator 19.0.0, SVG Export Plug-In . SVG Version: 6.00 Build 0)  -->
<svg version="1.1" id="Layer_1" xmlns="http://www.w3.org/2000/svg" xmlns:xlink="http://www.w3.org/1999/xlink" x="0px" y="0px"
	 viewBox="0 0 440 245.9" style="enable-background:new 0 0 440 245.9;" xml:space="preserve">
<style type="text/css">
	.st0{fill:#010101;}
	.st1{fill:#FFFFFF;}
	.st2{fill:#991C20;}
	.st3{fill:#991B1E;}
</style>
<g id="XMLID_1433_">
	<g id="XMLID_1434_">
		<g id="XMLID_2485_">
			<path id="XMLID_34_" d="M217.6,132.4c-1.1-0.9-2.6-1.4-4.4-1.4c-1.6,0-2.9,0.3-4,0.9c-1.1,0.6-1.9,1.4-2.5,2.3
				c-0.6,1-1.1,2.1-1.4,3.3c-0.3,1.3-0.4,2.5-0.4,3.9c0,1.2,0.1,2.4,0.4,3.6c0.3,1.2,0.7,2.2,1.4,3.1c0.6,0.9,1.4,1.6,2.4,2.2
				c1,0.5,2.2,0.8,3.5,0.8c2.2,0,3.8-0.6,5.1-1.7c1.2-1.1,2-2.7,2.2-4.8h4.5c-0.5,3.3-1.7,5.8-3.7,7.6c-2,1.8-4.7,2.7-8,2.7
				c-2,0-3.8-0.3-5.4-1c-1.6-0.7-2.9-1.6-3.9-2.8c-1-1.2-1.8-2.6-2.4-4.3c-0.5-1.7-0.8-3.5-0.8-5.5c0-2,0.3-3.8,0.8-5.6
				s1.3-3.2,2.3-4.5c1-1.3,2.4-2.3,3.9-3c1.6-0.7,3.4-1.1,5.5-1.1c1.5,0,2.9,0.2,4.2,0.5c1.3,0.4,2.5,0.9,3.5,1.7
				c1,0.8,1.8,1.7,2.5,2.9c0.7,1.1,1.1,2.5,1.2,4.1h-4.5C219.4,134.7,218.7,133.4,217.6,132.4z"/>
			<path id="XMLID_36_" d="M228.7,135.6c0.5-1.7,1.4-3.2,2.5-4.4c1.1-1.3,2.4-2.2,4.1-3c1.6-0.7,3.5-1.1,5.6-1.1
				c2.1,0,4,0.4,5.6,1.1c1.6,0.7,2.9,1.7,4,3c1.1,1.3,1.9,2.7,2.5,4.4s0.8,3.5,0.8,5.5s-0.3,3.8-0.8,5.4c-0.5,1.7-1.4,3.1-2.5,4.4
				c-1.1,1.3-2.4,2.2-4,2.9c-1.6,0.7-3.5,1.1-5.6,1.1c-2.1,0-3.9-0.4-5.6-1.1c-1.6-0.7-3-1.7-4.1-2.9c-1.1-1.2-1.9-2.7-2.5-4.4
				c-0.5-1.7-0.8-3.5-0.8-5.4S228.1,137.3,228.7,135.6z M233.1,145.4c0.4,1.3,1,2.3,1.8,3.1c0.8,0.8,1.6,1.5,2.6,1.9
				c1,0.4,2.1,0.7,3.2,0.7s2.2-0.2,3.2-0.7c1-0.4,1.9-1.1,2.6-1.9c0.8-0.8,1.3-1.9,1.8-3.1c0.4-1.2,0.6-2.7,0.6-4.3
				c0-1.6-0.2-3-0.6-4.3s-1-2.3-1.8-3.2c-0.8-0.9-1.6-1.5-2.6-2c-1-0.4-2.1-0.7-3.2-0.7s-2.2,0.2-3.2,0.7c-1,0.4-1.9,1.1-2.6,2
				c-0.8,0.9-1.3,1.9-1.8,3.2s-0.6,2.7-0.6,4.3C232.5,142.7,232.7,144.2,233.1,145.4z"/>
			<path id="XMLID_39_" d="M262.9,127.8v4.2h0.1c1.8-3.2,4.7-4.8,8.6-4.8c1.7,0,3.2,0.2,4.4,0.7c1.2,0.5,2.1,1.1,2.8,2
				s1.2,1.9,1.5,3.1c0.3,1.2,0.4,2.5,0.4,3.9v17.5h-4.4v-18c0-1.6-0.5-2.9-1.4-3.9c-1-1-2.3-1.4-4-1.4c-1.3,0-2.5,0.2-3.5,0.6
				c-1,0.4-1.8,1-2.4,1.7c-0.7,0.8-1.1,1.6-1.5,2.6c-0.3,1-0.5,2.1-0.5,3.3v15h-4.4v-26.6H262.9z"/>
			<path id="XMLID_41_" d="M291.5,127.8v4.2h0.1c1.8-3.2,4.7-4.8,8.6-4.8c1.7,0,3.2,0.2,4.4,0.7c1.2,0.5,2.1,1.1,2.8,2
				s1.2,1.9,1.5,3.1c0.3,1.2,0.4,2.5,0.4,3.9v17.5H305v-18c0-1.6-0.5-2.9-1.4-3.9c-1-1-2.3-1.4-4-1.4c-1.3,0-2.5,0.2-3.5,0.6
				c-1,0.4-1.8,1-2.4,1.7c-0.7,0.8-1.1,1.6-1.5,2.6c-0.3,1-0.5,2.1-0.5,3.3v15h-4.4v-26.6H291.5z"/>
			<path id="XMLID_43_" d="M334.8,152.7c-2,1.5-4.5,2.3-7.5,2.3c-2.1,0-4-0.3-5.5-1c-1.6-0.7-2.9-1.6-3.9-2.9
				c-1.1-1.2-1.9-2.7-2.4-4.4c-0.5-1.7-0.8-3.6-0.9-5.6c0-2,0.3-3.9,0.9-5.6c0.6-1.7,1.5-3.1,2.6-4.4c1.1-1.2,2.4-2.2,4-2.9
				c1.5-0.7,3.2-1,5-1c2.4,0,4.3,0.5,5.9,1.5s2.8,2.2,3.8,3.7c0.9,1.5,1.6,3.2,2,4.9c0.4,1.8,0.5,3.5,0.4,5.1h-19.9
				c0,1.2,0.1,2.3,0.4,3.3c0.3,1,0.8,2,1.5,2.8c0.7,0.8,1.6,1.4,2.6,1.9c1.1,0.5,2.3,0.7,3.8,0.7c1.9,0,3.4-0.4,4.5-1.3
				s2-2.2,2.3-3.9h4.3C338,148.9,336.7,151.2,334.8,152.7z M333.7,135.6c-0.4-0.9-0.9-1.7-1.6-2.4c-0.7-0.7-1.5-1.2-2.4-1.6
				c-0.9-0.4-1.9-0.6-3-0.6c-1.1,0-2.2,0.2-3.1,0.6c-0.9,0.4-1.7,0.9-2.3,1.6c-0.7,0.7-1.2,1.5-1.5,2.4c-0.4,0.9-0.6,1.9-0.7,2.9
				h15.3C334.3,137.5,334.1,136.5,333.7,135.6z"/>
			<path id="XMLID_46_" d="M359.4,132.4c-1.1-0.9-2.6-1.4-4.4-1.4c-1.6,0-2.9,0.3-4,0.9c-1.1,0.6-1.9,1.4-2.5,2.3
				c-0.6,1-1.1,2.1-1.4,3.3c-0.3,1.3-0.4,2.5-0.4,3.9c0,1.2,0.1,2.4,0.4,3.6c0.3,1.2,0.7,2.2,1.4,3.1c0.6,0.9,1.4,1.6,2.4,2.2
				c1,0.5,2.2,0.8,3.5,0.8c2.2,0,3.8-0.6,5.1-1.7c1.2-1.1,2-2.7,2.2-4.8h4.5c-0.5,3.3-1.7,5.8-3.7,7.6c-2,1.8-4.7,2.7-8,2.7
				c-2,0-3.8-0.3-5.4-1c-1.6-0.7-2.9-1.6-3.9-2.8c-1-1.2-1.8-2.6-2.4-4.3c-0.5-1.7-0.8-3.5-0.8-5.5c0-2,0.3-3.8,0.8-5.6
				c0.5-1.7,1.3-3.2,2.3-4.5c1-1.3,2.4-2.3,3.9-3c1.6-0.7,3.4-1.1,5.5-1.1c1.5,0,2.9,0.2,4.2,0.5c1.3,0.4,2.5,0.9,3.5,1.7
				c1,0.8,1.8,1.7,2.5,2.9c0.7,1.1,1.1,2.5,1.2,4.1h-4.5C361.3,134.7,360.5,133.4,359.4,132.4z"/>
			<path id="XMLID_48_" d="M382.5,127.8v3.9h-5.3v16.5c0,0.5,0,0.9,0.1,1.2c0.1,0.3,0.2,0.5,0.5,0.7c0.2,0.2,0.6,0.3,1,0.3
				s1,0.1,1.7,0.1h2v3.9h-3.3c-1.1,0-2.1-0.1-2.9-0.2s-1.5-0.4-2-0.8c-0.5-0.4-0.9-1-1.1-1.7c-0.2-0.8-0.4-1.7-0.4-3v-16.9h-4.5
				v-3.9h4.5v-8h4.4v8H382.5z"/>
		</g>
		<g id="XMLID_1459_">
			<g id="XMLID_2380_">
				<path class="st0" d="M248.6,100.9l-4,10.3c-0.4,0.5-0.9,0.9-1.5,1.2c-0.7,0.3-1.4,0.4-2.1,0.4c-0.9,0-1.7-0.2-2.5-0.7
					c-0.3-0.2-0.5-0.5-0.7-0.7c-0.2-0.3-0.4-0.6-0.5-0.9l-6.8-18.4h5.9l4.8,14.5l4.9-14.5h7.7c0.7,0.1,1.2,0.3,1.5,0.9l7.4,13.2h0.3
					V92.3h5v18.1c-0.3,0.8-0.8,1.4-1.4,1.9c-0.5,0.4-1.3,0.6-2.3,0.6c-0.7,0-1.3-0.1-1.8-0.3c-0.5-0.2-1.4-0.8-1.5-1l-7.2-13h-0.3
					v14.1h-4.9V100.9z"/>
			</g>
			<g id="XMLID_2376_">
				<path class="st0" d="M221.4,105.1l2.5-8.9l2.3,8.9H221.4z M228,94.8c-0.3-0.8-0.8-1.5-1.6-2c-0.8-0.5-1.7-0.8-2.7-0.8
					c0,0-0.3,0-0.4,0c-0.3,0-0.6,0-1,0.2c-0.4,0.1-0.7,0.2-0.9,0.4c-0.7,0.5-1.2,1.2-1.5,1.9l-5.2,13l-3-4c1.1-0.4,2-0.8,2.7-1.3
					c0.7-0.5,1.3-1.1,1.8-1.8c0.4-0.7,0.6-1.4,0.6-2.2c0-1.6-0.8-2.9-2.3-4.1c-1.6-1.2-3.4-1.7-5.5-1.7h-5.6c-0.7,0-1.5,0.4-2.1,0.9
					c-0.6,0.5-1,1-1.1,1.7l0,2.7l0,15v0h5.4V96.2h3.7c0.6,0.4,1.1,0.7,1.4,1.1c0.3,0.4,0.5,0.8,0.5,1.2c0,0.8-0.6,1.4-1.9,1.9
					c-0.6,0.2-1.2,0.4-1.8,0.6c-1.1,0.4-1.7,1-1.7,1.9c0,0.3,0.1,0.6,0.2,1l6.1,8.9h6.5l0,0l1.5-3.9h7.7l1.4,3.9l5.7-0.1L228,94.8z"
					/>
			</g>
		</g>
	</g>
</g>
<g id="XMLID_2660_">
	<g id="XMLID_2486_">
		<circle id="XMLID_1_" class="st1" cx="123.1" cy="123.1" r="59.9"/>
		<path id="XMLID_30_" class="st2" d="M123.1,183.1c-33.1,0-60-26.9-60-60s26.9-60,60-60s60,26.9,60,60S156.1,183.1,123.1,183.1z
			 M123.1,63.4c-32.9,0-59.7,26.8-59.7,59.7s26.8,59.7,59.7,59.7s59.7-26.8,59.7-59.7S156,63.4,123.1,63.4z"/>
	</g>
	<g id="XMLID_1425_">
		<g id="XMLID_1431_">
			<g id="XMLID_1432_">
				<path id="XMLID_15_" class="st3" d="M122.3,189.1c-36.1,0-65.4-29.4-65.4-65.4c0-36.1,29.4-65.4,65.4-65.4s65.4,29.4,65.4,65.4
					C187.7,159.8,158.4,189.1,122.3,189.1z M122.3,67.2c-31.1,0-56.4,25.3-56.4,56.4s25.3,56.4,56.4,56.4s56.4-25.3,56.4-56.4
					S153.4,67.2,122.3,67.2z"/>
			</g>
		</g>
	</g>
	<g id="XMLID_1411_">
		<path class="st0" d="M169.5,123.3c0-5-3.5-9.2-8.2-10.2c-3.6-13.5-14.3-24.2-27.9-27.8c-0.9-4.8-5.2-8.5-10.3-8.5
			c-5.2,0-9.4,3.8-10.3,8.7c-13.2,3.7-23.6,14.2-27.2,27.4c-5.1,0.7-9.1,5.1-9.1,10.4c0,5.3,4,9.7,9.1,10.4
			c3.6,13.2,14,23.6,27.1,27.3c0.9,4.8,5.2,8.5,10.3,8.5c5,0,9.2-3.6,10.2-8.3c13.5-3.5,24.2-14.1,27.9-27.5
			C166,132.6,169.5,128.4,169.5,123.3z M132.4,154.1c-1.8-3.3-5.3-5.6-9.3-5.6c-4,0-7.4,2.2-9.2,5.5c-10.3-3.2-18.4-11.4-21.4-21.8
			c3-1.9,4.9-5.1,4.9-8.9c0-3.8-2-7.1-5-8.9c3-10.5,11.1-18.8,21.5-21.9c1.8,3.2,5.2,5.3,9.1,5.3c4,0,7.4-2.2,9.2-5.5
			c10.5,3,18.8,11.3,21.9,21.7c-3.4,1.7-5.7,5.3-5.7,9.3c0,4,2.3,7.5,5.6,9.3C151.1,143,142.8,151.1,132.4,154.1z"/>
	</g>
</g>
<g id="XMLID_1406_">
	<path id="XMLID_2_" class="st0" d="M206.8,170.7c0.6,0.3,1.1,0.7,1.4,1.2c0.3,0.5,0.5,1,0.6,1.7c0.1,0.4,0.1,1.1,0.1,2.1h-6.8
		c0,1,0.3,1.7,0.7,2.3c0.4,0.6,1.1,0.9,1.9,0.9c0.8,0,1.5-0.3,2-0.8c0.3-0.3,0.5-0.7,0.6-1.1h1.6c0,0.3-0.2,0.7-0.4,1.2
		s-0.5,0.8-0.8,1c-0.5,0.5-1.1,0.8-1.8,0.9c-0.4,0.1-0.8,0.1-1.3,0.1c-1.2,0-2.2-0.4-3-1.3c-0.8-0.9-1.2-2-1.2-3.6
		c0-1.5,0.4-2.7,1.2-3.7c0.8-0.9,1.9-1.4,3.2-1.4C205.5,170.3,206.2,170.4,206.8,170.7z M207.4,174.4c-0.1-0.7-0.2-1.2-0.4-1.6
		c-0.4-0.8-1.1-1.1-2.2-1.1c-0.7,0-1.3,0.3-1.8,0.8c-0.5,0.5-0.7,1.2-0.8,2H207.4z"/>
	<path id="XMLID_5_" class="st0" d="M211,170.5h1.5v1.3c0.4-0.6,0.9-0.9,1.4-1.2s1.1-0.4,1.7-0.4c1.3,0,2.2,0.5,2.7,1.4
		c0.3,0.5,0.4,1.2,0.4,2.2v6h-1.6v-5.9c0-0.6-0.1-1-0.3-1.4c-0.3-0.6-0.8-0.9-1.5-0.9c-0.4,0-0.7,0-0.9,0.1
		c-0.4,0.1-0.8,0.4-1.1,0.8c-0.3,0.3-0.4,0.6-0.5,1s-0.1,0.8-0.1,1.4v4.9H211V170.5z"/>
	<path id="XMLID_7_" class="st0" d="M221.3,167.8h1.6v2.6h1.5v1.3h-1.5v6.1c0,0.3,0.1,0.5,0.3,0.7c0.1,0.1,0.3,0.1,0.6,0.1
		c0.1,0,0.2,0,0.2,0s0.2,0,0.3,0v1.3c-0.2,0.1-0.4,0.1-0.6,0.1s-0.4,0-0.6,0c-0.7,0-1.2-0.2-1.5-0.6s-0.4-0.9-0.4-1.5v-6.2H220v-1.3
		h1.3V167.8z"/>
	<path id="XMLID_9_" class="st0" d="M231.8,170.7c0.6,0.3,1.1,0.7,1.4,1.2c0.3,0.5,0.5,1,0.6,1.7c0.1,0.4,0.1,1.1,0.1,2.1h-6.8
		c0,1,0.3,1.7,0.7,2.3c0.4,0.6,1.1,0.9,1.9,0.9c0.8,0,1.5-0.3,2-0.8c0.3-0.3,0.5-0.7,0.6-1.1h1.6c0,0.3-0.2,0.7-0.4,1.2
		s-0.5,0.8-0.8,1c-0.5,0.5-1.1,0.8-1.8,0.9c-0.4,0.1-0.8,0.1-1.3,0.1c-1.2,0-2.2-0.4-3-1.3c-0.8-0.9-1.2-2-1.2-3.6
		c0-1.5,0.4-2.7,1.2-3.7c0.8-0.9,1.9-1.4,3.2-1.4C230.6,170.3,231.2,170.4,231.8,170.7z M232.4,174.4c-0.1-0.7-0.2-1.2-0.4-1.6
		c-0.4-0.8-1.1-1.1-2.2-1.1c-0.7,0-1.3,0.3-1.8,0.8c-0.5,0.5-0.7,1.2-0.8,2H232.4z"/>
	<path id="XMLID_12_" class="st0" d="M236.1,170.5h1.5v1.6c0.1-0.3,0.4-0.7,0.9-1.2s1-0.7,1.7-0.7c0,0,0.1,0,0.1,0s0.2,0,0.4,0v1.7
		c-0.1,0-0.2,0-0.3,0s-0.2,0-0.3,0c-0.8,0-1.4,0.3-1.8,0.8s-0.6,1.1-0.6,1.8v5.4h-1.6V170.5z"/>
	<path id="XMLID_14_" class="st0" d="M241.9,170.5h1.5v1.2c0.3-0.4,0.7-0.8,1-1c0.5-0.4,1.2-0.5,1.9-0.5c1.1,0,2,0.4,2.7,1.2
		s1.1,2,1.1,3.5c0,2.1-0.5,3.5-1.6,4.4c-0.7,0.6-1.5,0.8-2.4,0.8c-0.7,0-1.3-0.2-1.8-0.5c-0.3-0.2-0.6-0.5-0.9-0.9v4.8h-1.6V170.5z
		 M247.8,177.9c0.5-0.6,0.7-1.5,0.7-2.8c0-0.8-0.1-1.4-0.3-1.9c-0.4-1-1.2-1.6-2.3-1.6c-1.1,0-1.9,0.5-2.3,1.6
		c-0.2,0.6-0.3,1.3-0.3,2.2c0,0.7,0.1,1.3,0.3,1.9c0.4,1,1.2,1.5,2.3,1.5C246.7,178.8,247.3,178.5,247.8,177.9z"/>
	<path id="XMLID_18_" class="st0" d="M252.1,170.5h1.5v1.6c0.1-0.3,0.4-0.7,0.9-1.2s1-0.7,1.7-0.7c0,0,0.1,0,0.1,0s0.2,0,0.4,0v1.7
		c-0.1,0-0.2,0-0.3,0s-0.2,0-0.3,0c-0.8,0-1.4,0.3-1.8,0.8s-0.6,1.1-0.6,1.8v5.4h-1.6V170.5z"/>
	<path id="XMLID_20_" class="st0" d="M258,167h1.6v1.8H258V167z M258,170.5h1.6v9.4H258V170.5z"/>
	<path id="XMLID_23_" class="st0" d="M263,176.9c0,0.5,0.2,0.9,0.4,1.2c0.4,0.5,1.1,0.8,2.1,0.8c0.6,0,1.1-0.1,1.6-0.4
		c0.5-0.3,0.7-0.6,0.7-1.2c0-0.4-0.2-0.7-0.5-0.9c-0.2-0.1-0.7-0.3-1.4-0.4l-1.3-0.3c-0.8-0.2-1.4-0.4-1.8-0.7c-0.7-0.4-1-1-1-1.8
		c0-0.9,0.3-1.6,1-2.2s1.5-0.8,2.6-0.8c1.4,0,2.5,0.4,3.1,1.2c0.4,0.5,0.6,1.1,0.6,1.7h-1.5c0-0.4-0.2-0.7-0.4-1
		c-0.4-0.4-1-0.6-1.9-0.6c-0.6,0-1.1,0.1-1.4,0.3c-0.3,0.2-0.5,0.5-0.5,0.9c0,0.4,0.2,0.7,0.6,1c0.2,0.1,0.6,0.3,1.1,0.4l1.1,0.3
		c1.2,0.3,1.9,0.5,2.3,0.8c0.6,0.4,0.9,1,0.9,1.9c0,0.8-0.3,1.6-1,2.2c-0.6,0.6-1.6,0.9-2.9,0.9c-1.4,0-2.4-0.3-3-1
		c-0.6-0.6-0.9-1.4-0.9-2.4H263z"/>
	<path id="XMLID_25_" class="st0" d="M276.8,170.7c0.6,0.3,1.1,0.7,1.4,1.2c0.3,0.5,0.5,1,0.6,1.7c0.1,0.4,0.1,1.1,0.1,2.1h-6.8
		c0,1,0.3,1.7,0.7,2.3c0.4,0.6,1.1,0.9,1.9,0.9c0.8,0,1.5-0.3,2-0.8c0.3-0.3,0.5-0.7,0.6-1.1h1.6c0,0.3-0.2,0.7-0.4,1.2
		s-0.5,0.8-0.8,1c-0.5,0.5-1.1,0.8-1.8,0.9c-0.4,0.1-0.8,0.1-1.3,0.1c-1.2,0-2.2-0.4-3-1.3c-0.8-0.9-1.2-2-1.2-3.6
		c0-1.5,0.4-2.7,1.2-3.7c0.8-0.9,1.9-1.4,3.2-1.4C275.6,170.3,276.2,170.4,276.8,170.7z M277.4,174.4c-0.1-0.7-0.2-1.2-0.4-1.6
		c-0.4-0.8-1.1-1.1-2.2-1.1c-0.7,0-1.3,0.3-1.8,0.8c-0.5,0.5-0.7,1.2-0.8,2H277.4z"/>
</g>
</svg>
