<?xml version="1.0" encoding="utf-8"?>
<!-- Generator: Adobe Illustrator 19.0.0, SVG Export Plug-In . SVG Version: 6.00 Build 0)  -->
<svg version="1.1" id="Layer_1" xmlns="http://www.w3.org/2000/svg" xmlns:xlink="http://www.w3.org/1999/xlink" x="0px" y="0px"
	 viewBox="0 0 440.1 245.9" style="enable-background:new 0 0 440.1 245.9;" xml:space="preserve">
<style type="text/css">
	.st0{fill:#FFFFFF;}
	.st1{fill:#991C20;}
	.st2{fill:#010101;}
	.st3{fill:#991B1E;}
	.st4{fill-rule:evenodd;clip-rule:evenodd;fill:#010101;}
</style>
<g id="XMLID_2595_">
	<circle id="XMLID_1_" class="st0" cx="121.7" cy="123.9" r="59.9"/>
	<path id="XMLID_21_" class="st1" d="M121.7,183.9c-33.1,0-60-26.9-60-60c0-33.1,26.9-60,60-60s60,26.9,60,60
		C181.7,157,154.8,183.9,121.7,183.9z M121.7,64.2C88.8,64.2,62,91,62,123.9c0,32.9,26.8,59.7,59.7,59.7s59.7-26.8,59.7-59.7
		C181.5,91,154.7,64.2,121.7,64.2z"/>
</g>
<g id="XMLID_813_">
	<g id="XMLID_2542_">
		<g id="XMLID_2550_">
			<g id="XMLID_2591_">
				<path class="st2" d="M248.4,100.7l-4,10.3c-0.4,0.5-0.9,0.9-1.5,1.2c-0.7,0.3-1.4,0.4-2.1,0.4c-0.9,0-1.7-0.2-2.5-0.7
					c-0.3-0.2-0.5-0.5-0.7-0.7c-0.2-0.3-0.4-0.6-0.5-0.9l-6.8-18.4h5.9l4.8,14.5l4.9-14.5h7.7c0.7,0.1,1.2,0.3,1.5,0.9l7.4,13.2h0.3
					V92.1h5v18.1c-0.3,0.8-0.8,1.4-1.4,1.9c-0.5,0.4-1.3,0.6-2.3,0.6c-0.7,0-1.3-0.1-1.8-0.3c-0.5-0.2-1.4-0.8-1.5-1l-7.2-13h-0.3
					v14.1h-4.9V100.7z"/>
			</g>
			<g id="XMLID_2588_">
				<path class="st2" d="M221.3,104.9l2.5-8.9l2.3,8.9H221.3z M227.9,94.6c-0.3-0.8-0.8-1.5-1.6-2c-0.8-0.5-1.7-0.8-2.7-0.8
					c0,0-0.3,0-0.4,0c-0.3,0-0.6,0-1,0.2c-0.4,0.1-0.7,0.2-0.9,0.4c-0.7,0.5-1.2,1.2-1.5,1.9l-5.2,13l-3-4c1.1-0.4,2-0.8,2.7-1.3
					c0.7-0.5,1.3-1.1,1.8-1.8c0.4-0.7,0.6-1.4,0.6-2.2c0-1.6-0.8-2.9-2.3-4.1c-1.6-1.2-3.4-1.7-5.5-1.7h-5.6c-0.7,0-1.5,0.4-2.1,0.9
					c-0.6,0.5-1,1-1.1,1.7l0,2.7l0,15v0h5.4V96h3.7c0.6,0.4,1.1,0.7,1.4,1.1c0.3,0.4,0.5,0.8,0.5,1.2c0,0.8-0.6,1.4-1.9,1.9
					c-0.6,0.2-1.2,0.4-1.8,0.6c-1.1,0.4-1.7,1-1.7,1.9c0,0.3,0.1,0.6,0.2,1l6.1,8.9h6.5l0,0l1.5-3.9h7.7l1.4,3.9l5.7-0.1L227.9,94.6
					z"/>
			</g>
		</g>
		<g id="XMLID_2545_">
			<path id="XMLID_5_" d="M217.4,132.2c-1.1-0.9-2.6-1.4-4.4-1.4c-1.6,0-2.9,0.3-4,0.9c-1.1,0.6-1.9,1.4-2.5,2.3
				c-0.6,1-1.1,2.1-1.4,3.3c-0.3,1.3-0.4,2.5-0.4,3.9c0,1.2,0.1,2.4,0.4,3.6c0.3,1.2,0.7,2.2,1.4,3.1c0.6,0.9,1.4,1.6,2.4,2.2
				c1,0.5,2.2,0.8,3.5,0.8c2.2,0,3.8-0.6,5.1-1.7c1.2-1.1,2-2.7,2.2-4.8h4.5c-0.5,3.3-1.7,5.8-3.7,7.6c-2,1.8-4.7,2.7-8,2.7
				c-2,0-3.8-0.3-5.4-1c-1.6-0.7-2.9-1.6-3.9-2.8c-1-1.2-1.8-2.6-2.4-4.3c-0.5-1.7-0.8-3.5-0.8-5.5c0-2,0.3-3.8,0.8-5.6
				s1.3-3.2,2.3-4.5c1-1.3,2.4-2.3,3.9-3c1.6-0.7,3.4-1.1,5.5-1.1c1.5,0,2.9,0.2,4.2,0.5c1.3,0.4,2.5,0.9,3.5,1.7
				c1,0.8,1.8,1.7,2.5,2.9c0.7,1.1,1.1,2.5,1.2,4.1h-4.5C219.2,134.4,218.5,133.1,217.4,132.2z"/>
			<path id="XMLID_7_" d="M228.5,135.4c0.5-1.7,1.4-3.2,2.5-4.4c1.1-1.3,2.4-2.2,4.1-3c1.6-0.7,3.5-1.1,5.6-1.1c2.1,0,4,0.4,5.6,1.1
				c1.6,0.7,2.9,1.7,4,3c1.1,1.3,1.9,2.7,2.5,4.4s0.8,3.5,0.8,5.5s-0.3,3.8-0.8,5.4c-0.5,1.7-1.4,3.1-2.5,4.4
				c-1.1,1.3-2.4,2.2-4,2.9c-1.6,0.7-3.5,1.1-5.6,1.1c-2.1,0-3.9-0.4-5.6-1.1c-1.6-0.7-3-1.7-4.1-2.9c-1.1-1.2-1.9-2.7-2.5-4.4
				c-0.5-1.7-0.8-3.5-0.8-5.4S228,137.1,228.5,135.4z M233,145.2c0.4,1.3,1,2.3,1.8,3.1c0.8,0.8,1.6,1.5,2.6,1.9
				c1,0.4,2.1,0.7,3.2,0.7s2.2-0.2,3.2-0.7c1-0.4,1.9-1.1,2.6-1.9c0.8-0.8,1.3-1.9,1.8-3.1c0.4-1.2,0.6-2.7,0.6-4.3
				c0-1.6-0.2-3-0.6-4.3s-1-2.3-1.8-3.2c-0.8-0.9-1.6-1.5-2.6-2c-1-0.4-2.1-0.7-3.2-0.7s-2.2,0.2-3.2,0.7c-1,0.4-1.9,1.1-2.6,2
				c-0.8,0.9-1.3,1.9-1.8,3.2s-0.6,2.7-0.6,4.3C232.3,142.5,232.5,143.9,233,145.2z"/>
			<path id="XMLID_10_" d="M262.7,127.6v4.2h0.1c1.8-3.2,4.7-4.8,8.6-4.8c1.7,0,3.2,0.2,4.4,0.7c1.2,0.5,2.1,1.1,2.8,2
				s1.2,1.9,1.5,3.1c0.3,1.2,0.4,2.5,0.4,3.9v17.5h-4.4v-18c0-1.6-0.5-2.9-1.4-3.9c-1-1-2.3-1.4-4-1.4c-1.3,0-2.5,0.2-3.5,0.6
				c-1,0.4-1.8,1-2.4,1.7c-0.7,0.8-1.1,1.6-1.5,2.6c-0.3,1-0.5,2.1-0.5,3.3v15h-4.4v-26.6H262.7z"/>
			<path id="XMLID_12_" d="M291.3,127.6v4.2h0.1c1.8-3.2,4.7-4.8,8.6-4.8c1.7,0,3.2,0.2,4.4,0.7c1.2,0.5,2.1,1.1,2.8,2
				s1.2,1.9,1.5,3.1c0.3,1.2,0.4,2.5,0.4,3.9v17.5h-4.4v-18c0-1.6-0.5-2.9-1.4-3.9c-1-1-2.3-1.4-4-1.4c-1.3,0-2.5,0.2-3.5,0.6
				c-1,0.4-1.8,1-2.4,1.7c-0.7,0.8-1.1,1.6-1.5,2.6c-0.3,1-0.5,2.1-0.5,3.3v15h-4.4v-26.6H291.3z"/>
			<path id="XMLID_14_" d="M334.6,152.5c-2,1.5-4.5,2.3-7.5,2.3c-2.1,0-4-0.3-5.5-1c-1.6-0.7-2.9-1.6-3.9-2.9
				c-1.1-1.2-1.9-2.7-2.4-4.4c-0.5-1.7-0.8-3.6-0.9-5.6c0-2,0.3-3.9,0.9-5.6c0.6-1.7,1.5-3.1,2.6-4.4c1.1-1.2,2.4-2.2,4-2.9
				c1.5-0.7,3.2-1,5-1c2.4,0,4.3,0.5,5.9,1.5s2.8,2.2,3.8,3.7c0.9,1.5,1.6,3.2,2,4.9c0.4,1.8,0.5,3.5,0.4,5.1H319
				c0,1.2,0.1,2.3,0.4,3.3c0.3,1,0.8,2,1.5,2.8c0.7,0.8,1.6,1.4,2.6,1.9c1.1,0.5,2.3,0.7,3.8,0.7c1.9,0,3.4-0.4,4.5-1.3
				s2-2.2,2.3-3.9h4.3C337.9,148.7,336.6,151,334.6,152.5z M333.6,135.4c-0.4-0.9-0.9-1.7-1.6-2.4c-0.7-0.7-1.5-1.2-2.4-1.6
				c-0.9-0.4-1.9-0.6-3-0.6c-1.1,0-2.2,0.2-3.1,0.6c-0.9,0.4-1.7,0.9-2.3,1.6c-0.7,0.7-1.2,1.5-1.5,2.4c-0.4,0.9-0.6,1.9-0.7,2.9
				h15.3C334.2,137.3,333.9,136.3,333.6,135.4z"/>
			<path id="XMLID_17_" d="M359.3,132.2c-1.1-0.9-2.6-1.4-4.4-1.4c-1.6,0-2.9,0.3-4,0.9c-1.1,0.6-1.9,1.4-2.5,2.3
				c-0.6,1-1.1,2.1-1.4,3.3c-0.3,1.3-0.4,2.5-0.4,3.9c0,1.2,0.1,2.4,0.4,3.6c0.3,1.2,0.7,2.2,1.4,3.1c0.6,0.9,1.4,1.6,2.4,2.2
				c1,0.5,2.2,0.8,3.5,0.8c2.2,0,3.8-0.6,5.1-1.7c1.2-1.1,2-2.7,2.2-4.8h4.5c-0.5,3.3-1.7,5.8-3.7,7.6c-2,1.8-4.7,2.7-8,2.7
				c-2,0-3.8-0.3-5.4-1c-1.6-0.7-2.9-1.6-3.9-2.8c-1-1.2-1.8-2.6-2.4-4.3c-0.5-1.7-0.8-3.5-0.8-5.5c0-2,0.3-3.8,0.8-5.6
				c0.5-1.7,1.3-3.2,2.3-4.5c1-1.3,2.4-2.3,3.9-3c1.6-0.7,3.4-1.1,5.5-1.1c1.5,0,2.9,0.2,4.2,0.5c1.3,0.4,2.5,0.9,3.5,1.7
				c1,0.8,1.8,1.7,2.5,2.9c0.7,1.1,1.1,2.5,1.2,4.1h-4.5C361.1,134.4,360.4,133.1,359.3,132.2z"/>
			<path id="XMLID_19_" d="M382.4,127.6v3.9h-5.3v16.5c0,0.5,0,0.9,0.1,1.2c0.1,0.3,0.2,0.5,0.5,0.7c0.2,0.2,0.6,0.3,1,0.3
				s1,0.1,1.7,0.1h2v3.9H379c-1.1,0-2.1-0.1-2.9-0.2s-1.5-0.4-2-0.8c-0.5-0.4-0.9-1-1.1-1.7c-0.2-0.8-0.4-1.7-0.4-3v-16.9h-4.5v-3.9
				h4.5v-8h4.4v8H382.4z"/>
		</g>
		<g id="XMLID_2544_">
			<path id="XMLID_2_" class="st3" d="M122.6,188.1c-36.1,0-65.4-29.4-65.4-65.4c0-36.1,29.4-65.4,65.4-65.4S188,86.6,188,122.7
				C188,158.8,158.6,188.1,122.6,188.1z M122.6,66.2c-31.1,0-56.4,25.3-56.4,56.4s25.3,56.4,56.4,56.4s56.4-25.3,56.4-56.4
				S153.7,66.2,122.6,66.2z"/>
		</g>
	</g>
	<g id="XMLID_2537_">
		<g id="XMLID_2541_">
			<circle class="st4" cx="123.1" cy="87.9" r="9"/>
		</g>
		<g id="XMLID_2538_">
			<path class="st2" d="M123.1,98.4c-5.8,0-10.5-4.7-10.5-10.5c0-5.8,4.7-10.5,10.5-10.5c5.8,0,10.5,4.7,10.5,10.5
				C133.5,93.7,128.8,98.4,123.1,98.4z M123.1,80.4c-4.1,0-7.5,3.4-7.5,7.5c0,4.1,3.4,7.5,7.5,7.5c4.1,0,7.5-3.4,7.5-7.5
				C130.5,83.8,127.2,80.4,123.1,80.4z"/>
		</g>
	</g>
	<g id="XMLID_828_">
		<g id="XMLID_2536_">
			<path class="st4" d="M95.9,123.9c0,5-4,9-9,9c-5,0-9-4-9-9c0-5,4-9,9-9C91.9,114.9,95.9,118.9,95.9,123.9z"/>
		</g>
		<g id="XMLID_2438_">
			<path class="st2" d="M86.9,134.4c-5.8,0-10.5-4.7-10.5-10.5c0-5.8,4.7-10.5,10.5-10.5c5.8,0,10.5,4.7,10.5,10.5
				C97.4,129.7,92.7,134.4,86.9,134.4z M86.9,116.4c-4.1,0-7.5,3.4-7.5,7.5c0,4.1,3.4,7.5,7.5,7.5c4.1,0,7.5-3.4,7.5-7.5
				C94.4,119.8,91.1,116.4,86.9,116.4z"/>
		</g>
	</g>
	<g id="XMLID_823_">
		<g id="XMLID_827_">
			<path class="st4" d="M167.9,123.9c0,5-4,9-9,9s-9-4-9-9c0-5,4-9,9-9S167.9,119,167.9,123.9z"/>
		</g>
		<g id="XMLID_824_">
			<path class="st2" d="M159,134.4c-5.8,0-10.5-4.7-10.5-10.5c0-5.8,4.7-10.5,10.5-10.5c5.8,0,10.5,4.7,10.5,10.5
				C169.4,129.7,164.7,134.4,159,134.4z M159,116.5c-4.1,0-7.5,3.4-7.5,7.5c0,4.1,3.4,7.5,7.5,7.5c4.1,0,7.5-3.4,7.5-7.5
				C166.4,119.8,163.1,116.5,159,116.5z"/>
		</g>
	</g>
	<g id="XMLID_818_">
		<g id="XMLID_822_">
			<path class="st4" d="M132,159.6c0,5-4,9-9,9c-5,0-9-4-9-9c0-5,4-9,9-9C128,150.6,132,154.6,132,159.6z"/>
		</g>
		<g id="XMLID_819_">
			<path class="st2" d="M123,170c-5.8,0-10.5-4.7-10.5-10.5c0-5.8,4.7-10.5,10.5-10.5c5.8,0,10.5,4.7,10.5,10.5
				C133.5,165.3,128.8,170,123,170z M123,152.1c-4.1,0-7.5,3.4-7.5,7.5c0,4.1,3.4,7.5,7.5,7.5c4.1,0,7.5-3.4,7.5-7.5
				C130.5,155.4,127.1,152.1,123,152.1z"/>
		</g>
	</g>
	<g id="XMLID_814_">
		<g id="XMLID_815_">
			<path class="st2" d="M123.4,163c-21.6,0-39.2-17.6-39.2-39.2c0-21.6,17.6-39.2,39.2-39.2c21.6,0,39.2,17.6,39.2,39.2
				C162.5,145.4,145,163,123.4,163z M123.4,91.6c-17.7,0-32.2,14.4-32.2,32.2c0,17.7,14.4,32.2,32.2,32.2
				c17.7,0,32.2-14.4,32.2-32.2C155.5,106.1,141.1,91.6,123.4,91.6z"/>
		</g>
	</g>
</g>
</svg>
