<?xml version="1.0" encoding="utf-8"?>
<!-- Generator: Adobe Illustrator 19.0.0, SVG Export Plug-In . SVG Version: 6.00 Build 0)  -->
<svg version="1.1" id="Layer_1" xmlns="http://www.w3.org/2000/svg" xmlns:xlink="http://www.w3.org/1999/xlink" x="0px" y="0px"
	 viewBox="0 0 449.9 245.8" style="enable-background:new 0 0 449.9 245.8;" xml:space="preserve">
<style type="text/css">
	.st0{fill:#FFFFFF;}
	.st1{fill:#991C20;}
	.st2{fill:#010101;}
	.st3{fill:#991B1E;}
</style>
<g id="XMLID_2482_">
	<circle id="XMLID_2_" class="st0" cx="122.8" cy="122.9" r="59.9"/>
	<path id="XMLID_77_" class="st1" d="M122.8,182.9c-33.1,0-60-26.9-60-60c0-33.1,26.9-60,60-60s60,26.9,60,60
		C182.7,156,155.8,182.9,122.8,182.9z M122.8,63.1C89.8,63.1,63,89.9,63,122.9c0,32.9,26.8,59.7,59.7,59.7s59.7-26.8,59.7-59.7
		C182.5,89.9,155.7,63.1,122.8,63.1z"/>
</g>
<g id="XMLID_2397_">
	<g id="XMLID_2398_">
		<g id="XMLID_2481_">
			<path id="XMLID_61_" d="M217.4,132.2c-1.1-0.9-2.6-1.4-4.4-1.4c-1.6,0-2.9,0.3-4,0.9c-1.1,0.6-1.9,1.4-2.5,2.3
				c-0.6,1-1.1,2.1-1.4,3.3c-0.3,1.3-0.4,2.5-0.4,3.9c0,1.2,0.1,2.4,0.4,3.6c0.3,1.2,0.7,2.2,1.4,3.1c0.6,0.9,1.4,1.6,2.4,2.2
				c1,0.5,2.2,0.8,3.5,0.8c2.2,0,3.8-0.6,5.1-1.7c1.2-1.1,2-2.7,2.2-4.8h4.5c-0.5,3.3-1.7,5.8-3.7,7.6c-2,1.8-4.7,2.7-8,2.7
				c-2,0-3.8-0.3-5.4-1c-1.6-0.7-2.9-1.6-3.9-2.8c-1-1.2-1.8-2.6-2.4-4.3c-0.5-1.7-0.8-3.5-0.8-5.5c0-2,0.3-3.8,0.8-5.6
				s1.3-3.2,2.3-4.5c1-1.3,2.4-2.3,3.9-3c1.6-0.7,3.4-1.1,5.5-1.1c1.5,0,2.9,0.2,4.2,0.5c1.3,0.4,2.5,0.9,3.5,1.7
				c1,0.8,1.8,1.7,2.5,2.9c0.7,1.1,1.1,2.5,1.2,4.1h-4.5C219.2,134.4,218.5,133.1,217.4,132.2z"/>
			<path id="XMLID_63_" d="M228.5,135.4c0.5-1.7,1.4-3.2,2.5-4.4c1.1-1.3,2.4-2.2,4.1-3c1.6-0.7,3.5-1.1,5.6-1.1
				c2.1,0,4,0.4,5.6,1.1c1.6,0.7,2.9,1.7,4,3c1.1,1.3,1.9,2.7,2.5,4.4s0.8,3.5,0.8,5.5s-0.3,3.8-0.8,5.4c-0.5,1.7-1.4,3.1-2.5,4.4
				c-1.1,1.3-2.4,2.2-4,2.9c-1.6,0.7-3.5,1.1-5.6,1.1c-2.1,0-3.9-0.4-5.6-1.1c-1.6-0.7-3-1.7-4.1-2.9c-1.1-1.2-1.9-2.7-2.5-4.4
				c-0.5-1.7-0.8-3.5-0.8-5.4S228,137.1,228.5,135.4z M233,145.2c0.4,1.3,1,2.3,1.8,3.1c0.8,0.8,1.6,1.5,2.6,1.9
				c1,0.4,2.1,0.7,3.2,0.7s2.2-0.2,3.2-0.7c1-0.4,1.9-1.1,2.6-1.9c0.8-0.8,1.3-1.9,1.8-3.1c0.4-1.2,0.6-2.7,0.6-4.3
				c0-1.6-0.2-3-0.6-4.3s-1-2.3-1.8-3.2c-0.8-0.9-1.6-1.5-2.6-2c-1-0.4-2.1-0.7-3.2-0.7s-2.2,0.2-3.2,0.7c-1,0.4-1.9,1.1-2.6,2
				c-0.8,0.9-1.3,1.9-1.8,3.2s-0.6,2.7-0.6,4.3C232.3,142.5,232.6,143.9,233,145.2z"/>
			<path id="XMLID_66_" d="M262.8,127.6v4.2h0.1c1.8-3.2,4.7-4.8,8.6-4.8c1.7,0,3.2,0.2,4.4,0.7c1.2,0.5,2.1,1.1,2.8,2
				s1.2,1.9,1.5,3.1c0.3,1.2,0.4,2.5,0.4,3.9v17.5h-4.4v-18c0-1.6-0.5-2.9-1.4-3.9c-1-1-2.3-1.4-4-1.4c-1.3,0-2.5,0.2-3.5,0.6
				c-1,0.4-1.8,1-2.4,1.7c-0.7,0.8-1.1,1.6-1.5,2.6c-0.3,1-0.5,2.1-0.5,3.3v15h-4.4v-26.6H262.8z"/>
			<path id="XMLID_68_" d="M291.4,127.6v4.2h0.1c1.8-3.2,4.7-4.8,8.6-4.8c1.7,0,3.2,0.2,4.4,0.7c1.2,0.5,2.1,1.1,2.8,2
				s1.2,1.9,1.5,3.1c0.3,1.2,0.4,2.5,0.4,3.9v17.5h-4.4v-18c0-1.6-0.5-2.9-1.4-3.9c-1-1-2.3-1.4-4-1.4c-1.3,0-2.5,0.2-3.5,0.6
				c-1,0.4-1.8,1-2.4,1.7c-0.7,0.8-1.1,1.6-1.5,2.6c-0.3,1-0.5,2.1-0.5,3.3v15h-4.4v-26.6H291.4z"/>
			<path id="XMLID_70_" d="M334.6,152.4c-2,1.5-4.5,2.3-7.5,2.3c-2.1,0-4-0.3-5.5-1c-1.6-0.7-2.9-1.6-3.9-2.9
				c-1.1-1.2-1.9-2.7-2.4-4.4c-0.5-1.7-0.8-3.6-0.9-5.6c0-2,0.3-3.9,0.9-5.6c0.6-1.7,1.5-3.1,2.6-4.4c1.1-1.2,2.4-2.2,4-2.9
				c1.5-0.7,3.2-1,5-1c2.4,0,4.3,0.5,5.9,1.5s2.8,2.2,3.8,3.7c0.9,1.5,1.6,3.2,2,4.9c0.4,1.8,0.5,3.5,0.4,5.1H319
				c0,1.2,0.1,2.3,0.4,3.3c0.3,1,0.8,2,1.5,2.8c0.7,0.8,1.6,1.4,2.6,1.9c1.1,0.5,2.3,0.7,3.8,0.7c1.9,0,3.4-0.4,4.5-1.3
				s2-2.2,2.3-3.9h4.3C337.9,148.7,336.6,150.9,334.6,152.4z M333.6,135.4c-0.4-0.9-0.9-1.7-1.6-2.4c-0.7-0.7-1.5-1.2-2.4-1.6
				c-0.9-0.4-1.9-0.6-3-0.6c-1.1,0-2.2,0.2-3.1,0.6c-0.9,0.4-1.7,0.9-2.3,1.6c-0.7,0.7-1.2,1.5-1.5,2.4c-0.4,0.9-0.6,1.9-0.7,2.9
				h15.3C334.2,137.3,334,136.3,333.6,135.4z"/>
			<path id="XMLID_73_" d="M359.3,132.2c-1.1-0.9-2.6-1.4-4.4-1.4c-1.6,0-2.9,0.3-4,0.9c-1.1,0.6-1.9,1.4-2.5,2.3
				c-0.6,1-1.1,2.1-1.4,3.3c-0.3,1.3-0.4,2.5-0.4,3.9c0,1.2,0.1,2.4,0.4,3.6c0.3,1.2,0.7,2.2,1.4,3.1c0.6,0.9,1.4,1.6,2.4,2.2
				c1,0.5,2.2,0.8,3.5,0.8c2.2,0,3.8-0.6,5.1-1.7c1.2-1.1,2-2.7,2.2-4.8h4.5c-0.5,3.3-1.7,5.8-3.7,7.6c-2,1.8-4.7,2.7-8,2.7
				c-2,0-3.8-0.3-5.4-1c-1.6-0.7-2.9-1.6-3.9-2.8c-1-1.2-1.8-2.6-2.4-4.3c-0.5-1.7-0.8-3.5-0.8-5.5c0-2,0.3-3.8,0.8-5.6
				c0.5-1.7,1.3-3.2,2.3-4.5c1-1.3,2.4-2.3,3.9-3c1.6-0.7,3.4-1.1,5.5-1.1c1.5,0,2.9,0.2,4.2,0.5c1.3,0.4,2.5,0.9,3.5,1.7
				c1,0.8,1.8,1.7,2.5,2.9c0.7,1.1,1.1,2.5,1.2,4.1h-4.5C361.1,134.4,360.4,133.1,359.3,132.2z"/>
			<path id="XMLID_75_" d="M382.4,127.6v3.9h-5.3v16.5c0,0.5,0,0.9,0.1,1.2c0.1,0.3,0.2,0.5,0.5,0.7c0.2,0.2,0.6,0.3,1,0.3
				s1,0.1,1.7,0.1h2v3.9H379c-1.1,0-2.1-0.1-2.9-0.2s-1.5-0.4-2-0.8c-0.5-0.4-0.9-1-1.1-1.7c-0.2-0.8-0.4-1.7-0.4-3v-16.9h-4.5v-3.9
				h4.5v-8h4.4v8H382.4z"/>
		</g>
		<g id="XMLID_2478_">
			<defs>
				<rect id="XMLID_2479_" x="-23.5" y="-32.3" width="484.3" height="307.8"/>
			</defs>
			<clipPath id="XMLID_81_">
				<use xlink:href="#XMLID_2479_"  style="overflow:visible;"/>
			</clipPath>
		</g>
		<g id="XMLID_2405_">
			<g id="XMLID_2477_">
				<path class="st2" d="M248.5,100.7l-4,10.3c-0.4,0.5-0.9,0.9-1.5,1.2c-0.7,0.3-1.4,0.4-2.1,0.4c-0.9,0-1.7-0.2-2.5-0.7
					c-0.3-0.2-0.5-0.5-0.7-0.7c-0.2-0.3-0.4-0.6-0.5-0.9l-6.8-18.4h5.9l4.8,14.5l4.9-14.5h7.7c0.7,0.1,1.2,0.3,1.5,0.9l7.4,13.2h0.3
					V92.1h5v18.1c-0.3,0.8-0.8,1.4-1.4,1.9c-0.5,0.4-1.3,0.6-2.3,0.6c-0.7,0-1.3-0.1-1.8-0.3c-0.5-0.2-1.4-0.8-1.5-1l-7.2-13h-0.3
					v14.1h-4.9V100.7z"/>
			</g>
			<g id="XMLID_2474_">
				<path class="st2" d="M221.3,104.8l2.5-8.9l2.3,8.9H221.3z M227.9,94.6c-0.3-0.8-0.8-1.5-1.6-2c-0.8-0.5-1.7-0.8-2.7-0.8
					c0,0-0.3,0-0.4,0c-0.3,0-0.6,0-1,0.2c-0.4,0.1-0.7,0.2-0.9,0.4c-0.7,0.5-1.2,1.2-1.5,1.9l-5.2,13l-3-4c1.1-0.4,2-0.8,2.7-1.3
					c0.7-0.5,1.3-1.1,1.8-1.8c0.4-0.7,0.6-1.4,0.6-2.2c0-1.6-0.8-2.9-2.3-4.1c-1.6-1.2-3.4-1.7-5.5-1.7h-5.6c-0.7,0-1.5,0.4-2.1,0.9
					c-0.6,0.5-1,1-1.1,1.7l0,2.7l0,15v0h5.4V96h3.7c0.6,0.4,1.1,0.7,1.4,1.1c0.3,0.4,0.5,0.8,0.5,1.2c0,0.8-0.6,1.4-1.9,1.9
					c-0.6,0.2-1.2,0.4-1.8,0.6c-1.1,0.4-1.7,1-1.7,1.9c0,0.3,0.1,0.6,0.2,1l6.1,8.9h6.5l0,0l1.5-3.9h7.7l1.4,3.9l5.7-0.1L227.9,94.6
					z"/>
			</g>
		</g>
	</g>
</g>
<g id="XMLID_2394_">
	<g id="XMLID_2395_">
		<g id="XMLID_2396_">
			<path id="XMLID_35_" class="st3" d="M122.2,188.9c-36.1,0-65.4-29.4-65.4-65.4c0-36.1,29.4-65.4,65.4-65.4s65.4,29.4,65.4,65.4
				C187.6,159.5,158.2,188.9,122.2,188.9z M122.2,67C91,67,65.7,92.3,65.7,123.4s25.3,56.4,56.4,56.4s56.4-25.3,56.4-56.4
				S153.3,67,122.2,67z"/>
		</g>
	</g>
</g>
<g id="XMLID_2392_">
	<path id="XMLID_3_" class="st2" d="M202.6,168.9c0.4-0.5,1.1-0.8,2.1-0.8c0.1,0,0.2,0,0.3,0s0.2,0,0.4,0v1.4c-0.2,0-0.3,0-0.4,0
		c-0.1,0-0.1,0-0.2,0c-0.5,0-0.8,0.1-0.9,0.4s-0.1,0.9-0.1,1.9h1.6v1.2h-1.6v8.1h-1.6v-8.1h-1.3v-1.2h1.3v-1.5
		C202.3,169.7,202.4,169.2,202.6,168.9z"/>
	<path id="XMLID_5_" class="st2" d="M213.7,172.7c0.8,0.8,1.2,2,1.2,3.6c0,1.5-0.4,2.8-1.1,3.8c-0.7,1-1.9,1.5-3.4,1.5
		c-1.3,0-2.3-0.4-3.1-1.3c-0.8-0.9-1.1-2.1-1.1-3.5c0-1.6,0.4-2.8,1.2-3.8c0.8-0.9,1.9-1.4,3.2-1.4
		C211.8,171.5,212.8,171.9,213.7,172.7z M212.7,179c0.4-0.8,0.6-1.7,0.6-2.6c0-0.9-0.1-1.6-0.4-2.1c-0.4-0.9-1.2-1.3-2.3-1.3
		c-1,0-1.7,0.4-2.1,1.1s-0.7,1.6-0.7,2.7c0,1,0.2,1.8,0.7,2.5c0.4,0.7,1.1,1,2.1,1C211.6,180.1,212.3,179.8,212.7,179z"/>
	<path id="XMLID_8_" class="st2" d="M216.9,171.8h1.5v1.6c0.1-0.3,0.4-0.7,0.9-1.2s1-0.7,1.7-0.7c0,0,0.1,0,0.1,0s0.2,0,0.4,0v1.7
		c-0.1,0-0.2,0-0.3,0s-0.2,0-0.3,0c-0.8,0-1.4,0.3-1.8,0.8s-0.6,1.1-0.6,1.8v5.4h-1.6V171.8z"/>
	<path id="XMLID_10_" class="st2" d="M228,168.3h2.5l3.7,10.9l3.7-10.9h2.5v12.9h-1.7v-7.6c0-0.3,0-0.7,0-1.3s0-1.3,0-2l-3.7,10.9
		h-1.7l-3.7-10.9v0.4c0,0.3,0,0.8,0,1.4s0,1.1,0,1.4v7.6H228V168.3z"/>
	<path id="XMLID_13_" class="st2" d="M242.9,168.3h1.6v1.8h-1.6V168.3z M242.9,171.8h1.6v9.4h-1.6V171.8z"/>
	<path id="XMLID_17_" class="st2" d="M253.1,172.3c0.7,0.5,1.1,1.4,1.2,2.7h-1.5c-0.1-0.6-0.3-1.1-0.6-1.4s-0.9-0.6-1.6-0.6
		c-1,0-1.7,0.5-2.2,1.5c-0.3,0.6-0.4,1.4-0.4,2.4c0,0.9,0.2,1.7,0.6,2.4c0.4,0.6,1,1,1.9,1c0.7,0,1.2-0.2,1.6-0.6
		c0.4-0.4,0.6-0.9,0.8-1.6h1.5c-0.2,1.2-0.6,2.2-1.3,2.7s-1.6,0.9-2.7,0.9c-1.2,0-2.2-0.4-2.9-1.3s-1.1-2-1.1-3.4
		c0-1.7,0.4-2.9,1.2-3.9s1.8-1.4,3.1-1.4C251.6,171.5,252.4,171.8,253.1,172.3z"/>
	<path id="XMLID_19_" class="st2" d="M255.9,171.8h1.5v1.6c0.1-0.3,0.4-0.7,0.9-1.2s1-0.7,1.7-0.7c0,0,0.1,0,0.1,0s0.2,0,0.4,0v1.7
		c-0.1,0-0.2,0-0.3,0c-0.1,0-0.2,0-0.3,0c-0.8,0-1.4,0.3-1.8,0.8s-0.6,1.1-0.6,1.8v5.4h-1.6V171.8z"/>
	<path id="XMLID_21_" class="st2" d="M268.7,172.7c0.8,0.8,1.2,2,1.2,3.6c0,1.5-0.4,2.8-1.1,3.8s-1.9,1.5-3.4,1.5
		c-1.3,0-2.3-0.4-3.1-1.3c-0.8-0.9-1.1-2.1-1.1-3.5c0-1.6,0.4-2.8,1.2-3.8s1.9-1.4,3.2-1.4C266.8,171.5,267.8,171.9,268.7,172.7z
		 M267.7,179c0.4-0.8,0.6-1.7,0.6-2.6c0-0.9-0.1-1.6-0.4-2.1c-0.4-0.9-1.2-1.3-2.3-1.3c-1,0-1.7,0.4-2.1,1.1
		c-0.4,0.7-0.7,1.6-0.7,2.7c0,1,0.2,1.8,0.7,2.5c0.4,0.7,1.1,1,2.1,1C266.6,180.1,267.3,179.8,267.7,179z"/>
	<path id="XMLID_24_" class="st2" d="M272.8,178.2c0,0.5,0.2,0.9,0.4,1.2c0.4,0.5,1.1,0.8,2.1,0.8c0.6,0,1.1-0.1,1.6-0.4
		s0.7-0.6,0.7-1.2c0-0.4-0.2-0.7-0.5-0.9c-0.2-0.1-0.7-0.3-1.4-0.4l-1.3-0.3c-0.8-0.2-1.4-0.4-1.8-0.7c-0.7-0.4-1-1-1-1.8
		c0-0.9,0.3-1.6,1-2.2c0.7-0.6,1.5-0.8,2.6-0.8c1.4,0,2.5,0.4,3.1,1.2c0.4,0.5,0.6,1.1,0.6,1.7h-1.5c0-0.4-0.2-0.7-0.4-1
		c-0.4-0.4-1-0.6-1.9-0.6c-0.6,0-1.1,0.1-1.4,0.3c-0.3,0.2-0.5,0.5-0.5,0.9c0,0.4,0.2,0.7,0.6,1c0.2,0.1,0.6,0.3,1.1,0.4l1.1,0.3
		c1.2,0.3,1.9,0.5,2.3,0.8c0.6,0.4,0.9,1,0.9,1.9c0,0.8-0.3,1.6-1,2.2c-0.6,0.6-1.6,0.9-2.9,0.9c-1.4,0-2.4-0.3-3-1
		c-0.6-0.6-0.9-1.4-0.9-2.4H272.8z"/>
	<path id="XMLID_26_" class="st2" d="M287.7,172.7c0.8,0.8,1.2,2,1.2,3.6c0,1.5-0.4,2.8-1.1,3.8c-0.7,1-1.9,1.5-3.4,1.5
		c-1.3,0-2.3-0.4-3.1-1.3c-0.8-0.9-1.1-2.1-1.1-3.5c0-1.6,0.4-2.8,1.2-3.8c0.8-0.9,1.9-1.4,3.2-1.4
		C285.8,171.5,286.9,171.9,287.7,172.7z M286.7,179c0.4-0.8,0.6-1.7,0.6-2.6c0-0.9-0.1-1.6-0.4-2.1c-0.4-0.9-1.2-1.3-2.3-1.3
		c-1,0-1.7,0.4-2.1,1.1c-0.4,0.7-0.7,1.6-0.7,2.7c0,1,0.2,1.8,0.7,2.5c0.4,0.7,1.1,1,2.1,1C285.6,180.1,286.3,179.8,286.7,179z"/>
	<path id="XMLID_29_" class="st2" d="M291.6,168.9c0.4-0.5,1.1-0.8,2.1-0.8c0.1,0,0.2,0,0.3,0s0.2,0,0.4,0v1.4c-0.2,0-0.3,0-0.4,0
		c-0.1,0-0.1,0-0.2,0c-0.5,0-0.8,0.1-0.9,0.4c-0.1,0.2-0.1,0.9-0.1,1.9h1.6v1.2h-1.6v8.1h-1.6v-8.1H290v-1.2h1.3v-1.5
		C291.3,169.7,291.4,169.2,291.6,168.9z"/>
	<path id="XMLID_31_" class="st2" d="M296.2,169.1h1.6v2.6h1.5v1.3h-1.5v6.1c0,0.3,0.1,0.5,0.3,0.7c0.1,0.1,0.3,0.1,0.6,0.1
		c0.1,0,0.2,0,0.2,0s0.2,0,0.3,0v1.3c-0.2,0.1-0.4,0.1-0.6,0.1c-0.2,0-0.4,0-0.6,0c-0.7,0-1.2-0.2-1.5-0.6s-0.4-0.9-0.4-1.5v-6.2
		h-1.3v-1.3h1.3V169.1z"/>
	<path id="XMLID_33_" class="st2" d="M307.2,177c0,0.7,0.2,1.3,0.5,1.8c0.6,0.9,1.5,1.3,3,1.3c0.6,0,1.2-0.1,1.7-0.3
		c1-0.4,1.5-1,1.5-2c0-0.7-0.2-1.2-0.6-1.5c-0.4-0.3-1.1-0.5-2-0.8l-1.7-0.4c-1.1-0.3-1.9-0.5-2.4-0.9c-0.8-0.5-1.2-1.3-1.2-2.4
		c0-1.2,0.4-2.1,1.2-2.9s1.9-1.1,3.3-1.1c1.3,0,2.4,0.3,3.4,1c0.9,0.7,1.4,1.7,1.4,3.1h-1.6c-0.1-0.7-0.3-1.2-0.5-1.6
		c-0.5-0.7-1.4-1-2.6-1c-1,0-1.7,0.2-2.1,0.7c-0.4,0.4-0.6,0.9-0.6,1.5c0,0.6,0.3,1.1,0.8,1.4c0.3,0.2,1.1,0.4,2.3,0.7l1.8,0.4
		c0.8,0.2,1.5,0.5,2,0.8c0.8,0.6,1.2,1.5,1.2,2.6c0,1.4-0.5,2.5-1.5,3.1s-2.2,0.9-3.5,0.9c-1.6,0-2.8-0.4-3.7-1.2
		c-0.9-0.8-1.3-1.9-1.3-3.3H307.2z"/>
	<path id="XMLID_36_" class="st2" d="M317.9,168.2h1.6v4.8c0.4-0.5,0.7-0.8,1-1c0.5-0.3,1.1-0.5,1.9-0.5c1.4,0,2.3,0.5,2.8,1.4
		c0.3,0.5,0.4,1.2,0.4,2.2v6h-1.6v-5.9c0-0.7-0.1-1.2-0.3-1.5c-0.3-0.5-0.8-0.8-1.6-0.8c-0.7,0-1.3,0.2-1.8,0.7s-0.8,1.3-0.8,2.6v5
		h-1.6V168.2z"/>
	<path id="XMLID_38_" class="st2" d="M332.9,175.5c0.4,0,0.6-0.2,0.7-0.5c0.1-0.1,0.1-0.3,0.1-0.6c0-0.5-0.2-0.9-0.6-1.2
		s-0.9-0.4-1.6-0.4c-0.8,0-1.4,0.2-1.8,0.7c-0.2,0.2-0.3,0.6-0.4,1.1h-1.5c0-1.2,0.4-2,1.1-2.4c0.7-0.5,1.6-0.7,2.5-0.7
		c1.1,0,2,0.2,2.7,0.6c0.7,0.4,1,1.1,1,2v5.4c0,0.2,0,0.3,0.1,0.4c0.1,0.1,0.2,0.1,0.4,0.1c0.1,0,0.1,0,0.2,0s0.2,0,0.3,0v1.2
		c-0.2,0.1-0.4,0.1-0.6,0.1s-0.3,0-0.5,0c-0.5,0-0.9-0.2-1.2-0.6c-0.1-0.2-0.2-0.5-0.3-0.9c-0.3,0.4-0.8,0.8-1.4,1.1s-1.3,0.5-2,0.5
		c-0.9,0-1.6-0.3-2.1-0.8c-0.6-0.5-0.8-1.2-0.8-2c0-0.9,0.3-1.5,0.8-2c0.5-0.5,1.3-0.8,2.1-0.9L332.9,175.5z M329.6,179.8
		c0.3,0.3,0.7,0.4,1.2,0.4c0.6,0,1.1-0.1,1.6-0.4c0.9-0.4,1.3-1.1,1.3-2.1v-1.3c-0.2,0.1-0.4,0.2-0.7,0.3c-0.3,0.1-0.6,0.1-0.9,0.2
		l-1,0.1c-0.6,0.1-1,0.2-1.3,0.4c-0.5,0.3-0.7,0.7-0.7,1.3C329.1,179.1,329.3,179.5,329.6,179.8z"/>
	<path id="XMLID_41_" class="st2" d="M338,171.8h1.5v1.6c0.1-0.3,0.4-0.7,0.9-1.2s1-0.7,1.7-0.7c0,0,0.1,0,0.1,0s0.2,0,0.4,0v1.7
		c-0.1,0-0.2,0-0.3,0c-0.1,0-0.2,0-0.3,0c-0.8,0-1.4,0.3-1.8,0.8s-0.6,1.1-0.6,1.8v5.4H338V171.8z"/>
	<path id="XMLID_43_" class="st2" d="M349.7,172c0.6,0.3,1.1,0.7,1.4,1.2c0.3,0.5,0.5,1,0.6,1.7c0.1,0.4,0.1,1.1,0.1,2.1h-6.8
		c0,1,0.3,1.7,0.7,2.3c0.4,0.6,1.1,0.9,1.9,0.9c0.8,0,1.5-0.3,2-0.8c0.3-0.3,0.5-0.7,0.6-1.1h1.6c0,0.3-0.2,0.7-0.4,1.2
		c-0.2,0.4-0.5,0.8-0.8,1c-0.5,0.5-1.1,0.8-1.8,0.9c-0.4,0.1-0.8,0.1-1.3,0.1c-1.2,0-2.2-0.4-3-1.3c-0.8-0.9-1.2-2-1.2-3.6
		c0-1.5,0.4-2.7,1.2-3.7c0.8-0.9,1.9-1.4,3.2-1.4C348.4,171.6,349.1,171.7,349.7,172z M350.3,175.7c-0.1-0.7-0.2-1.2-0.4-1.6
		c-0.4-0.8-1.1-1.1-2.2-1.1c-0.7,0-1.3,0.3-1.8,0.8s-0.7,1.2-0.8,2H350.3z"/>
	<path id="XMLID_46_" class="st2" d="M354.3,168.3h5.8c1.1,0,2.1,0.3,2.8,1c0.7,0.6,1.1,1.6,1.1,2.7c0,1-0.3,1.9-0.9,2.6
		c-0.6,0.7-1.6,1.1-2.9,1.1h-4v5.5h-1.7V168.3z M361.1,170c-0.4-0.2-0.9-0.3-1.6-0.3H356v4.5h3.5c0.8,0,1.4-0.2,1.9-0.5
		s0.7-0.9,0.7-1.8C362.1,171,361.8,170.4,361.1,170z"/>
	<path id="XMLID_49_" class="st2" d="M372.7,172.7c0.8,0.8,1.2,2,1.2,3.6c0,1.5-0.4,2.8-1.1,3.8s-1.9,1.5-3.4,1.5
		c-1.3,0-2.3-0.4-3.1-1.3c-0.8-0.9-1.1-2.1-1.1-3.5c0-1.6,0.4-2.8,1.2-3.8s1.9-1.4,3.2-1.4C370.9,171.5,371.9,171.9,372.7,172.7z
		 M371.8,179c0.4-0.8,0.6-1.7,0.6-2.6c0-0.9-0.1-1.6-0.4-2.1c-0.4-0.9-1.2-1.3-2.3-1.3c-1,0-1.7,0.4-2.1,1.1
		c-0.4,0.7-0.7,1.6-0.7,2.7c0,1,0.2,1.8,0.7,2.5c0.4,0.7,1.1,1,2.1,1C370.7,180.1,371.4,179.8,371.8,179z"/>
	<path id="XMLID_52_" class="st2" d="M375.9,168.3h1.6v1.8h-1.6V168.3z M375.9,171.8h1.6v9.4h-1.6V171.8z"/>
	<path id="XMLID_55_" class="st2" d="M379.9,171.8h1.5v1.3c0.4-0.6,0.9-0.9,1.4-1.2s1.1-0.4,1.7-0.4c1.3,0,2.2,0.5,2.7,1.4
		c0.3,0.5,0.4,1.2,0.4,2.2v6H386v-5.9c0-0.6-0.1-1-0.3-1.4c-0.3-0.6-0.8-0.9-1.5-0.9c-0.4,0-0.7,0-0.9,0.1c-0.4,0.1-0.8,0.4-1.1,0.8
		c-0.3,0.3-0.4,0.6-0.5,1c-0.1,0.3-0.1,0.8-0.1,1.4v4.9h-1.6V171.8z"/>
	<path id="XMLID_57_" class="st2" d="M390.3,169.1h1.6v2.6h1.5v1.3h-1.5v6.1c0,0.3,0.1,0.5,0.3,0.7c0.1,0.1,0.3,0.1,0.6,0.1
		c0.1,0,0.2,0,0.2,0s0.2,0,0.3,0v1.3c-0.2,0.1-0.4,0.1-0.6,0.1c-0.2,0-0.4,0-0.6,0c-0.7,0-1.2-0.2-1.5-0.6s-0.4-0.9-0.4-1.5v-6.2
		H389v-1.3h1.3V169.1z"/>
</g>
<g id="XMLID_1_">
	<g id="XMLID_11_">
		<path class="st2" d="M169.6,123.5c0-5-3.5-9.2-8.2-10.2c-3.6-13.5-14.3-24.2-27.9-27.8c-0.9-4.8-5.2-8.5-10.3-8.5
			c-5.8,0-10.5,4.7-10.5,10.5c0,5.8,4.7,10.5,10.5,10.5c4,0,7.4-2.2,9.2-5.5c10.5,3,18.8,11.3,21.9,21.7c-3.4,1.7-5.7,5.3-5.7,9.3
			c0,4,2.3,7.5,5.6,9.3c-3.2,10.3-11.4,18.5-21.8,21.5c-1.7-3.3-5.2-5.6-9.3-5.6c-5.8,0-10.5,4.7-10.5,10.5
			c0,5.8,4.7,10.5,10.5,10.5c5,0,9.2-3.6,10.2-8.3c13.5-3.5,24.2-14.1,27.9-27.5C166,132.7,169.6,128.5,169.6,123.5z"/>
	</g>
	<g id="XMLID_15_">
		<polygon class="st2" points="91.7,113.3 84.7,113.3 84.7,120.2 78,120.2 78,126.9 84.7,126.9 84.7,133.8 91.7,133.8 91.7,126.9 
			98.4,126.9 98.4,120.2 91.7,120.2 		"/>
	</g>
</g>
</svg>
