<?xml version="1.0" encoding="utf-8"?>
<!-- Generator: Adobe Illustrator 19.0.0, SVG Export Plug-In . SVG Version: 6.00 Build 0)  -->
<svg version="1.1" id="Layer_1" xmlns="http://www.w3.org/2000/svg" xmlns:xlink="http://www.w3.org/1999/xlink" x="0px" y="0px"
	 viewBox="0 0 356.6 245.8" style="enable-background:new 0 0 356.6 245.8;" xml:space="preserve">
<style type="text/css">
	.st0{fill-rule:evenodd;clip-rule:evenodd;fill:#FFFFFF;}
	.st1{fill:#991B1E;}
	.st2{fill:#010101;}
</style>
<g id="XMLID_832_">
	<circle class="st0" cx="123.5" cy="123.2" r="60.9"/>
</g>
<g id="XMLID_831_">
	<path id="XMLID_12_" class="st1" d="M123.5,188.7c-36.1,0-65.4-29.4-65.4-65.4s29.4-65.4,65.4-65.4s65.4,29.4,65.4,65.4
		S159.6,188.7,123.5,188.7z M123.5,66.8c-31.1,0-56.4,25.3-56.4,56.4c0,31.1,25.3,56.4,56.4,56.4s56.4-25.3,56.4-56.4
		C179.9,92.1,154.6,66.8,123.5,66.8z"/>
</g>
<g id="XMLID_299_">
	<path class="st2" d="M249.2,101l-4,10.3c-0.4,0.5-0.9,0.9-1.5,1.2c-0.7,0.3-1.4,0.4-2.1,0.4c-0.9,0-1.7-0.2-2.5-0.7
		c-0.3-0.2-0.5-0.5-0.7-0.7c-0.2-0.3-0.4-0.6-0.5-0.9l-6.8-18.4h5.9l4.8,14.5l4.9-14.5h7.7c0.7,0.1,1.2,0.3,1.5,0.9l7.4,13.2h0.3
		V92.4h5v18.1c-0.3,0.8-0.8,1.4-1.4,1.9c-0.5,0.4-1.3,0.6-2.3,0.6c-0.7,0-1.3-0.1-1.8-0.3c-0.5-0.2-1.4-0.8-1.5-1l-7.2-13h-0.3v14.1
		h-4.9V101z"/>
</g>
<g id="XMLID_278_">
	<path class="st2" d="M222.1,105.1l2.5-8.9l2.3,8.9H222.1z M228.7,94.9c-0.3-0.8-0.8-1.5-1.6-2c-0.8-0.5-1.7-0.8-2.7-0.8
		c0,0-0.3,0-0.4,0c-0.3,0-0.6,0-1,0.2c-0.4,0.1-0.7,0.2-0.9,0.4c-0.7,0.5-1.2,1.2-1.5,1.9l-5.2,13l-3-4c1.1-0.4,2-0.8,2.7-1.3
		c0.7-0.5,1.3-1.1,1.8-1.8c0.4-0.7,0.6-1.4,0.6-2.2c0-1.6-0.8-2.9-2.3-4.1c-1.6-1.2-3.4-1.7-5.5-1.7H204c-0.7,0-1.5,0.4-2.1,0.9
		c-0.6,0.5-1,1-1.1,1.7l0,2.7l0,15v0h5.4V96.3h3.7c0.6,0.4,1.1,0.7,1.4,1.1c0.3,0.4,0.5,0.8,0.5,1.2c0,0.8-0.6,1.4-1.9,1.9
		c-0.6,0.2-1.2,0.4-1.8,0.6c-1.1,0.4-1.7,1-1.7,1.9c0,0.3,0.1,0.6,0.2,1l6.1,8.9h6.5l0,0l1.5-3.9h7.7l1.4,3.9l5.7-0.1L228.7,94.9z"
		/>
</g>
<g id="XMLID_214_">
	<path id="XMLID_2_" d="M218.2,132.5c-1.1-0.9-2.6-1.4-4.4-1.4c-1.6,0-2.9,0.3-4,0.9c-1.1,0.6-1.9,1.4-2.5,2.3
		c-0.6,1-1.1,2.1-1.4,3.3s-0.4,2.5-0.4,3.9c0,1.2,0.1,2.4,0.4,3.6c0.3,1.2,0.7,2.2,1.4,3.1c0.6,0.9,1.4,1.6,2.4,2.2
		c1,0.5,2.2,0.8,3.5,0.8c2.2,0,3.8-0.6,5.1-1.7c1.2-1.1,2-2.7,2.2-4.8h4.5c-0.5,3.3-1.7,5.8-3.7,7.6c-2,1.8-4.7,2.7-8,2.7
		c-2,0-3.8-0.3-5.4-1c-1.6-0.7-2.9-1.6-3.9-2.8c-1-1.2-1.8-2.6-2.4-4.3c-0.5-1.7-0.8-3.5-0.8-5.5c0-2,0.3-3.8,0.8-5.6
		c0.5-1.7,1.3-3.2,2.3-4.5s2.4-2.3,3.9-3s3.4-1.1,5.5-1.1c1.5,0,2.9,0.2,4.2,0.5c1.3,0.4,2.5,0.9,3.5,1.7c1,0.8,1.8,1.7,2.5,2.9
		c0.7,1.1,1.1,2.5,1.2,4.1h-4.5C220,134.7,219.3,133.4,218.2,132.5z"/>
	<path id="XMLID_4_" d="M229.3,135.7c0.5-1.7,1.4-3.2,2.5-4.4c1.1-1.3,2.4-2.2,4.1-3c1.6-0.7,3.5-1.1,5.6-1.1c2.1,0,4,0.4,5.6,1.1
		c1.6,0.7,2.9,1.7,4,3c1.1,1.3,1.9,2.7,2.5,4.4s0.8,3.5,0.8,5.5s-0.3,3.8-0.8,5.4c-0.5,1.7-1.4,3.1-2.5,4.4c-1.1,1.3-2.4,2.2-4,2.9
		c-1.6,0.7-3.5,1.1-5.6,1.1c-2.1,0-3.9-0.4-5.6-1.1c-1.6-0.7-3-1.7-4.1-2.9c-1.1-1.2-1.9-2.7-2.5-4.4c-0.5-1.7-0.8-3.5-0.8-5.4
		S228.7,137.4,229.3,135.7z M233.7,145.5c0.4,1.3,1,2.3,1.8,3.1c0.8,0.8,1.6,1.5,2.6,1.9c1,0.4,2.1,0.7,3.2,0.7s2.2-0.2,3.2-0.7
		c1-0.4,1.9-1.1,2.6-1.9c0.8-0.8,1.3-1.9,1.8-3.1c0.4-1.2,0.6-2.7,0.6-4.3c0-1.6-0.2-3-0.6-4.3s-1-2.3-1.8-3.2
		c-0.8-0.9-1.6-1.5-2.6-2c-1-0.4-2.1-0.7-3.2-0.7s-2.2,0.2-3.2,0.7c-1,0.4-1.9,1.1-2.6,2c-0.8,0.9-1.3,1.9-1.8,3.2s-0.6,2.7-0.6,4.3
		C233.1,142.8,233.3,144.2,233.7,145.5z"/>
	<path id="XMLID_7_" d="M263.4,127.9v5.6h0.1c1.1-2.2,2.4-3.8,3.9-4.8c1.5-1,3.5-1.5,5.9-1.4v4.6c-1.7,0-3.2,0.2-4.5,0.7
		c-1.2,0.5-2.2,1.2-3,2.1c-0.8,0.9-1.3,2-1.6,3.4c-0.3,1.3-0.5,2.8-0.5,4.5v11.8h-4.4v-26.6H263.4z"/>
	<path id="XMLID_9_" d="M295.3,152.8c-2,1.5-4.5,2.3-7.5,2.3c-2.1,0-4-0.3-5.5-1c-1.6-0.7-2.9-1.6-3.9-2.9c-1.1-1.2-1.9-2.7-2.4-4.4
		c-0.5-1.7-0.8-3.6-0.9-5.6c0-2,0.3-3.9,0.9-5.6c0.6-1.7,1.5-3.1,2.6-4.4c1.1-1.2,2.4-2.2,4-2.9c1.5-0.7,3.2-1,5-1
		c2.4,0,4.3,0.5,5.9,1.5s2.8,2.2,3.8,3.7c0.9,1.5,1.6,3.2,2,4.9c0.4,1.8,0.5,3.5,0.4,5.1h-19.9c0,1.2,0.1,2.3,0.4,3.3
		c0.3,1,0.8,2,1.5,2.8c0.7,0.8,1.6,1.4,2.6,1.9c1.1,0.5,2.3,0.7,3.8,0.7c1.9,0,3.4-0.4,4.5-1.3s2-2.2,2.3-3.9h4.3
		C298.6,149,297.3,151.2,295.3,152.8z M294.3,135.7c-0.4-0.9-0.9-1.7-1.6-2.4c-0.7-0.7-1.5-1.2-2.4-1.6c-0.9-0.4-1.9-0.6-3-0.6
		c-1.1,0-2.2,0.2-3.1,0.6c-0.9,0.4-1.7,0.9-2.3,1.6c-0.7,0.7-1.2,1.5-1.5,2.4c-0.4,0.9-0.6,1.9-0.7,2.9H295
		C294.9,137.6,294.7,136.6,294.3,135.7z"/>
</g>
<g id="XMLID_68_">
	<g id="XMLID_153_">
		<g id="XMLID_154_">
			<path class="st2" d="M123.6,162.8c-21.9,0-39.7-17.8-39.7-39.7c0-21.9,17.8-39.7,39.7-39.7c21.9,0,39.7,17.8,39.7,39.7
				C163.3,145,145.5,162.8,123.6,162.8z M123.6,90.5c-18,0-32.7,14.7-32.7,32.7c0,18,14.7,32.7,32.7,32.7c18,0,32.7-14.7,32.7-32.7
				C156.3,105.1,141.6,90.5,123.6,90.5z"/>
		</g>
	</g>
	<g id="XMLID_120_">
		<g id="XMLID_139_">
			<rect x="89.5" y="120.5" class="st2" width="68.5" height="4"/>
		</g>
	</g>
	<g id="XMLID_114_">
		<g id="XMLID_119_">
			<rect x="121.6" y="88.4" class="st2" width="4" height="70.3"/>
		</g>
	</g>
	<g id="XMLID_88_">
		<g id="XMLID_92_">
			<path class="st2" d="M123.6,161c-12,0-21.4-16.7-21.4-37.9c0-21.3,9.4-37.9,21.4-37.9s21.4,16.7,21.4,37.9
				C145,144.3,135.6,161,123.6,161z M123.6,89.2c-9.4,0-17.4,15.5-17.4,33.9c0,18.4,8,33.9,17.4,33.9s17.4-15.5,17.4-33.9
				C141,104.7,133,89.2,123.6,89.2z"/>
		</g>
	</g>
</g>
</svg>
