<?xml version="1.0" encoding="utf-8"?>
<!-- Generator: Adobe Illustrator 19.0.0, SVG Export Plug-In . SVG Version: 6.00 Build 0)  -->
<svg version="1.1" id="Layer_1" xmlns="http://www.w3.org/2000/svg" xmlns:xlink="http://www.w3.org/1999/xlink" x="0px" y="0px"
	 viewBox="0 0 413.5 245.8" style="enable-background:new 0 0 413.5 245.8;" xml:space="preserve">
<style type="text/css">
	.st0{fill:#010101;}
	.st1{fill-rule:evenodd;clip-rule:evenodd;fill:#FFFFFF;}
	.st2{fill-rule:evenodd;clip-rule:evenodd;fill:#010101;}
	.st3{fill:#991B1E;}
</style>
<g id="XMLID_16_">
	<path class="st0" d="M248.2,101.9l-4,10.3c-0.4,0.5-0.9,0.9-1.5,1.2c-0.7,0.3-1.4,0.4-2.1,0.4c-0.9,0-1.7-0.2-2.5-0.7
		c-0.3-0.2-0.5-0.5-0.7-0.7c-0.2-0.3-0.4-0.6-0.5-0.9l-6.8-18.4h5.9l4.8,14.5l4.9-14.5h7.7c0.7,0.1,1.2,0.3,1.5,0.9l7.4,13.2h0.3
		V93.3h5v18.1c-0.3,0.8-0.8,1.4-1.4,1.9c-0.5,0.4-1.3,0.6-2.3,0.6c-0.7,0-1.3-0.1-1.8-0.3c-0.5-0.2-1.4-0.8-1.5-1l-7.2-13h-0.3v14.1
		h-4.9V101.9z"/>
</g>
<g id="XMLID_13_">
	<path class="st0" d="M221.1,106.1l2.5-8.9l2.3,8.9H221.1z M227.7,95.8c-0.3-0.8-0.8-1.5-1.6-2c-0.8-0.5-1.7-0.8-2.7-0.8
		c0,0-0.3,0-0.4,0c-0.3,0-0.6,0-1,0.2c-0.4,0.1-0.7,0.2-0.9,0.4c-0.7,0.5-1.2,1.2-1.5,1.9l-5.2,13l-3-4c1.1-0.4,2-0.8,2.7-1.3
		c0.7-0.5,1.3-1.1,1.8-1.8c0.4-0.7,0.6-1.4,0.6-2.2c0-1.6-0.8-2.9-2.3-4.1c-1.6-1.2-3.4-1.7-5.5-1.7H203c-0.7,0-1.5,0.4-2.1,0.9
		c-0.6,0.5-1,1-1.1,1.7l0,2.7l0,15v0h5.4V97.2h3.7c0.6,0.4,1.1,0.7,1.4,1.1c0.3,0.4,0.5,0.8,0.5,1.2c0,0.8-0.6,1.4-1.9,1.9
		c-0.6,0.2-1.2,0.4-1.8,0.6c-1.1,0.4-1.7,1-1.7,1.9c0,0.3,0.1,0.6,0.2,1l6.1,8.9h6.5l0,0l1.5-3.9h7.7l1.4,3.9l5.7-0.1L227.7,95.8z"
		/>
</g>
<g id="XMLID_12_">
	<path id="XMLID_21_" d="M220.1,153.7c-2,1.5-4.5,2.3-7.5,2.3c-2.1,0-4-0.3-5.5-1c-1.6-0.7-2.9-1.6-3.9-2.9
		c-1.1-1.2-1.9-2.7-2.4-4.4c-0.5-1.7-0.8-3.6-0.9-5.6c0-2,0.3-3.9,0.9-5.6c0.6-1.7,1.5-3.1,2.6-4.4c1.1-1.2,2.4-2.2,4-2.9
		c1.5-0.7,3.2-1,5-1c2.4,0,4.3,0.5,5.9,1.5s2.8,2.2,3.8,3.7c0.9,1.5,1.6,3.2,2,4.9s0.5,3.5,0.4,5.1h-19.9c0,1.2,0.1,2.3,0.4,3.3
		c0.3,1,0.8,2,1.5,2.8c0.7,0.8,1.6,1.4,2.6,1.9c1.1,0.5,2.3,0.7,3.8,0.7c1.9,0,3.4-0.4,4.5-1.3c1.2-0.9,2-2.2,2.3-3.9h4.3
		C223.4,149.9,222.1,152.2,220.1,153.7z M219.1,136.6c-0.4-0.9-0.9-1.7-1.6-2.4c-0.7-0.7-1.5-1.2-2.4-1.6c-0.9-0.4-1.9-0.6-3-0.6
		c-1.1,0-2.2,0.2-3.1,0.6c-0.9,0.4-1.7,0.9-2.3,1.6c-0.7,0.7-1.2,1.5-1.5,2.4c-0.4,0.9-0.6,1.9-0.7,2.9h15.3
		C219.7,138.5,219.5,137.5,219.1,136.6z"/>
	<path id="XMLID_24_" d="M226.8,128.8h5.6l6.4,9.3l6.6-9.3h5.2l-9.2,12.2l10.3,14.3h-5.6l-7.4-11l-7.4,11h-5.3l10-14L226.8,128.8z"
		/>
	<path id="XMLID_26_" d="M266.9,128.8v3.9h-5.3v16.5c0,0.5,0,0.9,0.1,1.2c0.1,0.3,0.2,0.5,0.5,0.7c0.2,0.2,0.6,0.3,1,0.3
		s1,0.1,1.7,0.1h2v3.9h-3.3c-1.1,0-2.1-0.1-2.9-0.2s-1.5-0.4-2-0.8c-0.5-0.4-0.9-1-1.1-1.7c-0.2-0.8-0.4-1.7-0.4-3v-16.9h-4.5v-3.9
		h4.5v-8h4.4v8H266.9z"/>
	<path id="XMLID_28_" d="M275.7,128.8v5.6h0.1c1.1-2.2,2.4-3.8,3.9-4.8c1.5-1,3.5-1.5,5.9-1.4v4.6c-1.7,0-3.2,0.2-4.5,0.7
		c-1.2,0.5-2.2,1.2-3,2.1c-0.8,0.9-1.3,2-1.6,3.4c-0.3,1.3-0.5,2.8-0.5,4.5v11.8h-4.4v-26.6H275.7z"/>
	<path id="XMLID_30_" d="M312.4,155.3c-0.8,0.4-1.8,0.7-3.1,0.7c-1.1,0-2-0.3-2.7-1s-1-1.7-1-3.1c-1.2,1.4-2.6,2.5-4.2,3.1
		c-1.6,0.6-3.3,1-5.2,1c-1.2,0-2.3-0.1-3.4-0.4c-1.1-0.3-2-0.7-2.8-1.3c-0.8-0.6-1.4-1.3-1.9-2.3c-0.5-0.9-0.7-2.1-0.7-3.4
		c0-1.5,0.3-2.7,0.8-3.7c0.5-1,1.2-1.7,2-2.3c0.8-0.6,1.8-1.1,2.9-1.4c1.1-0.3,2.2-0.6,3.3-0.8c1.2-0.2,2.3-0.4,3.4-0.5
		c1.1-0.1,2-0.3,2.9-0.5c0.8-0.2,1.5-0.5,2-1c0.5-0.4,0.7-1.1,0.7-1.9c0-1-0.2-1.7-0.5-2.3c-0.4-0.6-0.8-1-1.4-1.3
		c-0.6-0.3-1.2-0.5-1.9-0.6c-0.7-0.1-1.4-0.2-2.1-0.2c-1.9,0-3.4,0.4-4.6,1.1c-1.2,0.7-1.9,2-2,4h-4.4c0.1-1.6,0.4-3,1-4.2
		c0.6-1.1,1.4-2,2.5-2.8c1-0.7,2.2-1.2,3.5-1.5c1.3-0.3,2.7-0.5,4.2-0.5c1.2,0,2.4,0.1,3.6,0.3s2.3,0.5,3.2,1.1
		c1,0.5,1.7,1.3,2.3,2.2c0.6,1,0.9,2.2,0.9,3.7v13.6c0,1,0.1,1.8,0.2,2.3c0.1,0.5,0.5,0.7,1.2,0.7c0.4,0,0.8-0.1,1.3-0.2V155.3z
		 M305.3,141.7c-0.5,0.4-1.3,0.7-2.2,0.9c-0.9,0.2-1.8,0.3-2.8,0.5s-2,0.3-3,0.4c-1,0.2-1.9,0.4-2.7,0.7c-0.8,0.3-1.4,0.8-1.9,1.5
		c-0.5,0.6-0.7,1.5-0.7,2.6c0,0.7,0.1,1.3,0.4,1.8c0.3,0.5,0.7,0.9,1.1,1.2s1,0.5,1.6,0.7s1.3,0.2,2,0.2c1.4,0,2.7-0.2,3.7-0.6
		c1-0.4,1.9-0.9,2.5-1.5c0.7-0.6,1.1-1.2,1.4-1.9c0.3-0.7,0.5-1.4,0.5-2V141.7z"/>
	<path id="XMLID_33_" d="M332.3,133.4c-1.1-0.9-2.6-1.4-4.4-1.4c-1.6,0-2.9,0.3-4,0.9c-1.1,0.6-1.9,1.4-2.5,2.3
		c-0.6,1-1.1,2.1-1.4,3.3c-0.3,1.3-0.4,2.5-0.4,3.9c0,1.2,0.1,2.4,0.4,3.6c0.3,1.2,0.7,2.2,1.4,3.1c0.6,0.9,1.4,1.6,2.4,2.2
		c1,0.5,2.2,0.8,3.5,0.8c2.2,0,3.8-0.6,5.1-1.7c1.2-1.1,2-2.7,2.2-4.8h4.5c-0.5,3.3-1.7,5.8-3.7,7.6c-2,1.8-4.7,2.7-8,2.7
		c-2,0-3.8-0.3-5.4-1c-1.6-0.7-2.9-1.6-3.9-2.8c-1-1.2-1.8-2.6-2.4-4.3c-0.5-1.7-0.8-3.5-0.8-5.5c0-2,0.3-3.8,0.8-5.6
		c0.5-1.7,1.3-3.2,2.3-4.5c1-1.3,2.4-2.3,3.9-3c1.6-0.7,3.4-1.1,5.5-1.1c1.5,0,2.9,0.2,4.2,0.5c1.3,0.4,2.5,0.9,3.5,1.7
		c1,0.8,1.8,1.7,2.5,2.9c0.7,1.1,1.1,2.5,1.2,4.1h-4.5C334.1,135.7,333.4,134.4,332.3,133.4z"/>
	<path id="XMLID_35_" d="M355.4,128.8v3.9h-5.3v16.5c0,0.5,0,0.9,0.1,1.2c0.1,0.3,0.2,0.5,0.5,0.7c0.2,0.2,0.6,0.3,1,0.3
		s1,0.1,1.7,0.1h2v3.9h-3.3c-1.1,0-2.1-0.1-2.9-0.2s-1.5-0.4-2-0.8c-0.5-0.4-0.9-1-1.1-1.7c-0.2-0.8-0.4-1.7-0.4-3v-16.9h-4.5v-3.9
		h4.5v-8h4.4v8H355.4z"/>
</g>
<g id="XMLID_1_">
	<g id="XMLID_11_">
		<circle class="st1" cx="122.5" cy="124.9" r="60.9"/>
	</g>
	<g id="XMLID_2_">
		<g id="XMLID_9_">
			<g id="XMLID_10_">
				<path class="st0" d="M142.6,157.9H94.2c-3.5,0-6.3-2.8-6.3-6.3v-48.4c0-3.5,2.8-6.3,6.3-6.3h28.4v7H94.9v47h47v-27.6h7v28.3
					C148.9,155.1,146.1,157.9,142.6,157.9z"/>
			</g>
		</g>
		<g id="XMLID_7_">
			<g id="XMLID_8_">
				<path class="st0" d="M150.2,117.3l-0.1-21.7h-21.8v-7h22.5c3.5,0,6.3,2.8,6.3,6.3l0.1,22.4L150.2,117.3z"/>
			</g>
		</g>
		<g id="XMLID_5_">
			<g id="XMLID_6_">
				
					<rect x="132.9" y="86.8" transform="matrix(0.707 0.7072 -0.7072 0.707 117.7154 -64.2405)" class="st0" width="7" height="46.3"/>
			</g>
		</g>
		<g id="XMLID_3_">
			<g id="XMLID_4_">
				<path class="st2" d="M122.6,128.8L122.6,128.8c-1,1-2.7,1-3.8,0l-1.1-1.1c-1.1-1-1.1-2.7,0-3.8l0,0"/>
			</g>
		</g>
	</g>
</g>
<g id="XMLID_1445_">
	<path id="XMLID_18_" class="st3" d="M122,189.9c-36.1,0-65.4-29.4-65.4-65.4C56.5,88.4,85.9,59,122,59s65.4,29.4,65.4,65.4
		C187.4,160.6,158,189.9,122,189.9z M122,68c-31.1,0-56.4,25.3-56.4,56.4c0,31.1,25.3,56.4,56.4,56.4s56.4-25.3,56.4-56.4
		C178.4,93.4,153.1,68,122,68z"/>
</g>
</svg>
