<?xml version="1.0" encoding="utf-8"?>
<!-- Generator: Adobe Illustrator 19.0.0, SVG Export Plug-In . SVG Version: 6.00 Build 0)  -->
<svg version="1.1" id="Layer_1" xmlns="http://www.w3.org/2000/svg" xmlns:xlink="http://www.w3.org/1999/xlink" x="0px" y="0px"
	 viewBox="0 0 411.1 245.9" style="enable-background:new 0 0 411.1 245.9;" xml:space="preserve">
<style type="text/css">
	.st0{fill:#FFFFFF;}
	.st1{fill:#991C20;}
	.st2{fill:#010101;}
	.st3{fill:#991B1E;}
</style>
<g id="XMLID_2456_">
	<circle id="XMLID_1_" class="st0" cx="122.6" cy="122.1" r="59.9"/>
	<path id="XMLID_20_" class="st1" d="M122.6,182.1c-33.1,0-60-26.9-60-60c0-33.1,26.9-60,60-60s60,26.9,60,60
		C182.6,155.2,155.7,182.1,122.6,182.1z M122.6,62.3c-32.9,0-59.7,26.8-59.7,59.7c0,32.9,26.8,59.7,59.7,59.7s59.7-26.8,59.7-59.7
		C182.4,89.1,155.6,62.3,122.6,62.3z"/>
</g>
<g id="XMLID_438_">
	<g id="XMLID_2448_">
		<g id="XMLID_2454_">
			<path class="st2" d="M121.8,148.9c0,2.3-1.4,4.1-3.1,4.1H85c-1.7,0-3.1-1.8-3.1-4.1c0-2.3,1.4-4.1,3.1-4.1h33.8
				C120.5,144.8,121.8,146.7,121.8,148.9"/>
		</g>
		<g id="XMLID_2453_">
			<path class="st2" d="M109.3,119c-1.1,1.1-3.1,1.1-4.3-0.2L94.1,108c-1.2-1.2-1.3-3.2-0.2-4.3c1.1-1.1,3.1-1.1,4.3,0.2l10.9,10.9
				C110.4,115.9,110.5,117.9,109.3,119"/>
		</g>
		<g id="XMLID_2452_">
			<path class="st2" d="M135.3,93.4c-1.1,1.1-3,1-4.3-0.2l-10.9-10.9c-1.2-1.2-1.4-3.2-0.3-4.3c1.1-1.1,3-1,4.3,0.2L135,89.1
				C136.3,90.4,136.4,92.3,135.3,93.4"/>
		</g>
		<g id="XMLID_2451_">
			<path class="st2" d="M123.6,107.7c-4.9,4.9-10,7.7-11.5,6.2l-13-12.9c-1.5-1.5,1.3-6.7,6.1-11.5c4.9-4.9,10-7.7,11.5-6.2l13,12.9
				C131.2,97.6,128.5,102.8,123.6,107.7"/>
		</g>
		<g id="XMLID_2450_">
			<path class="st0" d="M115.4,88.6c0.6,0.6,0.6,1.5,0,2.1l-8.8,8.8c-0.6,0.6-1.5,0.6-2.1,0c-0.6-0.6-0.6-1.5,0-2.1l8.8-8.8
				C113.8,88,114.8,88,115.4,88.6"/>
		</g>
	</g>
	<g id="XMLID_2447_">
		
			<rect x="105.1" y="117.1" transform="matrix(0.7071 0.7071 -0.7071 0.7071 125.2368 -61.175)" class="st2" width="62.7" height="7"/>
	</g>
	<g id="XMLID_2400_">
		<g id="XMLID_2446_">
			<path class="st2" d="M163.5,140.2c1.4,1.4,1.4,3.6,0,5l-2.5,2.5c-1.4,1.4-3.6,1.4-5,0l-2.5-2.5c-1.4-1.4-1.4-3.6,0-5l2.5-2.5
				c1.4-1.4,3.6-1.4,5,0L163.5,140.2z"/>
		</g>
		<g id="XMLID_2443_">
			<path class="st2" d="M158.5,136.8c-0.9,0-1.8,0.4-2.4,1l-2.5,2.5c-1.3,1.3-1.3,3.5,0,4.8l2.5,2.5c0.6,0.6,1.5,1,2.4,1
				c0.9,0,1.8-0.4,2.4-1l2.5-2.5c1.3-1.3,1.3-3.5,0-4.8l-2.5-2.5C160.2,137.2,159.4,136.8,158.5,136.8 M158.5,148.8
				c-1,0-1.9-0.4-2.6-1.1l-2.5-2.5c-1.4-1.4-1.4-3.7,0-5.2l2.5-2.5c0.7-0.7,1.6-1.1,2.6-1.1c1,0,1.9,0.4,2.6,1.1l2.5,2.5
				c1.4,1.4,1.4,3.7,0,5.2l-2.5,2.5C160.4,148.4,159.5,148.8,158.5,148.8"/>
		</g>
		<g id="XMLID_2442_">
			<path class="st2" d="M248.6,100.5l-4,10.3c-0.4,0.5-0.9,0.9-1.5,1.2c-0.7,0.3-1.4,0.4-2.1,0.4c-0.9,0-1.7-0.2-2.5-0.7
				c-0.3-0.2-0.5-0.5-0.7-0.7c-0.2-0.3-0.4-0.6-0.5-0.9l-6.8-18.4h5.9l4.8,14.5l4.9-14.5h7.7c0.7,0.1,1.2,0.3,1.5,0.9l7.4,13.2h0.3
				V91.9h5V110c-0.3,0.8-0.8,1.4-1.4,1.9c-0.5,0.4-1.3,0.6-2.3,0.6c-0.7,0-1.3-0.1-1.8-0.3c-0.5-0.2-1.4-0.8-1.5-1l-7.2-13h-0.3
				v14.1h-4.9V100.5z"/>
		</g>
		<g id="XMLID_2439_">
			<path class="st2" d="M221.5,104.6l2.5-8.9l2.3,8.9H221.5z M228.1,94.4c-0.3-0.8-0.8-1.5-1.6-2c-0.8-0.5-1.7-0.8-2.7-0.8
				c0,0-0.3,0-0.4,0c-0.3,0-0.6,0-1,0.2c-0.4,0.1-0.7,0.2-0.9,0.4c-0.7,0.5-1.2,1.2-1.5,1.9l-5.2,13l-3-4c1.1-0.4,2-0.8,2.7-1.3
				c0.7-0.5,1.3-1.1,1.8-1.8c0.4-0.7,0.6-1.4,0.6-2.2c0-1.6-0.8-2.9-2.3-4.1c-1.6-1.2-3.4-1.7-5.5-1.7h-5.6c-0.7,0-1.5,0.4-2.1,0.9
				c-0.6,0.5-1,1-1.1,1.7l0,2.7l0,15v0h5.4V95.8h3.7c0.6,0.4,1.1,0.7,1.4,1.1c0.3,0.4,0.5,0.8,0.5,1.2c0,0.8-0.6,1.4-1.9,1.9
				c-0.6,0.2-1.2,0.4-1.8,0.6c-1.1,0.4-1.7,1-1.7,1.9c0,0.3,0.1,0.6,0.2,1l6.1,8.9h6.5l0,0l1.5-3.9h7.7l1.4,3.9l5.7-0.1L228.1,94.4z
				"/>
		</g>
	</g>
	<g id="XMLID_441_">
		<path id="XMLID_5_" d="M221.7,161.4c-2,2.2-5.1,3.2-9.4,3.2c-1.2,0-2.5-0.1-3.8-0.4s-2.5-0.7-3.5-1.3c-1-0.6-1.9-1.4-2.6-2.4
			c-0.7-1-1.1-2.2-1.1-3.7h4.4c0,0.8,0.3,1.5,0.7,2c0.5,0.5,1,1,1.7,1.3c0.7,0.3,1.4,0.6,2.2,0.7s1.5,0.2,2.3,0.2
			c1.4,0,2.7-0.2,3.7-0.7c1-0.5,1.8-1.2,2.5-2.1s1.1-1.9,1.4-3.2c0.3-1.2,0.4-2.6,0.4-4.1v-1.7h-0.1c-0.8,1.6-1.9,2.9-3.4,3.6
			c-1.5,0.8-3.1,1.2-4.9,1.2c-2,0-3.7-0.4-5.2-1.1c-1.5-0.7-2.7-1.7-3.7-2.9c-1-1.2-1.7-2.6-2.2-4.3c-0.5-1.6-0.7-3.3-0.7-5.2
			c0-1.6,0.2-3.2,0.6-4.9c0.4-1.7,1.1-3.2,2.1-4.5s2.2-2.5,3.8-3.3c1.6-0.9,3.5-1.3,5.8-1.3c1.7,0,3.2,0.4,4.6,1.1
			c1.4,0.7,2.5,1.8,3.3,3.3h0.1v-3.8h4.1v24.3C224.6,156,223.6,159.3,221.7,161.4z M216.1,149.5c1-0.6,1.8-1.4,2.4-2.4
			c0.6-1,1.1-2.1,1.4-3.3s0.4-2.5,0.4-3.7c0-1.2-0.1-2.3-0.4-3.4c-0.3-1.1-0.7-2.2-1.3-3.1c-0.6-0.9-1.4-1.6-2.3-2.2
			c-1-0.5-2.1-0.8-3.5-0.8c-1.4,0-2.6,0.3-3.6,0.8s-1.8,1.2-2.4,2.1c-0.6,0.9-1.1,1.9-1.4,3.1c-0.3,1.2-0.4,2.4-0.4,3.6
			c0,1.2,0.1,2.4,0.4,3.6c0.2,1.2,0.7,2.3,1.2,3.3c0.6,1,1.4,1.8,2.3,2.4c1,0.6,2.2,0.9,3.6,0.9
			C213.8,150.4,215.1,150.1,216.1,149.5z"/>
		<path id="XMLID_8_" d="M230.6,135.2c0.5-1.7,1.4-3.2,2.5-4.4s2.4-2.2,4.1-3s3.5-1.1,5.6-1.1c2.1,0,4,0.4,5.6,1.1
			c1.6,0.7,2.9,1.7,4,3c1.1,1.3,1.9,2.7,2.5,4.4c0.5,1.7,0.8,3.5,0.8,5.5s-0.3,3.8-0.8,5.4c-0.5,1.7-1.4,3.1-2.5,4.4
			c-1.1,1.3-2.4,2.2-4,2.9c-1.6,0.7-3.5,1.1-5.6,1.1c-2.1,0-3.9-0.4-5.6-1.1s-3-1.7-4.1-2.9c-1.1-1.2-1.9-2.7-2.5-4.4
			c-0.5-1.7-0.8-3.5-0.8-5.4S230.1,136.9,230.6,135.2z M235.1,145c0.4,1.3,1,2.3,1.8,3.1c0.8,0.8,1.6,1.5,2.6,1.9
			c1,0.4,2.1,0.7,3.2,0.7s2.2-0.2,3.2-0.7c1-0.4,1.9-1.1,2.6-1.9c0.8-0.8,1.3-1.9,1.8-3.1c0.4-1.2,0.6-2.7,0.6-4.3
			c0-1.6-0.2-3-0.6-4.3c-0.4-1.3-1-2.3-1.8-3.2c-0.8-0.9-1.6-1.5-2.6-2c-1-0.4-2.1-0.7-3.2-0.7s-2.2,0.2-3.2,0.7
			c-1,0.4-1.9,1.1-2.6,2c-0.8,0.9-1.3,1.9-1.8,3.2c-0.4,1.3-0.6,2.7-0.6,4.3C234.4,142.3,234.6,143.7,235.1,145z"/>
		<path id="XMLID_11_" d="M268,153.9l-9.9-26.6h4.9l7.5,22.2h0.1l7.2-22.2h4.6l-9.7,26.6H268z"/>
		<path id="XMLID_13_" d="M305.2,152.2c-2,1.5-4.5,2.3-7.5,2.3c-2.1,0-4-0.3-5.5-1c-1.6-0.7-2.9-1.6-3.9-2.9
			c-1.1-1.2-1.9-2.7-2.4-4.4c-0.5-1.7-0.8-3.6-0.9-5.6c0-2,0.3-3.9,0.9-5.6c0.6-1.7,1.5-3.1,2.6-4.4c1.1-1.2,2.4-2.2,4-2.9
			c1.5-0.7,3.2-1,5-1c2.4,0,4.3,0.5,5.9,1.5s2.8,2.2,3.8,3.7c0.9,1.5,1.6,3.2,2,4.9c0.4,1.8,0.5,3.5,0.4,5.1h-19.9
			c0,1.2,0.1,2.3,0.4,3.3c0.3,1,0.8,2,1.5,2.8c0.7,0.8,1.6,1.4,2.6,1.9c1.1,0.5,2.3,0.7,3.8,0.7c1.9,0,3.4-0.4,4.5-1.3
			s2-2.2,2.3-3.9h4.3C308.5,148.5,307.2,150.7,305.2,152.2z M304.2,135.2c-0.4-0.9-0.9-1.7-1.6-2.4c-0.7-0.7-1.5-1.2-2.4-1.6
			c-0.9-0.4-1.9-0.6-3-0.6c-1.1,0-2.2,0.2-3.1,0.6c-0.9,0.4-1.7,0.9-2.3,1.6c-0.7,0.7-1.2,1.5-1.5,2.4c-0.4,0.9-0.6,1.9-0.7,2.9
			h15.3C304.8,137.1,304.6,136.1,304.2,135.2z"/>
		<path id="XMLID_16_" d="M318,127.4v5.6h0.1c1.1-2.2,2.4-3.8,3.9-4.8c1.5-1,3.5-1.5,5.9-1.4v4.6c-1.7,0-3.2,0.2-4.5,0.7
			c-1.2,0.5-2.2,1.2-3,2.1c-0.8,0.9-1.3,2-1.6,3.4c-0.3,1.3-0.5,2.8-0.5,4.5v11.8h-4.4v-26.6H318z"/>
		<path id="XMLID_18_" d="M336.2,127.4v4.2h0.1c1.8-3.2,4.7-4.8,8.6-4.8c1.7,0,3.2,0.2,4.4,0.7c1.2,0.5,2.1,1.1,2.8,2
			s1.2,1.9,1.5,3.1c0.3,1.2,0.4,2.5,0.4,3.9v17.5h-4.4v-18c0-1.6-0.5-2.9-1.4-3.9c-1-1-2.3-1.4-4-1.4c-1.3,0-2.5,0.2-3.5,0.6
			c-1,0.4-1.8,1-2.4,1.7c-0.7,0.8-1.1,1.6-1.5,2.6c-0.3,1-0.5,2.1-0.5,3.3v15h-4.4v-26.6H336.2z"/>
	</g>
	<g id="XMLID_440_">
		<path id="XMLID_2_" class="st3" d="M122.7,187.9c-36.1,0-65.4-29.4-65.4-65.4S86.7,57,122.7,57s65.4,29.4,65.4,65.4
			S158.8,187.9,122.7,187.9z M122.7,66c-31.1,0-56.4,25.3-56.4,56.4c0,31.1,25.3,56.4,56.4,56.4s56.4-25.3,56.4-56.4
			C179.2,91.3,153.9,66,122.7,66z"/>
	</g>
</g>
</svg>
