<?xml version="1.0" encoding="utf-8"?>
<!-- Generator: Adobe Illustrator 19.0.0, SVG Export Plug-In . SVG Version: 6.00 Build 0)  -->
<svg version="1.1" id="Layer_1" xmlns="http://www.w3.org/2000/svg" xmlns:xlink="http://www.w3.org/1999/xlink" x="0px" y="0px"
	 viewBox="0 0 650.4 245.8" style="enable-background:new 0 0 650.4 245.8;" xml:space="preserve">
<style type="text/css">
	.st0{fill-rule:evenodd;clip-rule:evenodd;fill:#FFFFFF;}
	.st1{fill:#991B1E;}
	.st2{clip-path:url(#SVGID_4_);}
	.st3{fill:#010101;}
	.st4{fill-rule:evenodd;clip-rule:evenodd;fill:#010101;}
</style>
<g id="XMLID_2952_">
	<circle class="st0" cx="123.1" cy="122.4" r="60.9"/>
</g>
<g id="XMLID_2951_">
	<path id="XMLID_38_" class="st1" d="M123.1,187.8c-36.1,0-65.4-29.4-65.4-65.4S87,57,123.1,57s65.4,29.4,65.4,65.4
		S159.1,187.8,123.1,187.8z M123.1,66c-31.1,0-56.4,25.3-56.4,56.4c0,31.1,25.3,56.4,56.4,56.4s56.4-25.3,56.4-56.4
		C179.5,91.3,154.2,66,123.1,66z"/>
</g>
<g id="XMLID_2852_">
	<g id="XMLID_2898_">
		<defs>
			<rect id="SVGID_1_" x="-23.1" y="-32.8" width="484.3" height="307.8"/>
		</defs>
		<clipPath id="SVGID_2_">
			<use xlink:href="#SVGID_1_"  style="overflow:visible;"/>
		</clipPath>
	</g>
	<g id="XMLID_2868_">
		<defs>
			<rect id="SVGID_3_" x="-23.1" y="-32.8" width="484.3" height="307.8"/>
		</defs>
		<clipPath id="SVGID_4_">
			<use xlink:href="#SVGID_3_"  style="overflow:visible;"/>
		</clipPath>
		<g id="XMLID_2897_" class="st2">
			<path class="st3" d="M248.8,100.2l-4,10.3c-0.4,0.5-0.9,0.9-1.5,1.2c-0.7,0.3-1.4,0.4-2.1,0.4c-0.9,0-1.7-0.2-2.5-0.7
				c-0.3-0.2-0.5-0.5-0.7-0.7c-0.2-0.3-0.4-0.6-0.5-0.9l-6.8-18.4h5.9l4.8,14.5l4.9-14.5h7.7c0.7,0.1,1.2,0.3,1.5,0.9l7.4,13.2h0.3
				V91.6h5v18.1c-0.3,0.8-0.8,1.4-1.4,1.9c-0.5,0.4-1.3,0.6-2.3,0.6c-0.7,0-1.3-0.1-1.8-0.3c-0.5-0.2-1.4-0.8-1.5-1l-7.2-13h-0.3
				V112h-4.9V100.2z"/>
		</g>
		<g id="XMLID_2894_" class="st2">
			<path class="st3" d="M221.6,104.3l2.5-8.9l2.3,8.9H221.6z M228.2,94.1c-0.3-0.8-0.8-1.5-1.6-2c-0.8-0.5-1.7-0.8-2.7-0.8
				c0,0-0.3,0-0.4,0c-0.3,0-0.6,0-1,0.2c-0.4,0.1-0.7,0.2-0.9,0.4c-0.7,0.5-1.2,1.2-1.5,1.9l-5.2,13l-3-4c1.1-0.4,2-0.8,2.7-1.3
				c0.7-0.5,1.3-1.1,1.8-1.8c0.4-0.7,0.6-1.4,0.6-2.2c0-1.6-0.8-2.9-2.3-4.1c-1.6-1.2-3.4-1.7-5.5-1.7h-5.6c-0.7,0-1.5,0.4-2.1,0.9
				c-0.6,0.5-1,1-1.1,1.7l0,2.7l0,15v0h5.4V95.5h3.7c0.6,0.4,1.1,0.7,1.4,1.1c0.3,0.4,0.5,0.8,0.5,1.2c0,0.8-0.6,1.4-1.9,1.9
				c-0.6,0.2-1.2,0.4-1.8,0.6c-1.1,0.4-1.7,1-1.7,1.9c0,0.3,0.1,0.6,0.2,1l6.1,8.9h6.5l0,0l1.5-3.9h7.7l1.4,3.9l5.7-0.1L228.2,94.1z
				"/>
		</g>
	</g>
	<g id="XMLID_2863_">
		<path id="XMLID_2_" d="M206.5,116.9v21.7l12.1-11.6h5.9l-10.5,9.7l11.3,16.9h-5.6l-9.1-13.9l-4.1,3.8v10.1h-4.4v-36.7H206.5z"/>
		<path id="XMLID_4_" d="M232.7,127.1v4.2h0.1c1.8-3.2,4.7-4.8,8.6-4.8c1.7,0,3.2,0.2,4.4,0.7c1.2,0.5,2.1,1.1,2.8,2
			s1.2,1.9,1.5,3.1c0.3,1.2,0.4,2.5,0.4,3.9v17.5h-4.4v-18c0-1.6-0.5-2.9-1.4-3.9c-1-1-2.3-1.4-4-1.4c-1.3,0-2.5,0.2-3.5,0.6
			c-1,0.4-1.8,1-2.4,1.7c-0.7,0.8-1.1,1.6-1.5,2.6c-0.3,1-0.5,2.1-0.5,3.3v15h-4.4v-26.6H232.7z"/>
		<path id="XMLID_6_" d="M256.5,134.9c0.5-1.7,1.4-3.2,2.5-4.4c1.1-1.3,2.4-2.2,4.1-3c1.6-0.7,3.5-1.1,5.6-1.1c2.1,0,4,0.4,5.6,1.1
			c1.6,0.7,2.9,1.7,4,3c1.1,1.3,1.9,2.7,2.5,4.4s0.8,3.5,0.8,5.5s-0.3,3.8-0.8,5.4c-0.5,1.7-1.4,3.1-2.5,4.4c-1.1,1.3-2.4,2.2-4,2.9
			c-1.6,0.7-3.5,1.1-5.6,1.1c-2.1,0-3.9-0.4-5.6-1.1c-1.6-0.7-3-1.7-4.1-2.9c-1.1-1.2-1.9-2.7-2.5-4.4c-0.5-1.7-0.8-3.5-0.8-5.4
			S256,136.6,256.5,134.9z M261,144.7c0.4,1.3,1,2.3,1.8,3.1c0.8,0.8,1.6,1.5,2.6,1.9c1,0.4,2.1,0.7,3.2,0.7s2.2-0.2,3.2-0.7
			c1-0.4,1.9-1.1,2.6-1.9c0.8-0.8,1.3-1.9,1.8-3.1c0.4-1.2,0.6-2.7,0.6-4.3c0-1.6-0.2-3-0.6-4.3s-1-2.3-1.8-3.2
			c-0.8-0.9-1.6-1.5-2.6-2c-1-0.4-2.1-0.7-3.2-0.7s-2.2,0.2-3.2,0.7c-1,0.4-1.9,1.1-2.6,2c-0.8,0.9-1.3,1.9-1.8,3.2
			s-0.6,2.7-0.6,4.3C260.3,142,260.5,143.4,261,144.7z"/>
		<path id="XMLID_9_" d="M308.3,153.6l-5.4-21.1h-0.1l-5.3,21.1h-4.7l-8.5-26.6h4.8l6,21.7h0.1l5.3-21.7h4.8l5.6,21.7h0.1l6-21.7
			h4.5l-8.5,26.6H308.3z"/>
		<path id="XMLID_11_" d="M330.2,116.9v36.7h-4.4v-36.7H330.2z"/>
		<path id="XMLID_13_" d="M355.8,151.9c-2,1.5-4.5,2.3-7.5,2.3c-2.1,0-4-0.3-5.5-1c-1.6-0.7-2.9-1.6-3.9-2.9
			c-1.1-1.2-1.9-2.7-2.4-4.4c-0.5-1.7-0.8-3.6-0.9-5.6c0-2,0.3-3.9,0.9-5.6c0.6-1.7,1.5-3.1,2.6-4.4c1.1-1.2,2.4-2.2,4-2.9
			c1.5-0.7,3.2-1,5-1c2.4,0,4.3,0.5,5.9,1.5s2.8,2.2,3.8,3.7c0.9,1.5,1.6,3.2,2,4.9c0.4,1.8,0.5,3.5,0.4,5.1h-19.9
			c0,1.2,0.1,2.3,0.4,3.3c0.3,1,0.8,2,1.5,2.8c0.7,0.8,1.6,1.4,2.6,1.9c1.1,0.5,2.3,0.7,3.8,0.7c1.9,0,3.4-0.4,4.5-1.3
			s2-2.2,2.3-3.9h4.3C359.1,148.2,357.8,150.4,355.8,151.9z M354.8,134.9c-0.4-0.9-0.9-1.7-1.6-2.4c-0.7-0.7-1.5-1.2-2.4-1.6
			c-0.9-0.4-1.9-0.6-3-0.6c-1.1,0-2.2,0.2-3.1,0.6c-0.9,0.4-1.7,0.9-2.3,1.6c-0.7,0.7-1.2,1.5-1.5,2.4c-0.4,0.9-0.6,1.9-0.7,2.9
			h15.3C355.4,136.8,355.2,135.8,354.8,134.9z"/>
		<path id="XMLID_16_" d="M384,153.6V150h-0.1c-0.7,1.5-1.9,2.5-3.4,3.2s-3.2,1-5.1,1c-2.1,0-3.8-0.4-5.4-1.1
			c-1.5-0.8-2.8-1.8-3.8-3c-1-1.3-1.8-2.7-2.3-4.4c-0.5-1.7-0.8-3.5-0.8-5.3s0.2-3.7,0.7-5.3c0.5-1.7,1.3-3.1,2.3-4.4s2.3-2.2,3.8-3
			c1.5-0.7,3.3-1.1,5.3-1.1c0.7,0,1.4,0.1,2.2,0.2c0.8,0.1,1.6,0.4,2.4,0.7c0.8,0.3,1.5,0.8,2.2,1.3s1.3,1.2,1.8,2h0.1v-13.7h4.4
			v36.7H384z M368.3,144.2c0.3,1.2,0.8,2.2,1.5,3.2s1.5,1.7,2.6,2.2c1,0.5,2.3,0.8,3.7,0.8c1.5,0,2.7-0.3,3.8-0.9
			c1-0.6,1.9-1.3,2.5-2.3c0.7-0.9,1.1-2,1.4-3.2c0.3-1.2,0.4-2.4,0.4-3.6c0-1.3-0.2-2.6-0.5-3.8c-0.3-1.2-0.8-2.3-1.5-3.2
			c-0.7-0.9-1.5-1.7-2.6-2.2s-2.3-0.8-3.9-0.8c-1.5,0-2.7,0.3-3.8,0.9s-1.9,1.4-2.5,2.3c-0.6,1-1.1,2.1-1.3,3.3
			c-0.3,1.2-0.4,2.5-0.4,3.8C367.8,141.8,368,143,368.3,144.2z"/>
		<path id="XMLID_19_" d="M415,161.1c-2,2.2-5.1,3.2-9.4,3.2c-1.2,0-2.5-0.1-3.8-0.4c-1.3-0.3-2.5-0.7-3.5-1.3
			c-1-0.6-1.9-1.4-2.6-2.4c-0.7-1-1.1-2.2-1.1-3.7h4.4c0,0.8,0.3,1.5,0.7,2c0.5,0.5,1,1,1.7,1.3c0.7,0.3,1.4,0.6,2.2,0.7
			c0.8,0.2,1.5,0.2,2.3,0.2c1.4,0,2.7-0.2,3.6-0.7c1-0.5,1.8-1.2,2.5-2.1c0.7-0.9,1.1-1.9,1.4-3.2s0.4-2.6,0.4-4.1v-1.7h-0.1
			c-0.8,1.6-1.9,2.9-3.4,3.6c-1.5,0.8-3.1,1.2-4.9,1.2c-2,0-3.7-0.4-5.2-1.1c-1.5-0.7-2.7-1.7-3.7-2.9c-1-1.2-1.7-2.6-2.2-4.3
			s-0.7-3.3-0.7-5.2c0-1.6,0.2-3.2,0.6-4.9s1.1-3.2,2.1-4.5c1-1.4,2.2-2.5,3.8-3.3s3.5-1.3,5.8-1.3c1.7,0,3.2,0.4,4.6,1.1
			s2.5,1.8,3.3,3.3h0.1v-3.8h4.1v24.3C418,155.7,417,159,415,161.1z M409.5,149.2c1-0.6,1.8-1.4,2.4-2.4c0.6-1,1.1-2.1,1.4-3.3
			c0.3-1.2,0.4-2.5,0.4-3.7c0-1.2-0.1-2.3-0.4-3.4c-0.3-1.1-0.7-2.2-1.3-3.1c-0.6-0.9-1.4-1.6-2.3-2.2c-1-0.5-2.1-0.8-3.5-0.8
			c-1.4,0-2.6,0.3-3.6,0.8c-1,0.5-1.8,1.2-2.4,2.1c-0.6,0.9-1.1,1.9-1.4,3.1c-0.3,1.2-0.4,2.4-0.4,3.6c0,1.2,0.1,2.4,0.4,3.6
			c0.2,1.2,0.7,2.3,1.2,3.3s1.4,1.8,2.3,2.4c1,0.6,2.2,0.9,3.6,0.9S408.5,149.8,409.5,149.2z"/>
		<path id="XMLID_22_" d="M443.4,151.9c-2,1.5-4.5,2.3-7.5,2.3c-2.1,0-4-0.3-5.5-1c-1.6-0.7-2.9-1.6-3.9-2.9
			c-1.1-1.2-1.9-2.7-2.4-4.4c-0.5-1.7-0.8-3.6-0.9-5.6c0-2,0.3-3.9,0.9-5.6c0.6-1.7,1.5-3.1,2.6-4.4c1.1-1.2,2.4-2.2,4-2.9
			c1.5-0.7,3.2-1,5-1c2.4,0,4.3,0.5,5.9,1.5s2.8,2.2,3.8,3.7c0.9,1.5,1.6,3.2,2,4.9c0.4,1.8,0.5,3.5,0.4,5.1h-19.9
			c0,1.2,0.1,2.3,0.4,3.3c0.3,1,0.8,2,1.5,2.8c0.7,0.8,1.6,1.4,2.6,1.9c1.1,0.5,2.3,0.7,3.8,0.7c1.9,0,3.4-0.4,4.5-1.3
			s2-2.2,2.3-3.9h4.3C446.7,148.2,445.4,150.4,443.4,151.9z M442.4,134.9c-0.4-0.9-0.9-1.7-1.6-2.4c-0.7-0.7-1.5-1.2-2.4-1.6
			c-0.9-0.4-1.9-0.6-3-0.6c-1.1,0-2.2,0.2-3.1,0.6c-0.9,0.4-1.7,0.9-2.3,1.6c-0.7,0.7-1.2,1.5-1.5,2.4c-0.4,0.9-0.6,1.9-0.7,2.9
			h15.3C443,136.8,442.8,135.8,442.4,134.9z"/>
		<path id="XMLID_25_" d="M486.4,161.1c-2,2.2-5.1,3.2-9.4,3.2c-1.2,0-2.5-0.1-3.8-0.4c-1.3-0.3-2.5-0.7-3.5-1.3
			c-1-0.6-1.9-1.4-2.6-2.4c-0.7-1-1.1-2.2-1.1-3.7h4.4c0,0.8,0.3,1.5,0.7,2c0.5,0.5,1,1,1.7,1.3c0.7,0.3,1.4,0.6,2.2,0.7
			c0.8,0.2,1.5,0.2,2.3,0.2c1.4,0,2.7-0.2,3.6-0.7c1-0.5,1.8-1.2,2.5-2.1c0.7-0.9,1.1-1.9,1.4-3.2s0.4-2.6,0.4-4.1v-1.7h-0.1
			c-0.8,1.6-1.9,2.9-3.4,3.6c-1.5,0.8-3.1,1.2-4.9,1.2c-2,0-3.7-0.4-5.2-1.1c-1.5-0.7-2.7-1.7-3.7-2.9c-1-1.2-1.7-2.6-2.2-4.3
			s-0.7-3.3-0.7-5.2c0-1.6,0.2-3.2,0.6-4.9s1.1-3.2,2.1-4.5c1-1.4,2.2-2.5,3.8-3.3s3.5-1.3,5.8-1.3c1.7,0,3.2,0.4,4.6,1.1
			s2.5,1.8,3.3,3.3h0.1v-3.8h4.1v24.3C489.4,155.7,488.4,159,486.4,161.1z M480.9,149.2c1-0.6,1.8-1.4,2.4-2.4
			c0.6-1,1.1-2.1,1.4-3.3c0.3-1.2,0.4-2.5,0.4-3.7c0-1.2-0.1-2.3-0.4-3.4c-0.3-1.1-0.7-2.2-1.3-3.1c-0.6-0.9-1.4-1.6-2.3-2.2
			c-1-0.5-2.1-0.8-3.5-0.8c-1.4,0-2.6,0.3-3.6,0.8c-1,0.5-1.8,1.2-2.4,2.1c-0.6,0.9-1.1,1.9-1.4,3.1c-0.3,1.2-0.4,2.4-0.4,3.6
			c0,1.2,0.1,2.4,0.4,3.6c0.2,1.2,0.7,2.3,1.2,3.3s1.4,1.8,2.3,2.4c1,0.6,2.2,0.9,3.6,0.9S479.9,149.8,480.9,149.2z"/>
		<path id="XMLID_28_" d="M500,127.1v5.6h0.1c1.1-2.2,2.4-3.8,3.9-4.8c1.5-1,3.5-1.5,5.9-1.4v4.6c-1.7,0-3.2,0.2-4.5,0.7
			c-1.2,0.5-2.2,1.2-3,2.1c-0.8,0.9-1.3,2-1.6,3.4c-0.3,1.3-0.5,2.8-0.5,4.5v11.8h-4.4v-26.6H500z"/>
		<path id="XMLID_30_" d="M536.7,153.5c-0.8,0.4-1.8,0.7-3.1,0.7c-1.1,0-2-0.3-2.7-1s-1-1.7-1-3.1c-1.2,1.4-2.6,2.5-4.2,3.1
			c-1.6,0.6-3.3,1-5.2,1c-1.2,0-2.3-0.1-3.4-0.4c-1.1-0.3-2-0.7-2.8-1.3c-0.8-0.6-1.4-1.3-1.9-2.3c-0.5-0.9-0.7-2.1-0.7-3.4
			c0-1.5,0.3-2.7,0.8-3.7c0.5-1,1.2-1.7,2-2.3c0.8-0.6,1.8-1.1,2.9-1.4c1.1-0.3,2.2-0.6,3.3-0.8c1.2-0.2,2.3-0.4,3.4-0.5
			c1.1-0.1,2-0.3,2.9-0.5c0.8-0.2,1.5-0.5,2-1c0.5-0.4,0.7-1.1,0.7-1.9c0-1-0.2-1.7-0.5-2.3c-0.4-0.6-0.8-1-1.4-1.3
			c-0.6-0.3-1.2-0.5-1.9-0.6c-0.7-0.1-1.4-0.2-2.1-0.2c-1.9,0-3.4,0.4-4.6,1.1c-1.2,0.7-1.9,2-2,4h-4.4c0.1-1.6,0.4-3,1-4.2
			c0.6-1.1,1.4-2,2.5-2.8c1-0.7,2.2-1.2,3.5-1.5c1.3-0.3,2.7-0.5,4.2-0.5c1.2,0,2.4,0.1,3.6,0.3s2.3,0.5,3.2,1.1
			c1,0.5,1.7,1.3,2.3,2.2c0.6,1,0.9,2.2,0.9,3.7v13.6c0,1,0.1,1.8,0.2,2.3c0.1,0.5,0.5,0.7,1.2,0.7c0.4,0,0.8-0.1,1.3-0.2V153.5z
			 M529.6,139.9c-0.5,0.4-1.3,0.7-2.2,0.9c-0.9,0.2-1.8,0.3-2.8,0.5s-2,0.3-3,0.4c-1,0.2-1.9,0.4-2.7,0.7c-0.8,0.3-1.4,0.8-1.9,1.5
			c-0.5,0.6-0.7,1.5-0.7,2.6c0,0.7,0.1,1.3,0.4,1.8c0.3,0.5,0.7,0.9,1.1,1.2s1,0.5,1.6,0.7s1.3,0.2,2,0.2c1.4,0,2.7-0.2,3.7-0.6
			c1-0.4,1.9-0.9,2.5-1.5c0.7-0.6,1.1-1.2,1.4-1.9c0.3-0.7,0.5-1.4,0.5-2V139.9z"/>
		<path id="XMLID_33_" d="M545.2,127.1v3.6h0.1c0.7-1.5,1.9-2.5,3.4-3.2c1.5-0.7,3.2-1,5.1-1c2.1,0,3.8,0.4,5.4,1.1
			c1.5,0.8,2.8,1.8,3.8,3.1c1,1.3,1.8,2.8,2.3,4.4c0.5,1.7,0.8,3.5,0.8,5.3s-0.2,3.7-0.7,5.3c-0.5,1.7-1.3,3.1-2.3,4.4
			s-2.3,2.2-3.8,3c-1.5,0.7-3.3,1.1-5.3,1.1c-0.7,0-1.4-0.1-2.2-0.2c-0.8-0.1-1.6-0.4-2.4-0.7s-1.5-0.7-2.2-1.3s-1.3-1.2-1.8-2h-0.1
			v13.7h-4.4v-36.7H545.2z M561,136.5c-0.3-1.2-0.8-2.2-1.5-3.2c-0.7-0.9-1.5-1.7-2.6-2.2c-1-0.5-2.3-0.8-3.7-0.8
			c-1.5,0-2.7,0.3-3.8,0.9c-1,0.6-1.9,1.3-2.5,2.3c-0.7,0.9-1.1,2-1.4,3.2c-0.3,1.2-0.4,2.4-0.4,3.6c0,1.3,0.2,2.6,0.5,3.8
			c0.3,1.2,0.8,2.3,1.5,3.2c0.7,0.9,1.5,1.7,2.6,2.2s2.3,0.8,3.9,0.8s2.8-0.3,3.8-0.9c1-0.6,1.8-1.4,2.4-2.3c0.6-1,1.1-2.1,1.3-3.3
			c0.3-1.2,0.4-2.5,0.4-3.8C561.4,138.9,561.3,137.7,561,136.5z"/>
		<path id="XMLID_36_" d="M575.6,116.9v14h0.1c0.3-0.8,0.8-1.5,1.4-2.1c0.6-0.6,1.3-1,2.1-1.4c0.8-0.4,1.6-0.6,2.4-0.8
			c0.8-0.2,1.7-0.3,2.4-0.3c1.7,0,3.2,0.2,4.4,0.7c1.2,0.5,2.1,1.1,2.8,2s1.2,1.9,1.5,3.1c0.3,1.2,0.4,2.5,0.4,3.9v17.5h-4.4v-18
			c0-1.6-0.5-2.9-1.4-3.9c-1-1-2.3-1.4-4-1.4c-1.3,0-2.5,0.2-3.5,0.6c-1,0.4-1.8,1-2.4,1.7c-0.7,0.8-1.1,1.6-1.5,2.6
			c-0.3,1-0.5,2.1-0.5,3.3v15h-4.4v-36.7H575.6z"/>
	</g>
</g>
<g id="XMLID_2847_">
	<g id="XMLID_2851_">
		<path class="st4" d="M127.4,126.4c0,5.6-4.6,10.2-10.2,10.2s-10.2-4.6-10.2-10.2c0-5.6,4.6-10.2,10.2-10.2
			S127.4,120.8,127.4,126.4z"/>
	</g>
	<g id="XMLID_2848_">
		<path class="st3" d="M117.1,139.2c-7,0-12.7-5.7-12.7-12.7c0-7,5.7-12.7,12.7-12.7c7,0,12.7,5.7,12.7,12.7
			C129.9,133.5,124.1,139.2,117.1,139.2z M117.1,118.7c-4.3,0-7.7,3.5-7.7,7.7c0,4.3,3.5,7.7,7.7,7.7c4.3,0,7.7-3.5,7.7-7.7
			C124.9,122.2,121.4,118.7,117.1,118.7z"/>
	</g>
</g>
<g id="XMLID_2845_">
	<g id="XMLID_2846_">
		<rect x="128.8" y="89.4" transform="matrix(0.7071 0.7071 -0.7071 0.7071 117.1762 -61.056)" class="st3" width="7" height="43"/>
	</g>
</g>
<g id="XMLID_2843_">
	<g id="XMLID_2844_">
		
			<rect x="113.2" y="134.2" transform="matrix(0.8102 0.5862 -0.5862 0.8102 105.8487 -51.3502)" class="st3" width="38" height="7"/>
	</g>
</g>
<g id="XMLID_2841_">
	<g id="XMLID_2842_">
		<rect x="90.1" y="118.6" transform="matrix(0.945 0.3271 -0.3271 0.945 45.6604 -27.2458)" class="st3" width="27.5" height="7"/>
	</g>
</g>
<g id="XMLID_2839_">
	<g id="XMLID_2840_">
		<circle class="st4" cx="88.4" cy="116.7" r="5.8"/>
	</g>
</g>
<g id="XMLID_2837_">
	<g id="XMLID_2838_">
		<circle class="st4" cx="149.4" cy="150.3" r="8.5"/>
	</g>
</g>
<g id="XMLID_2835_">
	<g id="XMLID_2836_">
		<circle class="st4" cx="147.9" cy="94.1" r="9.1"/>
	</g>
</g>
</svg>
