<?xml version="1.0" encoding="utf-8"?>
<!-- Generator: Adobe Illustrator 19.0.0, SVG Export Plug-In . SVG Version: 6.00 Build 0)  -->
<svg version="1.1" id="Layer_1" xmlns="http://www.w3.org/2000/svg" xmlns:xlink="http://www.w3.org/1999/xlink" x="0px" y="0px"
	 viewBox="0 0 62.4 78.8" style="enable-background:new 0 0 62.4 78.8;" xml:space="preserve">
<style type="text/css">
	.st0{fill:#010101;}
	.st1{fill:#991B1E;}
</style>
<g id="XMLID_34_">
	<g id="XMLID_40_">
		<g id="XMLID_70_">
			<path id="XMLID_32_" class="st0" d="M38.1,10.2c-1.7-0.5-3.5-0.7-5.4-0.7c-3.7,0-7.2,1-10.2,2.8l1.5,2.1c2.5-1.5,5.5-2.4,8.7-2.4
				c0.3,0,0.5,0,0.8,0c0.1,0,0.2,0,0.3,0c0,0,0.4-0.3,0.6-0.4c0.5-0.3,0.9-0.5,1.4-0.7c0.5-0.2,0.7-0.3,1.3-0.5
				c0.2-0.1,0.4-0.1,0.7-0.2C37.9,10.2,38,10.2,38.1,10.2"/>
			<path id="XMLID_31_" class="st0" d="M29.8,45.8c-7.5-1.3-13.1-7.3-14-14.8h-2.6C14.1,40,21,47.2,29.8,48.5V45.8z"/>
		</g>
		<g id="XMLID_41_">
			<path id="XMLID_30_" class="st0" d="M45.5,32.3c-0.1-0.1-0.2-0.1-0.4-0.1c0,0,0,0,0,0.1C45.4,32.3,45.3,32.3,45.5,32.3z"/>
			<path id="XMLID_29_" class="st0" d="M36.9,39.3l0-0.5c0,0,0,0.1,0,0.1C36.9,39.1,36.9,39.2,36.9,39.3z"/>
			<path id="XMLID_28_" class="st0" d="M44.2,32.4l0.4,0.4c0-0.1,0.1-0.2,0-0.3C44.5,32.5,44.3,32.5,44.2,32.4z"/>
			<path id="XMLID_27_" class="st0" d="M37.1,40.1v-0.2c0,0,0,0-0.1,0C37.1,40,37.1,40.1,37.1,40.1z"/>
			<path id="XMLID_26_" class="st0" d="M41.5,27.7l0.3,0.1c0,0,0,0,0-0.2c0-0.6,0.1-0.3,0.1-0.6c0-0.1,0-0.1,0-0.3
				c0-0.1,0-0.1,0.1-0.1c0,0,0,0-0.1,0c0-0.1,0-0.1-0.1-0.2l-0.1,0l0,0c-0.1,0.1-0.2,0.1-0.2,0.3c-0.1,0.4-0.2,0.3-0.2,0.7l0.3,0.1
				C41.5,27.6,41.5,27.5,41.5,27.7z"/>
			<path id="XMLID_25_" class="st0" d="M34.1,22.9c0-0.1,0.1,0.1,0-0.1l-0.1-0.3c-0.3,0.2-0.1,0.1-0.3,0.3c-0.2,0.2-0.1,0-0.4,0.3
				c0.3-0.1,0.3,0,0.6-0.1C34.1,22.9,34.1,22.9,34.1,22.9z"/>
			<path id="XMLID_24_" class="st0" d="M40.9,23.5c0-0.1,0-0.2,0-0.3c-0.1,0.1-0.1,0.2-0.2,0.3L40.9,23.5L40.9,23.5z"/>
			<path id="XMLID_23_" class="st0" d="M43.7,32.2c0,0-0.1-0.1-0.1-0.1L43,31.9l0.1,0.4c0.3,0,0.7,0.2,0.8,0.2
				C44,32.3,43.8,32.3,43.7,32.2z"/>
			<path id="XMLID_22_" class="st0" d="M34,22.3L34,22c0,0,0,0,0,0l0,0.1c0,0.1-0.1,0.2-0.1,0.3h0C34,22.3,34,22.3,34,22.3z"/>
			<path id="XMLID_21_" class="st0" d="M42.4,34L42.4,34C42.3,34.2,42.4,33.9,42.4,34z"/>
			<path id="XMLID_20_" class="st0" d="M43.3,35.8c-0.1,0-0.1,0-0.2,0L43,36l0.1,0c0.3,0.2,0.4,0.3,0.6,0.4c0.2,0.1,0.3,0.2,0.4,0.3
				h0.1L44,36.5L43.3,35.8z"/>
			<path id="XMLID_19_" class="st0" d="M43,32.4C42.9,32.3,42.9,32.3,43,32.4c-0.2-0.2-0.2-0.1-0.3-0.2c-0.2-0.1,0-0.1-0.2-0.1
				L41.9,32l0,0.5l0.6,0.2c0,0,0.1,0.1,0.1,0.1c0.1,0.1,0.3,0.1,0.2,0.3l0.2,0C42.9,32.6,42.9,32.7,43,32.4z"/>
			<path id="XMLID_18_" class="st0" d="M41.5,33.3c0.1,0.1,0.2,0.2,0.3,0.3c0,0,0,0,0.1,0c-0.1-0.1-0.1-0.2-0.1-0.3L41.5,33.3z"/>
			<path id="XMLID_17_" class="st0" d="M41.6,33.9L41.6,33.9l-0.1,0.3l0.1,0.1c0,0,0.1,0.1,0.1,0.1c0.1,0.1,0.2,0.1,0.3,0.1
				c0.1,0,0.1,0.1,0.2,0.1c0.3,0,0.7,0.3,0.8,0.6l0.1,0.3l0.2,0.1c0.2,0.1,0.5,0.2,0.6,0.4c-0.1-0.1-0.3-0.1-0.5-0.2
				c0,0,0.1,0.1,0.1,0.1c0.2,0.2,0.3,0.2,0.5,0.4c0.1,0.1,0.3,0.3,0.4,0.4c0.1,0.1,0.2,0.1,0.3,0.2c0.1,0.1,0.2,0.1,0.3,0.2
				c0-0.2-0.1-0.2-0.2-0.3l-0.3-0.2L44,36.1c0-0.1,0.1-0.1,0.2-0.3c0,0,0,0,0,0l0-0.1c0-0.1-0.1-0.3-0.1-0.4v0c-0.5,0-0.2,0-0.4-0.2
				c-0.1-0.1-0.1,0-0.2-0.1L43,34.7c-0.1-0.1-0.1-0.1-0.2-0.1c-0.1,0-0.1-0.1-0.2-0.2c-0.1-0.1-0.1-0.1-0.2-0.1l0-0.1
				c0-0.1,0.1-0.1,0.1-0.1l-0.5-0.1C41.7,33.8,41.8,33.7,41.6,33.9z"/>
			<path id="XMLID_16_" class="st0" d="M42.3,34.8c-0.1-0.1-0.1-0.1-0.3-0.1c0.2,0.3,0.2,0.2,0.5,0.4h0l0.2,0l-0.3-0.2
				C42.4,34.9,42.3,34.9,42.3,34.8z"/>
			<path id="XMLID_15_" class="st0" d="M41.9,32.9l0.6,0.1C42.3,33,42.1,32.9,41.9,32.9L41.9,32.9z"/>
			<path id="XMLID_14_" class="st0" d="M42.3,35.8C42.3,35.8,42.3,35.8,42.3,35.8c-0.3-0.1-0.2-0.3-1-0.3c0,0,0,0.1,0,0.1
				c0.1,0.1,0.3,0.1,0.5,0.1c-0.1,0.1-0.1,0.2-0.1,0.4c0.3,0,0-0.1,0.2-0.1c0.1,0,0.1,0,0.1,0.1l0.1,0.1C42.4,36,42.4,36,42.3,35.8
				C42.4,35.9,42.3,35.8,42.3,35.8z"/>
			<path id="XMLID_13_" class="st0" d="M40.5,32.7C40.5,32.7,40.5,32.7,40.5,32.7L40.5,32.7c0.1,0.1,0.2,0.1,0.3,0.1
				c0,0-0.1,0-0.2-0.1C40.6,32.7,40.6,32.7,40.5,32.7z"/>
			<path id="XMLID_12_" class="st0" d="M40.1,36.7c-0.1,0.1,0,0.1-0.1,0.1c0.1,0,0.1,0.1,0.2,0.1c0.1,0.1,0.2,0,0.3,0
				C40.4,36.9,40.3,36.8,40.1,36.7z"/>
			<path id="XMLID_11_" class="st0" d="M41,36.9l0.2,0.2c0,0,0-0.1-0.1-0.1C41,36.9,41,36.9,41,36.9z"/>
			<path id="XMLID_42_" class="st0" d="M32.2,15.8c-3.1,3.7-7.3,7.8-8.9,15.1c-2.1,1.2-3.5,2.4-5.1,4.3c0,0,0,0,0,0.1
				C25,51.3,51.8,46.5,48.1,24.1C51.5,7.9,36.8,8.5,32.2,15.8z M43.6,25.9c0,0.1,0,0.2,0,0.3c0,0.2,0,0.2-0.1,0.2c0,0,0,0,0,0
				c0,0,0,0,0,0l0-0.2c0-0.2,0-0.1-0.1-0.2s0-0.1,0-0.3c0-0.2-0.2-0.3,0-0.5c0.2-0.4,0.2-0.5,0.3-0.6c0.5,0.8,0.4,0.2,0.8,0.6
				l-0.1,0.5l-0.5-0.2C43.7,26.1,43.7,25.7,43.6,25.9z M44.3,23.3c0.4,1,1.4,0.1,1.2-0.6c0-0.2,0-0.4-0.3-0.5
				c0.3-0.1,0.4-0.1,0.5-0.2l0.5-0.2l0.4-0.1c0,0,0,0,0,0c0,0.2-0.3,0.4-0.2,0.9c-0.1,1.5-0.6,1.3-1.4,1.6
				C43.4,24.6,44.2,23.3,44.3,23.3z M32.3,18c0.1-0.6,0.2-0.9,0.7-1.2c0.2-0.1,0.5-0.3,0.6,0c0,0.1,0,0.1,0.1,0.1
				c0,0,0.1,0.2,0.1,0.2c0.1,0.2,0,0.2,0,0.4c-0.3,0-0.4,0-0.6,0.1c-0.4,0.3-0.3,0.9-0.1,1.1c0.2,0.2,0.3,0,0.6-0.1
				c0,0.2,0,0.2-0.1,0.4c-0.1,0.2-0.1,0.1-0.2,0.3c-0.2,0.2-0.7,0.3-0.9-0.1C32.1,18.7,32.2,18.4,32.3,18z M33.3,26.9L33,26.4
				c0.3-0.4,0-0.1,0.3-0.5c0.2-0.3-0.1-0.6,0.2-1.1l0.3-0.9c-0.1,0-0.1,0.1-0.4,0.2l-0.3,0.3c-0.1,0.2,0.1,0.4-0.1,0.7
				c-0.3,0.3,0.1,0.1-0.5,0.4c0-0.4,0.3-0.5,0.2-0.7c-0.1-0.1-0.2,0-0.3,0.1c-0.1,0.1,0.1,0.2-0.3,0c0-0.2,0-0.1,0.3-0.5l0.3-0.3
				c0,0-0.2-0.4-0.1-0.6l0.3-0.4c-0.1-0.1-0.1-0.1-0.5,0.1c0-0.1,0-0.2,0-0.3c0-0.2,0,0,0.1-0.2l0.3-0.6L33,22
				c0.1-0.1,0-0.1,0.1-0.1c0.1-0.1,0,0.1,0.1-0.2c0-0.1,0-0.1,0.3-0.1l0,0.3c0.1,0.1,0,0,0.1,0.1l0.1,0c-0.2,0.3-0.1,0.2-0.7,0.3
				l0,0.3c0.1,0,0.1-0.1,0.3-0.1c0.2,0,0.3,0,0.3,0c0.1-0.2,0.1-0.2,0.2-0.3c0.1-0.1,0.1-0.6,0.1-0.9c0-0.2,0.1-0.1,0.1-0.3
				c0-0.2-0.1-0.3,0-0.5l0-0.1l0,0.3c0.3-0.4,0.5-0.9,0.8-0.9c0.2,0,0,0,0.2,0.1c0.1,0,0.1,0,0.2,0l-0.1,0.7l0.2-0.1
				c-0.1,0.2-0.2,0.4-0.3,0.6c-0.1,0.2-0.3,0.5-0.3,0.7c0,0.2-0.1,0.4-0.2,0.6c-0.1,0.2-0.1,0.3-0.1,0.3c0,0,0,0,0,0
				c0.1-0.1,0.1,0,0.3-0.3c0.4-0.1,0.3-0.4,0.5-0.8l0-0.1c0.1-0.1,0,0,0.1-0.1c0,0.2,0,0.2,0,0.3l0,0.1c-0.1,0.3,0.1,0.3,0,0.5
				c0,0.2-0.1,0.1-0.1,0.3c0,0.2-0.1,0.7-0.1,0.9c-0.1,0.2-0.2,0.1-0.2,0.5c0.3,0.1,0.3-0.4,0.4-0.6l0-0.1c0,0,0,0,0,0l0.2,0.8
				c0,0.2,0,0,0,0.1l0.1,0.2c0.2-0.2-0.1,0,0.2-0.6c0.1-0.2,0.2-0.4,0.2-0.6c0.1-0.2,0.2-0.5,0.3-0.7c0.1-0.2,0.2-0.4,0.3-0.6
				c0-0.1,0.1-0.3,0.2-0.5c0.1-0.3,0-0.4,0.2-0.5l0.1,0.2c0.2-0.1,0.5-0.5,0.7-0.5l0.1,0.2l0.2-0.1L38,21.2c0.3-0.4,0.4-0.6,0.8-0.5
				l0.1,0c0,0,0,0,0,0c0,0,0,0,0,0L38.7,21c-0.1,0.2-0.1,0-0.2,0.4c-0.2,0.3,0.1,0.4,0.1,0.4l0.3,0.2c0.2-0.6,0.2-0.6,0.4-0.6
				c0.4,0,0.3,0.3,0.7,0.3c0.1,0,0.1-0.1,0.3,0.1c0.1,0,0.3-0.2,0.6-0.1l0.1,0.1c0.1-0.2,0.1,0,0.1-0.2l-0.5-0.3
				c0.1-0.1,0.1-0.1,0.2-0.2C41,21,41,21,41.1,20.8c0.1-0.1,0.1-0.2,0.1-0.3c0.2-0.3,0-0.2,0.1-0.3c0,0.2,0,0.2,0,0.4
				c-0.1,0.1-0.1,0.2-0.1,0.4c0.3-0.3,0.2-0.3,0.5-0.3c0.2,0,0.1,0,0.2,0c0,0.2,0,0.4-0.1,0.6c0,0.1-0.1,0.2-0.2,0.3l-0.2,0.3
				c0,0,0,0,0,0c0,0.2-0.2,0.3-0.3,0.7c0,0,0,0,0,0l0.3-0.5c0.1-0.1,0.1-0.1,0.2-0.3c0.1-0.1,0.1-0.2,0.2-0.3l0.3,0.1
				c0,0.1-0.1,0-0.1,0.2c0,0,0,0,0,0.1c-0.1,0.1-0.1,0.2,0,0.3c-0.1,0.2-0.2,0.5-0.3,0.6c-0.3,0.8-0.3,0.6-0.6,1c0,0,0,0.1-0.1,0.1
				c0,0.1-0.1,0.1-0.2,0.1c-0.2,0.1-0.3,0.2-0.5,0.5c-0.2,0.3-0.2,0.1-0.2,0.3c0.6-0.2,0.2-0.1,0.5,0c0,0,0.2,0,0.2,0
				c0.3-0.5,0.7-0.8,0.7-1.3l0.2,0c-0.2,0.6-0.2,0.5-0.5,1.1c-0.1,0.1-0.1,0.1-0.2,0.2c-0.1,0.1,0,0.2-0.1,0.4
				c0,0.1-0.2,0.3,0.1,0.4c0,0,0,0,0.1,0l0.1,0c-0.1,0.3-0.1,0.4-0.3,0.7l0.2,0.1c0.2,0.1,0.2,0,0.3-0.2c0.1-0.1,0.1-0.1,0.2-0.2
				l0-0.1l-0.1,0l0.1-0.3c0.1-0.4,0-0.1,0.2-0.4l0.1-0.2l0.1,0.3c0.1-0.2,0.3-0.4,0.3-0.5l-0.2,0.7c0.2,0,0.2-0.3,0.3-0.4
				c0.3,0.3,0.1,0.1,0.2,0.4c0,0,0,0,0,0l0,0.1c0,0,0,0,0,0c0.1-0.1,0.1-0.1,0.1-0.1c0,0,0-0.1,0-0.2c0-0.1,0-0.3,0-0.4
				c0-0.2,0-0.2,0-0.3l0.1-0.2c0,0,0,0,0,0c0,0,0,0,0,0c0.1,0.3,0,0.3,0,0.6c0,0.2,0,0.5,0,0.7c0,0.3-0.1,0.3-0.1,0.6
				c0,0.3,0.2,0.3,0.1,0.6L42.7,27l-0.1,0.5c0.4,0.1,0.1-0.1,0.4-0.1l0,0.4l0.3-0.1L43.2,28l-0.3,0l-0.3,0.7c-0.1,0.2,0,0.1-0.1,0.2
				c-0.2,0.1-0.2,0.2-0.4,0.3c-0.4,0.2-0.3,0-0.6,0l-0.3,0.1c-0.2,0.1-0.2,0.1-0.3,0.3c-0.2,0.2-0.3,0.1-0.4,0
				c-0.1-0.1-0.4-0.1-0.6-0.1c-0.1,0.1-0.6,0.7-0.7,0.8c-0.3,0.3-0.2,0.3-0.5,0.6c-0.1,0.1-0.1,0.1-0.2,0.1l0,0l-0.1,0
				c-0.3,0.2-0.2,0.1-0.4,0.4c-0.2,0.1-0.3,0.2-0.4,0.4c-0.2,0.2-0.2,0.2-0.2,0.6l-0.2-0.1c-0.2,0.3-0.1,0.1-0.2,0.3l0.2,0.3
				c-0.5,0.2-0.4,0.2-0.8,0.6c-0.2,0-0.5,0-0.7-0.2l0.3-2.1c0-0.2,0-0.4,0.1-0.6c0.1-0.2-0.1-0.9-0.1-0.9c0-0.1,0-0.1,0-0.2
				c0-0.1-0.1-0.2-0.2-0.3c0.1-0.2-0.2-0.4-0.2-0.5l-0.3-0.6c-0.3-0.5-0.7-1-1.1-1.5c0-0.2,0.1-0.3-0.2-0.3
				C33.4,26.5,33.4,26.7,33.3,26.9z M39.3,40.2c0-0.1-0.1-0.2-0.1-0.2L39,39.5c0,0-0.1,0-0.1,0s0,0,0,0l-0.1-0.1
				c0-0.3,0-0.3-0.1-0.6c-0.1-0.2-0.1-1.1-0.1-1.2c0-0.1-0.1-0.1-0.1-0.3c0-0.1,0-0.2,0-0.4L38.2,36c-0.1-0.3-0.1-0.4-0.3-1h-0.3
				c0.3,0.6,0.1,0.4,0.3,0.8c0.1,0.2,0,0.3,0.1,0.5c0.1,0.3,0.1,0.5,0.2,0.7c0,0.1,0.1,0.1,0.1,0.3c0,0.1,0,0.1,0,0.3
				c0.1,0.1,0.1,0,0.1,0.2c0,0.3-0.1,0.7,0,1l0,0.1c0.2,0.5,0.2,0.5,0.1,0.6c-0.1,0.3-0.1,0.9,0.1,1.1c0.1,0.2,0.1,0.7,0.1,1
				c0,0.1,0,0.1,0,0.2l-0.1,0.2c-0.1-0.1-0.1-0.1-0.1-0.3c0-0.2-0.1-0.1-0.1-0.3l-0.1-0.7c-0.1,0.1,0,0.1,0,0.3c0,0.1,0,0.1-0.1,0.2
				c0-0.3,0-0.5,0-0.8c0-0.1,0-0.3,0-0.3c0-0.1-0.1,0-0.1-0.3l0-1.5c-0.2,0.1-0.1,0.2-0.1,0.5c-0.1,0.2,0,0.5-0.1,0.7
				c-0.2,0.7,0.1,0.1-0.2,1.1V40c-0.1-0.3-0.1-0.3-0.1-0.6c0-0.4-0.1-0.3-0.1-0.5c0-0.5,0.1-1.1-0.1-1.3c-0.1,0.2-0.1,0.2-0.1,0.3
				c0,0.1-0.1,0.1-0.1,0.2c0,0.1,0,0.3,0,0.4l0,0l0,0c0,0,0.1,0,0.1,0l0.1,0.5l-0.1,0c0.1,0.3,0,0.3,0.1,0.6c0,0.2,0,0.1,0.1,0.2
				c0.1,0.2,0,0.4,0,0.6c0,0.1,0.1,0.1,0.1,0.3c0,0.3,0,1-0.1,1.2s0.1,0.1-0.1,0.2l-0.1-0.3c-0.1-0.5,0-0.4-0.1-0.7
				c0-0.2,0-0.1-0.1-0.1L37.2,41v-0.7c0,0,0,0.1,0,0.1c0,0.1,0,0-0.1,0.1c-0.1,0.1-0.2,0.2-0.1,0.5c0,0.2,0,0.2,0,0.4
				c0.1,1.2-0.3,0.5-0.3-0.1c0-0.1,0-0.1,0-0.2l-0.1-0.6c-0.1,0.1-0.1,0.3-0.1,0.5l-0.2,0.4c0,0,0,0,0,0l0-0.1
				c-0.1-0.1,0.3-2,0.3-2.2c-0.1,0,0,0-0.1,0.1L36.3,39c-0.2,0.2-0.2,1-0.2,1.2l-0.3,0c-0.2,0.9,0,1.1-0.1,1.4c0,0.1,0,0.1,0,0.3
				c0,0.4,0,1.4-0.2,1.7l-0.3,0.3c0,0,0-0.1,0,0l0,0c0,0,0-0.1,0-0.1c0,0,0,0,0,0l0-0.1c0,0,0,0-0.1,0.1c0,0.1,0,0.1-0.1,0.1
				C35,44,34.6,43.9,34.4,44c0.1-0.4,0.1-0.8,0.2-1.2c0-0.3,0.2-0.9,0.1-1.2c-0.1,0,0-0.1-0.1,0.1c-0.1,0.1,0,0.1-0.1,0.1
				c0,0.2,0,0.3-0.1,0.5c-0.1,0.2-0.1,0.1-0.2,0.4c-0.1-0.1,0-0.1,0-0.2c0-0.2,0-0.1,0-0.3l0.3-2c-0.2,0,0-0.1-0.3,0.2l0.3-2
				c-0.2,0.1-0.1,0.1-0.2,0.3c-0.2,0.5-0.3,1.2-0.3,1.7L33.9,41c-0.1-0.9,0-0.7-0.2-0.7l0.1-0.4l0.2-0.1l0.1-0.7
				c0.1-0.5,0.4-0.9,0.5-1.3c0.1-0.1,0.1-0.2,0.2-0.3c0.1,0.2,0,0.5-0.1,0.7l-0.2,0.6c0-0.1,0-0.3,0-0.4c-0.3,1.1-0.1,0.6-0.2,1.1
				c0,0.2,0,0.3,0.1,0.4c0.1,0.2,0,0.3,0.1,0.4c0-0.4,0.1-1.2,0.2-1.6c0.1-0.4,0.3-0.3,0.4-0.3c-0.1,0.3-0.2,0.4-0.1,0.5l0.3-0.3
				c0.1,0.2,0,0.7-0.1,0.9c-0.1,0.2-0.3,0.3-0.2,0.6l0.3-0.2c0.1,0.1,0,0.1,0,0.2c0,0.4,0,0.1,0,0.4c0,0.1,0,0.1,0,0.1l0.3,0.1
				l0.2-1.1c0.1-0.7,0-0.3,0.1-1.1h0.2l-0.1,0.5c0.5-1,0.1-0.4,0.4-1.1c0.1-0.2,0.1-0.4,0.2-0.6c0.1-0.2,0.1-0.4,0.2-0.5l-0.2,1.4
				c0,0.3,0,0.1,0.1,0.3c0,0.1,0,0.2-0.1,0.3c0,0.3-0.1,0.5-0.1,0.8c0.1-0.1,0.1-0.1,0.2-0.2c0-0.1,0-0.2,0.1-0.3l0,0.7
				c0,0.2,0.1,0.1,0,0.3c0,0.2-0.1,0.2,0,0.3l0.1-0.2c0-0.1,0-0.1,0-0.2c0-0.3,0.1-0.8,0-1s-0.1-0.7,0.1-1l0-0.8c0-0.1,0-0.2,0-0.3
				l0-1c0-0.2,0-0.4,0-0.5c0-0.2,0-0.4-0.1-0.6c-0.1-0.2,0-0.3,0-0.5c-0.1-0.5,0-0.2-0.1-0.9l0.3,0c0.1,0.6,0.1,0.8,0.1,1.1l0.1,1.1
				l0,0c0,0.5,0.1,0,0.1,0.7c0,0.1,0,0.2,0.1,0.3c0.1-0.1,0-0.7,0-0.9c0-0.3,0-0.6,0-0.9c0-0.1,0-0.3,0-0.5c0-0.3,0-0.2-0.1-0.4
				l0-0.9c0.1,0,0.1,0,0.1,0.1c0.1,0.1,0.1,0.4,0,0.5c-0.1,0.2-0.1,0,0,0.3c0,0.1,0,0,0.1,0.2c0.1-0.2,0-0.6,0-0.7l0.1-0.2
				c0.1,0.1,0.1,0.7,0.1,0.9c0.1-0.1,0,0,0.1-0.3l0.1,0.3c0,0.1,0,0.1,0.2,0.1l0,0.2c0.2,0.1,0.3,1.4,0.3,1.6
				c0.2,0.5,0.2,0.6,0.3,1.2c0,0.1,0,0,0,0.1c0.1,0.4,0,0.3,0.2,0.4c0,0.2,0,0.4,0.1,0.6l0.1,0.5c0.1,0.4,0.2,0.6,0.2,1L39.3,40.2z
				 M46.8,34.8c-0.1-0.1-0.1-0.1-0.3-0.2c-0.1-0.1-0.3-0.3-0.4-0.4c-0.2-0.2-0.3-0.2-0.5-0.4c-0.1-0.1-0.1-0.2-0.2-0.3
				c-0.1-0.1-0.1,0-0.3-0.2L45.1,33C45,33,45,32.9,44.9,32.9l-0.1,0.2c0,0.1,0,0.1,0,0.2l-0.3-0.4l-0.4-0.1c-0.2,0-0.3-0.2-0.6-0.1
				c0,0.2,0,0.3,0.1,0.4c0.2,0.1,0.1,0.1,0.3,0.2c0.1,0.1,0.2,0.1,0.3,0.2c0.1,0.1,0.1-0.1,0.1,0.2c0,0.1,0,0.1-0.1,0.2l-0.1-0.1
				c-0.1-0.1,0-0.1-0.1-0.1c-0.2,0,0.1,0.1-0.2,0.1c-0.1-0.2,0-0.2,0.1-0.4c-0.3-0.1-0.5-0.1-0.6-0.3c0,0,0,0,0-0.1l-0.7-0.1
				l-0.1,0.3c-0.3-0.2-0.4-0.3-0.6-0.2c0,0.1,0,0.1,0.1,0.3c0.1,0,0.2,0.1,0.3,0.1c0.1,0,0.1,0.1,0.2,0.1l0.4,0.2
				c0.1,0,0.1,0.1,0.2,0.1l-0.1,0.2c0,0,0,0,0,0c0.1,0.1,0.2,0.1,0.3,0.2c-0.1-0.1-0.1-0.2-0.1-0.2c0.4,0,0.5,0.2,0.7,0.4
				c0.1,0.1,0.1,0.1,0.2,0.3c0,0,0.1,0.1,0.1,0.1c0.1,0.1,0,0.1,0.2,0.1l0.5,0.5c0.5,0.6,0.3,0.4,0.5,0.6c0.5,0.6,0.3,0.5-0.1,1.5
				c-0.2-0.1-0.2,0-0.3-0.1c-0.1-0.2-0.1-0.1-0.3-0.3c-0.5-0.5-0.4-0.3-0.5-0.4c-0.2-0.2-0.3-0.2-0.3-0.3c0,0-0.1,0-0.1,0
				c0,0,0,0-0.1-0.1c0,0-0.1,0-0.1-0.1c-0.1-0.1-0.1-0.1-0.2-0.2c0,0-0.1-0.1-0.1-0.1c-0.1-0.1-0.1,0-0.3-0.2c0,0,0,0-0.1-0.1
				c-0.1,0-0.1-0.1-0.2-0.1c-0.1,0-0.2,0.1-0.6,0.3c-0.2-0.1-0.3-0.1-0.5-0.2c0.1,0.1,0.1,0.1,0.5,0.3c0.1,0.1,0.1,0.1,0.2,0.2
				l0.2,0.1c0,0,0,0,0,0c0,0.2,0.2,0.2,0.3,0.3c0.1,0.1,0.1,0.1,0.1,0.2c0.1,0.1,0.1,0.1,0.1,0.2c0.1,0.1,0.2,0.1,0.3,0.2l0.2,0.2
				c-0.4-0.1,0.1-0.1-0.6-0.3c0.1,0.3,0.1,0.2,0.1,0.2c0,0.1,0.1,0,0.1,0.1c0.1,0.1,0.2,0.1,0.3,0.2c0.1,0.1,0.1,0.1,0.1,0.3
				c0.1,0.3,0.1,0.3,0.1,0.3s0,0-0.1,0.1c-0.2,0.1-0.2-0.2-0.5-0.3v0c0.2,0.2,0,0.2,0.2,0.5l0.2,0.4c0.2,0.4,0.2,0,0.3,0.4
				c-0.2-0.1-0.6-0.4-0.7-0.6c-0.2-0.4-0.1-0.1-0.3-0.3l-0.2-0.3l-0.1,0c-0.1-0.1,0,0-0.1-0.1c-0.1-0.1-0.1,0-0.2-0.1
				c-0.1-0.2-0.4-0.3-0.6-0.4l-0.9-0.5c-0.3-0.1-0.3-0.1-0.5-0.4c0,0,0,0,0,0c0-0.1-0.1-0.2-0.1-0.3c-0.1,0-0.1-0.1-0.2-0.1
				c0,0-0.1-0.1-0.1-0.1l-0.1-0.1l0.1-0.3l0,0c0-0.1-0.1-0.2-0.1-0.2c-0.1-0.4-0.3-1.1-0.4-1.4c0-0.2-0.1-0.2-0.2-0.4
				c-0.2-0.3-0.1-0.2-0.3-0.3c-0.1,0.1-0.2,0.3-0.3,0.3c0-0.5-0.1-0.3-0.1-0.4c0,0,0,0,0-0.1C38,33.7,38,33.9,38,33.9l0,0l0,0.3
				c0-0.1,0-0.2,0-0.2c-0.2,0-0.2,0.1-0.2-0.1l0.1,0c0.3-0.6,0.2-0.3,0.1-0.9c-0.1-0.4-0.2-0.3-0.2-0.7c0-0.2,0-0.1,0-0.3l0-0.1
				c0.2,0.3,0.2,0.4,0.4,0.4c0.1-0.3,0.1-0.1,0.3-0.3c0.1-0.1-0.1-0.1,0.2-0.2l0.5,0.3c0.3,0.2,0.2,0,0.2-0.3
				c0.7,0.3,0.8,0.2,0.9,0.6l0.2-0.1c0.1,0,0.5,0.1,0.6,0.1l0.1,0c0.3,0.2,0.1,0,0.4,0.1l0.2,0c0.3,0,0.2,0,0.5,0.1l0.1,0
				c0,0,0,0,0,0l0.2,0.1c-0.1-0.1,0-0.1-0.1-0.1c-0.4-0.2-0.1-0.2-0.4-0.3c-0.3-0.1-0.3-0.1-0.5-0.1c-0.1,0-0.1-0.1-0.3-0.1
				c-0.2,0-0.2,0-0.4-0.1l-0.1,0c0,0,0,0,0,0l0.1-0.1c0.2-0.1,0.2,0.1,0.4-0.1c-0.3-0.2-0.4-0.2-0.9-0.3c-0.1,0-0.1,0-0.2-0.1
				c-0.2,0-0.2,0-0.3-0.1l0.8,0c0.3,0,0.4-0.3,1.2,0l0.1,0.1c0.2,0.1,0.3,0,0.7,0v-0.3l0.5,0.1c0.2,0,0,0,0.2,0.1
				c0.1,0.1,0.2,0.1,0.2,0.1c0.1,0.1,0,0,0.2,0.2l-0.2-0.6c0.2-0.1,0.3-0.1,0.5,0c0.1,0,0.1,0.1,0.3,0.1c0.1,0,0.2,0.1,0.3,0.1
				l0.2,0.1h0v0c0-0.2-0.1-0.1-0.1-0.3c0-0.1,0-0.1,0.1-0.3c-0.3-0.3-0.3-0.2-0.7-0.2l0-0.3l-0.3-0.1c0.6-0.5,0.2-0.1,0.3-0.4
				c0.7,0.2,0.6,0.1,0.9,0.5c0.1,0.1,0.3,0.2,0.3,0.4c0.1,0.2,0,0.1,0.3,0.4c0.1,0.1,0.4,0.7,0.5,0.8c0.1,0.1,0,0,0.1,0.1
				c0.1,0.3,0.1,0.1,0.2,0.3c0.1,0.2,0.1,0.2,0.1,0.5l-0.6,0.1l-0.4-0.3c-0.1-0.1-0.6-0.4-0.7-0.6c0.1,0.1,0.2,0.2,0.2,0.2l0.2,0.1
				c0.2,0.1,0.5,0.4,0.5,0.7l0,0.1c0,0,0,0,0,0c-0.1,0.1-0.1,0.1-0.2,0.3l0.5,0.5l0.3,0.2c0.1,0.1,0.2,0.1,0.2,0.3
				C47,35,46.9,34.9,46.8,34.8z"/>
		</g>
		<path id="red_14_" class="st1" d="M17.7,33.7c1.5-1.9,2.5-2.7,4.6-3.8c1.6-7.2,5.8-11.3,8.9-15.1c0,0,0.7-1.1,1.2-1.6c0,0,0,0,0,0
			c-3.7,0.1-6.6,1.4-8.4,2.6c-2.2,1.5-4.6,3.5-6,7.4c-0.4,1.1-0.7,2-0.8,3c-0.4,2.2-0.2,4,0,5.5C17.3,32.7,17.6,33.3,17.7,33.7
			C17.7,33.7,17.7,33.7,17.7,33.7z"/>
	</g>
	<g id="XMLID_35_">
		<path id="XMLID_3_" class="st0" d="M40.2,61.9l-2.7,7c-0.2,0.4-0.6,0.6-1,0.8c-0.4,0.2-0.9,0.3-1.4,0.3c-0.6,0-1.2-0.2-1.7-0.5
			c-0.2-0.1-0.4-0.3-0.5-0.5c-0.1-0.2-0.3-0.4-0.4-0.6L27.8,56h4l3.2,9.9l3.3-9.9h5.2c0.5,0,0.8,0.2,1,0.6l5.1,9h0.2V56h3.4v12.4
			c-0.2,0.6-0.6,1-0.9,1.3c-0.4,0.3-0.9,0.4-1.6,0.4c-0.5,0-0.9-0.1-1.2-0.2c-0.3-0.2-0.9-0.5-1-0.7l-4.9-8.8h-0.2v9.6h-3.3
			L40.2,61.9L40.2,61.9z"/>
		<path id="XMLID_36_" class="st0" d="M27.4,57.7c-0.2-0.5-0.5-1-1.1-1.3c-0.5-0.4-1.1-0.5-1.8-0.5c0,0-0.2,0-0.3,0
			c-0.2,0-0.4,0-0.7,0.1c-0.3,0.1-0.5,0.1-0.6,0.3c-0.5,0.4-0.8,0.8-1,1.3l-3.6,8.9l-2-2.8c0.7-0.3,1.3-0.6,1.8-0.9
			c0.5-0.3,0.9-0.7,1.2-1.2c0.3-0.5,0.4-1,0.4-1.5c0-1.1-0.5-2-1.6-2.8s-2.3-1.2-3.7-1.2h-3.8c-0.5,0-1,0.3-1.4,0.6
			s-0.6,0.7-0.8,1.1c0,0,0,10.8,0,12.1l3.7,0V58.7h2.5c0.4,0.2,0.7,0.5,1,0.7c0.2,0.2,0.4,0.5,0.4,0.8c0,0.5-0.4,1-1.3,1.3
			c-0.4,0.1-0.8,0.3-1.2,0.4c-0.8,0.3-1.1,0.7-1.1,1.3c0,0.2,0,0.4,0.1,0.7l4.1,6.1h4.4l0,0l1-2.7h5.2l1,2.7l3.9,0L27.4,57.7z
			 M22.9,64.7l1.7-6l1.6,6H22.9z"/>
	</g>
</g>
</svg>
