<?xml version="1.0" encoding="utf-8"?>
<!-- Generator: Adobe Illustrator 19.0.0, SVG Export Plug-In . SVG Version: 6.00 Build 0)  -->
<svg version="1.1" id="Layer_1" xmlns="http://www.w3.org/2000/svg" xmlns:xlink="http://www.w3.org/1999/xlink" x="0px" y="0px"
	 viewBox="0 0 343 155.9" style="enable-background:new 0 0 343 155.9;" xml:space="preserve">
<style type="text/css">
	.st0{fill:#010101;}
	.st1{fill-rule:evenodd;clip-rule:evenodd;fill:#010101;}
	.st2{fill-rule:evenodd;clip-rule:evenodd;fill:#999999;}
	.st3{fill:#999999;}
</style>
<path class="st0" d="M249.8,59.7L237.4,92c-1.1,1.7-2.7,2.9-4.8,3.9c-2.1,0.9-4.2,1.4-6.6,1.4c-2.9,0-5.4-0.7-7.7-2.2
	c-0.9-0.7-1.6-1.4-2.3-2.3c-0.7-0.9-1.2-1.7-1.6-2.7L193,32.6h18.3l14.9,45.4l15.3-45.4h24.1c2.3,0.2,3.9,1.1,4.7,2.8L293.6,77h1
	V32.6h15.7v56.7c-1,2.6-2.6,4.5-4.3,5.9c-1.7,1.3-4.1,2-7.2,2c-2.1,0-4-0.4-5.6-1.1c-1.6-0.7-4.2-2.5-4.6-3.1L266,52.5h-0.8v44
	h-15.4V59.7z"/>
<g>
	<path class="st0" d="M84.2,34.9c-3.5-1-7.2-1.5-11-1.5c-7.6,0-14.8,2.1-20.8,5.8l3,4.4c5.2-3.1,11.3-4.9,17.8-4.9
		c0.6,0,1.1,0,1.7,0c0.2,0,0.4,0,0.7,0.1c0,0,0.9-0.6,1.2-0.8c1-0.6,1.9-1.1,2.9-1.6c1-0.4,1.5-0.6,2.6-1c0.5-0.2,0.9-0.2,1.4-0.4
		C83.8,35,84,35,84.2,34.9"/>
	<path id="XMLID_2_" class="st0" d="M67,108.1c-15-2.6-26.8-15-28.6-30.4l-5.4,0c1.8,18.3,16,33.1,34,35.8V108.1z"/>
</g>
<g>
	<path class="st1" d="M99.4,80.3C99.2,80.1,99,80,98.6,80c0,0,0,0.1,0.1,0.1C99.4,80.3,99.1,80.4,99.4,80.3z"/>
	<path class="st1" d="M81.9,94.7l0-1c0,0.1,0,0.1,0,0.2C81.8,94.2,81.8,94.5,81.9,94.7z"/>
	<path class="st1" d="M96.7,80.6l0.8,0.7c0.1-0.1,0.1-0.3,0.1-0.5C97.3,80.7,97,80.6,96.7,80.6z"/>
	<path class="st1" d="M82.3,96.4l0-0.4c0,0-0.1,0-0.1,0C82.3,96.1,82.3,96.2,82.3,96.4z"/>
	<path class="st1" d="M91.2,70.8l0.6,0.1c0,0,0.1,0,0.1-0.5c0-1.2,0.1-0.5,0.2-1.3c0-0.3,0-0.3,0.1-0.6c0-0.1,0.1-0.2,0.1-0.3
		c0,0-0.1,0.1-0.1,0.1C92,68.2,92,68.1,91.9,68l-0.1,0.1c0,0,0,0-0.1,0c-0.3,0.2-0.3,0.3-0.5,0.6c-0.3,0.8-0.4,0.7-0.4,1.5l0.5,0.1
		C91.2,70.7,91.3,70.4,91.2,70.8z"/>
	<path class="st1" d="M76.2,61.1c0.1-0.2,0.1,0.2,0-0.3l-0.2-0.7c-0.6,0.5-0.2,0.1-0.6,0.6c-0.5,0.4-0.2,0-0.8,0.7
		c0.6-0.2,0.6,0,1.2-0.2C76,61.1,76.1,61.1,76.2,61.1z"/>
	<path class="st1" d="M90,62.2c0-0.2,0-0.4,0-0.6c-0.1,0.2-0.3,0.4-0.5,0.7L90,62.2L90,62.2z"/>
	<path class="st1" d="M95.8,80.1c-0.1-0.1-0.2-0.1-0.2-0.2l-1.3-0.5l0.2,0.8c0.6,0.1,1.4,0.5,1.7,0.4C96.5,80.4,96,80.2,95.8,80.1z"
		/>
	<path class="st1" d="M76,59.8l-0.1-0.6c0,0,0,0,0-0.1l0,0.1c-0.1,0.2-0.1,0.5-0.2,0.7l0,0C75.8,59.8,75.9,59.8,76,59.8z"/>
	<path class="st1" d="M93.1,83.7L93.1,83.7C92.9,84.3,93.2,83.5,93.1,83.7z"/>
	<path class="st1" d="M94.9,87.5c-0.1,0-0.2,0-0.4,0L94.4,88l0.2,0.1c0.7,0.3,0.9,0.6,1.2,0.9c0.4,0.1,0.6,0.3,0.9,0.6l0.1,0
		l-0.4-0.8L94.9,87.5z"/>
	<path class="st1" d="M94.3,80.4c-0.1-0.1,0-0.1-0.2-0.2c-0.2-0.1-0.3-0.1-0.5-0.3c-0.4-0.3,0-0.2-0.5-0.3l-1.1-0.1l0,1l1.3,0.5
		c0.1,0.1,0.1,0.1,0.2,0.2c0.2,0.1,0.7,0.3,0.5,0.6l0.4,0.1C94.1,80.9,94.1,81.2,94.3,80.4z"/>
	<path class="st1" d="M91.2,82.3c0.2,0.2,0.4,0.4,0.7,0.5c0,0,0.1,0,0.1,0c-0.1-0.2-0.2-0.4-0.3-0.5L91.2,82.3z"/>
	<path class="st1" d="M91.4,83.5C91.4,83.5,91.4,83.5,91.4,83.5l-0.2,0.7l0.3,0.2c0.1,0,0.2,0.1,0.3,0.1c0.2,0.1,0.4,0.2,0.6,0.3
		c0.1,0.1,0.2,0.1,0.4,0.2c0.7,0.1,1.4,0.5,1.7,1.2l0.2,0.6l0.4,0.3c0.4,0.3,1.1,0.3,1.3,0.8c-0.3-0.2-0.6-0.3-0.9-0.4
		c0.1,0.1,0.1,0.2,0.2,0.3c0.3,0.4,0.6,0.4,1,0.8c0.3,0.3,0.6,0.7,0.9,0.9c0.2,0.2,0.3,0.2,0.5,0.4c0.2,0.2,0.4,0.3,0.6,0.4
		c-0.1-0.4-0.2-0.4-0.5-0.7l-0.6-0.5L96.3,88c0.1-0.2,0.3-0.3,0.4-0.5c0,0,0,0,0-0.1l0-0.1c0-0.3-0.1-0.6-0.3-0.8c0,0,0,0,0,0.1
		c-1,0-0.4-0.1-0.9-0.5c-0.2-0.2-0.2-0.1-0.5-0.3l-0.9-0.7c-0.2-0.2-0.3-0.1-0.5-0.3c-0.1-0.1-0.2-0.2-0.4-0.4
		c-0.2-0.2-0.2-0.1-0.5-0.2l0.1-0.3c0.1-0.1,0.1-0.2,0.1-0.2l-1-0.2C91.7,83.4,91.9,83.1,91.4,83.5z"/>
	<path class="st1" d="M92.8,85.5c-0.2-0.1-0.3-0.2-0.6-0.2c0.4,0.5,0.4,0.4,1,0.7l0,0l0.4,0.1l-0.5-0.5C93.1,85.6,93,85.5,92.8,85.5
		z"/>
	<path class="st1" d="M92.1,81.6l1.3,0.2c-0.4-0.1-0.9-0.3-1.3-0.3L92.1,81.6z"/>
	<path class="st1" d="M93,87.5C93,87.5,93,87.5,93,87.5c-0.5-0.2-0.4-0.5-2-0.7c0,0.1,0,0.1,0.1,0.2c0.2,0.1,0.6,0.2,1,0.3
		c-0.1,0.3-0.3,0.3-0.1,0.8c0.6-0.1,0-0.2,0.4-0.3c0.2,0,0.2,0.1,0.3,0.2l0.2,0.2c0.1-0.1,0.1-0.2,0.1-0.4C93,87.6,93,87.6,93,87.5z
		"/>
	<path class="st1" d="M89.3,81.1C89.3,81.1,89.2,81.1,89.3,81.1L89.3,81.1c0.2,0.3,0.4,0.3,0.6,0.2c-0.1,0-0.1,0-0.3-0.1
		C89.5,81.2,89.4,81.2,89.3,81.1z"/>
	<path class="st1" d="M88.4,89.4c-0.1,0.2,0,0.2-0.1,0.3c0.1,0,0.2,0.1,0.4,0.2c0.2,0.1,0.3,0.1,0.6,0
		C89.1,89.7,88.7,89.6,88.4,89.4z"/>
	<path class="st1" d="M90.2,89.7l0.4,0.3c0-0.1-0.1-0.1-0.1-0.2C90.3,89.7,90.3,89.7,90.2,89.7z"/>
	<path class="st1" d="M72.1,46.4c-6.4,7.6-15,16-18.2,30.9c-4.3,2.4-7.3,4.9-10.4,8.8c0,0,0,0.1,0,0.1c14,33.2,68.9,23.3,61.3-22.7
		C111.7,30.2,81.7,31.4,72.1,46.4z M95.5,67.2c-0.1,0.2,0,0.4,0,0.6c0,0.4-0.1,0.3-0.3,0.5c0,0,0-0.1,0-0.1c0,0,0,0,0-0.1l0-0.5
		c0-0.4,0-0.2-0.1-0.5c-0.1-0.3,0-0.3-0.1-0.6c-0.1-0.4-0.3-0.6-0.1-1c0.5-0.8,0.4-1,0.5-1.3c1.1,1.6,0.8,0.3,1.7,1.3l-0.3,1.1
		l-1.1-0.4C95.7,67.7,95.7,66.7,95.5,67.2z M97,61.8c0.8,2.1,2.8,0.1,2.5-1.2c0-0.5-0.1-0.8-0.6-1c0.5-0.3,0.7-0.2,1.1-0.4l1-0.4
		l0.9-0.1c0,0,0,0,0,0c-0.1,0.4-0.7,0.8-0.4,1.8c-0.2,3-1.3,2.6-2.9,3.3C95.1,64.5,96.9,61.9,97,61.8z M72.3,51
		c0.3-1.1,0.4-1.9,1.4-2.4c0.4-0.2,0.9-0.7,1.2-0.1c0.1,0.1,0,0.2,0.1,0.3c0,0.1,0.2,0.3,0.2,0.3c0.2,0.4,0,0.4,0,0.9
		c-0.6,0-0.8,0-1.2,0.3c-0.8,0.6-0.7,1.8-0.3,2.2c0.4,0.4,0.7,0.1,1.2-0.2c0,0.5,0,0.5-0.2,0.8c-0.3,0.3-0.1,0.3-0.3,0.6
		c-0.3,0.5-1.5,0.6-1.9-0.3C72,52.5,72.1,51.8,72.3,51z M74.5,69.1l-0.7-0.9c0.5-0.8-0.1-0.3,0.6-1c0.4-0.5-0.2-1.2,0.4-2.2l0.7-1.9
		c-0.3,0-0.2,0.1-0.7,0.5l-0.7,0.7c-0.3,0.4,0.2,0.9-0.3,1.4c-0.7,0.7,0.2,0.2-1,0.8c0-0.8,0.6-1.1,0.4-1.5c-0.3-0.3-0.4,0-0.6,0.2
		c-0.1,0.2,0.2,0.4-0.7,0.1c0-0.5,0-0.3,0.5-0.9l0.6-0.7c0-0.1-0.4-0.8-0.1-1.3l0.5-0.9c-0.2-0.2-0.2-0.1-1,0.2c0-0.2,0-0.4,0-0.5
		c0.1-0.4,0-0.1,0.2-0.4l0.7-1.3l0.5-0.2c0.1-0.2,0.1-0.1,0.2-0.3c0.3-0.2,0,0.1,0.1-0.4c0-0.2,0.1-0.1,0.5-0.3L74.7,59
		c0.1,0.1,0.1,0.1,0.3,0.2l0.1,0.1c-0.4,0.6-0.2,0.4-1.4,0.6l0,0.5c0.2,0,0.3-0.1,0.5-0.1c0.4-0.1,0.6,0,0.7,0
		c0.1-0.3,0.3-0.4,0.4-0.7c0.1-0.3,0.2-1.3,0.3-1.7c0.1-0.4,0.1-0.2,0.2-0.5c0.1-0.5-0.2-0.6-0.1-1.1l0.1-0.1l0,0.6
		c0.5-0.8,1-1.9,1.7-1.8c0.5,0,0,0,0.4,0.2c0.2,0.1,0.3,0,0.4,0.1l-0.1,1.5l0.4-0.1c-0.2,0.4-0.4,0.9-0.7,1.3
		c-0.2,0.3-0.5,1-0.6,1.4c0,0.4-0.3,0.8-0.4,1.2c-0.1,0.3-0.2,0.5-0.2,0.6c0,0,0.1,0,0.1,0c0.3-0.1,0.2,0,0.5-0.7
		c0.9-0.2,0.6-0.9,1.1-1.6l0.1-0.1c0.2-0.2,0,0,0.3-0.2c0,0.3,0,0.4-0.1,0.6l-0.1,0.1c-0.2,0.5,0.1,0.6,0.1,1.1
		c0,0.4-0.1,0.2-0.2,0.5c-0.1,0.4-0.2,1.5-0.3,1.7c-0.1,0.3-0.4,0.3-0.5,1c0.5,0.3,0.7-0.8,0.8-1.3l0-0.1c0,0,0,0,0,0.1l0.4,1.6
		c0.1,0.5,0,0-0.1,0.3l0.2,0.4c0.3-0.5-0.1-0.1,0.4-1.2c0.2-0.4,0.5-0.8,0.4-1.2c0.1-0.4,0.4-1.1,0.6-1.4c0.2-0.4,0.4-0.9,0.7-1.3
		c0-0.3,0.3-0.7,0.4-0.9c0.3-0.5,0.1-0.8,0.4-1.1l0.2,0.4c0.4-0.3,1.1-0.9,1.5-1l0.1,0.5l0.3-0.2l-0.1,0.6c0.7-0.8,0.8-1.3,1.6-1.1
		l0.1,0c0,0,0.1,0,0.1,0c0,0,0,0,0.1,0l-0.4,0.7c-0.3,0.4-0.3,0.1-0.4,0.8c-0.5,0.7,0.3,0.8,0.3,0.8l0.6,0.5
		c0.5-1.2,0.4-1.3,0.8-1.3c0.7,0,0.5,0.5,1.5,0.6c0.2,0,0.1-0.1,0.6,0.3c0.2-0.1,0.6-0.4,1.2-0.1l0.2,0.1c0.2-0.3,0.1,0,0.2-0.5
		l-1-0.6c0.1-0.2,0.2-0.2,0.3-0.5c0.1-0.2,0.2-0.4,0.3-0.6c0.1-0.2,0.2-0.4,0.3-0.6c0.3-0.7,0-0.4,0.3-0.5c0.1,0.4,0.1,0.4-0.1,0.8
		c-0.1,0.3-0.2,0.4-0.2,0.8c0.6-0.7,0.5-0.7,1-0.7c0.5,0,0.3,0,0.4,0c0,0.4,0,0.8-0.1,1.1c-0.1,0.3-0.3,0.5-0.4,0.7L91,59
		c0,0,0.1,0,0.1,0.1c0,0.4-0.3,0.6-0.6,1.4c0,0,0,0,0,0l0.7-1.1c0.2-0.3,0.3-0.2,0.5-0.6c0.1-0.2,0.2-0.4,0.3-0.6l0.6,0.3
		c-0.1,0.2-0.1,0-0.2,0.4c0,0,0,0.1,0,0.1c-0.1,0.2-0.2,0.4-0.1,0.6c-0.1,0.4-0.5,1.1-0.6,1.3c-0.7,1.6-0.7,1.2-1.2,2
		c0,0.1-0.1,0.1-0.1,0.2c-0.1,0.1-0.2,0.2-0.4,0.3c-0.4,0.3-0.7,0.5-1,0.9c-0.4,0.5-0.3,0.2-0.4,0.6c1.3-0.4,0.4-0.1,1.1-0.1
		c0.1,0,0.3,0,0.4,0c0.6-1.1,1.4-1.7,1.4-2.7l0.4,0.1c-0.4,1.3-0.4,1.1-1,2.3c-0.1,0.3-0.3,0.3-0.3,0.5c-0.1,0.3,0,0.4-0.1,0.7
		c-0.1,0.3-0.3,0.5,0.2,0.9c0,0,0.1,0.1,0.1,0.1l0.1,0.1c-0.2,0.6-0.3,0.8-0.6,1.4l0.3,0.2c0.4,0.2,0.5,0,0.7-0.3
		c0.1-0.2,0.2-0.2,0.3-0.4l0.1-0.1l-0.1,0l0.2-0.6c0.3-0.8,0-0.2,0.4-0.8l0.2-0.4l0.1,0.7c0.3-0.4,0.5-0.9,0.7-1l-0.5,1.4
		c0.5-0.1,0.5-0.6,0.6-0.8c0.5,0.6,0.2,0.3,0.3,0.8c0,0,0,0.1,0,0.1l0.1,0.2c0,0,0,0.1,0,0.1c0.2-0.2,0.2-0.2,0.2-0.3
		c0,0,0-0.3,0-0.3c0-0.3,0-0.5,0-0.8c0-0.3,0-0.3,0.1-0.6l0.2-0.3c0,0,0,0,0-0.1c0,0,0,0,0-0.1c0.3,0.7,0,0.7-0.1,1.2
		c0,0.4,0,1,0,1.4c0,0.7-0.2,0.6-0.2,1.3c0,0.6,0.3,0.5,0.1,1.2l-0.6-0.1l-0.2,1c0.9,0.1,0.2-0.2,0.9-0.2l-0.1,0.8l0.5-0.2l-0.3,0.6
		L94,71.5l-0.7,1.4c-0.2,0.3,0,0.2-0.3,0.3c-0.4,0.2-0.4,0.4-0.7,0.6c-0.8,0.5-0.7-0.1-1.2,0.1l-0.7,0.3c-0.4,0.2-0.4,0.3-0.7,0.6
		c-0.3,0.4-0.6,0.2-0.9,0.1c-0.3-0.1-0.8-0.1-1.2-0.1c-0.3,0.1-1.2,1.4-1.5,1.7C85.6,77,85.6,77,85,77.8c-0.2,0.2-0.2,0.3-0.4,0.3
		c0,0,0,0,0,0l-0.1,0.1c-0.6,0.4-0.3,0.3-0.9,0.8c-0.4,0.2-0.6,0.5-0.9,0.7c-0.5,0.5-0.3,0.4-0.4,1.2l-0.5-0.2
		c-0.4,0.6-0.2,0.3-0.5,0.6l0.4,0.5c-1,0.5-0.8,0.4-1.7,1.2c-0.5,0-0.9,0-1.4-0.3l0.6-4.3c0.1-0.4,0.1-0.9,0.2-1.2
		c0.3-0.3-0.2-1.8-0.2-1.8c0-0.2,0-0.2,0-0.4c0-0.3-0.1-0.4-0.4-0.6c0.2-0.4-0.3-0.9-0.5-1.1l-0.7-1.2c-0.7-1.1-1.4-2.1-2.3-3.2
		c0.1-0.3,0.1-0.7-0.3-0.7C74.6,68.4,74.6,68.8,74.5,69.1z M86.8,96.5c-0.1-0.2-0.1-0.4-0.3-0.5l-0.4-1c0,0-0.1,0-0.1,0
		c0,0,0,0-0.1,0l-0.2-0.1c0-0.6,0.1-0.6-0.2-1.2c-0.1-0.3-0.2-2.3-0.3-2.4c-0.1-0.3-0.1-0.1-0.2-0.5c0-0.2,0-0.5,0-0.7l-0.6-2.2
		c-0.2-0.6-0.2-0.9-0.7-2.1l-0.5,0c0.6,1.3,0.2,0.7,0.6,1.7c0.2,0.5,0.1,0.7,0.2,1c0.3,0.6,0.3,1,0.3,1.4c0,0.3,0.1,0.2,0.1,0.5
		c0,0.2,0,0.3,0.1,0.5c0.1,0.3,0.1,0,0.2,0.4c0.1,0.6-0.1,1.4,0.1,2l0,0.1c0.4,1.1,0.5,0.9,0.3,1.3c-0.3,0.5-0.1,1.8,0.1,2.3
		c0.2,0.4,0.2,1.4,0.3,2c0,0.1,0,0.3,0,0.4l-0.1,0.4c-0.3-0.2-0.1-0.2-0.2-0.6c-0.1-0.5-0.1-0.2-0.2-0.7l-0.2-1.4
		c-0.1,0.2,0,0.3-0.1,0.5c0,0.3-0.1,0.3-0.3,0.5c0-0.5,0-1.1,0-1.6c0-0.2,0-0.5,0-0.7c-0.1-0.3-0.2,0-0.2-0.5l0-3
		c-0.3,0.1-0.2,0.5-0.3,1c-0.1,0.5,0,0.9-0.1,1.3c-0.4,1.5,0.2,0.2-0.5,2.3l0-0.9c-0.1-0.5-0.1-0.7-0.1-1.3c0-0.7-0.2-0.6-0.2-1
		c-0.1-0.9,0.2-2.2-0.2-2.6c-0.2,0.4-0.1,0.3-0.2,0.6c-0.1,0.2-0.1,0.1-0.2,0.5c0,0.2,0,0.6,0,0.9l0,0c0,0,0,0,0.1,0
		c0,0,0.1,0,0.1,0.1l0.2,1l-0.3-0.1c0.2,0.6,0,0.6,0.1,1.2c0.1,0.4,0.1,0.2,0.2,0.5c0.1,0.4,0,0.9,0.1,1.3c0.1,0.3,0.1,0.2,0.2,0.5
		c0.1,0.6,0.1,2-0.1,2.5c-0.2,0.5,0.2,0.3-0.2,0.4l-0.1-0.6c-0.3-1.1,0-0.8-0.1-1.4c-0.1-0.4,0-0.1-0.1-0.3L82.3,98l0-1.5
		c0,0.1,0,0.2-0.1,0.2c-0.1,0.1,0,0-0.2,0.2c-0.3,0.3-0.4,0.5-0.3,1c0.1,0.4,0,0.5,0,0.9c0.2,2.4-0.5,1-0.5-0.3
		c0-0.2,0.1-0.3,0.1-0.5l-0.1-1.3c-0.3,0.2-0.2,0.6-0.3,0.9l-0.4,0.8c0,0,0-0.1-0.1-0.1l-0.1-0.2c-0.1-0.3,0.6-4.2,0.6-4.6
		c-0.3,0,0.1-0.1-0.2,0.2l-0.3,0.2c-0.3,0.3-0.4,2-0.4,2.4l-0.5,0.1c-0.4,1.8,0,2.2-0.1,2.9c0,0.3-0.1,0.3,0,0.6
		c0.1,0.9,0.1,2.8-0.4,3.5l-0.6,0.6c0,0.1-0.1-0.2,0,0l0,0c0,0,0-0.1,0-0.2c0,0,0,0,0-0.1l0-0.1c-0.1,0.1,0,0.1-0.1,0.2
		c-0.1,0.2,0,0.1-0.1,0.2c-0.2,0.2-1.1,0.2-1.5,0.2c0.1-0.8,0.3-1.6,0.4-2.4c0.1-0.5,0.4-1.9,0.3-2.4c-0.3,0.1,0-0.1-0.2,0.1
		C77,99.7,77,99.7,77,99.9c-0.1,0.4,0,0.7-0.2,1c-0.2,0.4-0.1,0.2-0.3,0.8c-0.2-0.2-0.1-0.1,0-0.5c0-0.5,0-0.2-0.1-0.6l0.6-4.2
		c-0.4,0,0-0.1-0.6,0.3l0.7-4c-0.3,0.1-0.1,0.1-0.4,0.6c-0.4,0.9-0.5,2.4-0.7,3.4l-0.2,1.3c-0.1-1.9,0-1.5-0.4-1.5l0.3-0.8l0.4-0.1
		l0.2-1.5c0.2-1.1,0.8-1.8,1.1-2.6c0.1-0.3,0.2-0.4,0.4-0.7c0.1,0.4,0,0.9-0.1,1.5l-0.4,1.3c0-0.2,0-0.6,0-0.8
		c-0.6,2.2-0.2,1.3-0.3,2.3c-0.1,0.5,0,0.6,0.1,0.9c0.2,0.5,0,0.5,0.1,0.9c0.1-0.9,0.2-2.5,0.4-3.3c0.2-0.8,0.6-0.6,0.8-0.5
		c-0.2,0.6-0.4,0.8-0.3,1.1l0.6-0.5c0.1,0.4-0.1,1.5-0.2,1.9c-0.2,0.4-0.7,0.6-0.5,1.1l0.6-0.3c0.1,0.3,0.1,0.2,0.1,0.5
		c-0.1,0.8,0,0.3,0,0.9c0,0.1,0,0.2,0,0.3l0.5,0.2l0.5-2.3c0.3-1.4-0.1-0.6,0.2-2.2l0.4,0L80,94.6c1.1-2,0.2-0.8,0.9-2.2
		c0.2-0.4,0.1-0.9,0.3-1.3c0.2-0.5,0.1-0.9,0.4-0.9l-0.5,2.9c0,0.5,0.1,0.2,0.1,0.6c0,0.2-0.1,0.5-0.1,0.7C81.1,95,81,95.5,81,96
		c0.2-0.2,0.3-0.2,0.4-0.4c0.1-0.2,0-0.3,0.2-0.5l-0.1,1.4c0,0.5,0.1,0.2,0.1,0.7c0,0.4-0.2,0.3,0.1,0.6l0.2-0.3c0-0.1,0-0.3,0-0.4
		c0-0.6,0.2-1.6,0.1-2c-0.1-0.5-0.1-1.5,0.1-2.1l0-1.7c0-0.2,0-0.4,0-0.5l0.1-2c0-0.4,0-0.7,0.1-1.1c0-0.4,0-0.7-0.1-1.2
		c-0.1-0.4,0.1-0.6,0-1.1c-0.2-1,0.1-0.4-0.3-1.8l0.5,0.1c0.2,1.3,0.2,1.6,0.3,2.2l0.2,2.2l0,0.1c0,1,0.2,0,0.2,1.5
		c0,0.3,0,0.4,0.1,0.6c0.2-0.3,0.1-1.4,0.1-1.8c0-0.6,0-1.2,0-1.9c0-0.3,0-0.6,0-0.9c0-0.6,0-0.4-0.1-0.8L83,82.9
		c0.2,0.1,0.1,0,0.2,0.1c0.2,0.2,0.2,0.8,0.1,1c-0.2,0.5-0.1,0.1,0,0.7c0.1,0.3,0,0.1,0.2,0.5c0.1-0.3,0-1.3,0-1.4l0.2-0.4
		c0.2,0.3,0.1,1.3,0.2,1.9c0.3-0.1,0,0,0.3-0.7l0.1,0.6c0.1,0.3,0,0.2,0.4,0.2l0,0.5c0.4,0.3,0.6,2.8,0.7,3.2c0.3,1,0.4,1.3,0.5,2.4
		c0,0.2,0,0,0,0.2c0.2,0.8-0.1,0.6,0.3,0.8c0,0.5,0.1,0.8,0.1,1.2l0.2,1c0.2,0.7,0.5,1.1,0.5,2.1L86.8,96.5z M102.1,85.5
		c-0.2-0.2-0.3-0.2-0.5-0.4c-0.3-0.2-0.6-0.6-0.9-0.9c-0.4-0.4-0.6-0.4-1-0.8c-0.2-0.2-0.2-0.4-0.4-0.5c-0.3-0.2-0.2,0-0.5-0.3
		l-0.2-0.8c-0.1-0.1-0.2-0.2-0.3-0.2l-0.1,0.3c-0.1,0.3,0,0.1,0,0.4l-0.6-0.7l-0.9-0.1c-0.4-0.1-0.7-0.3-1.3-0.3
		c0,0.4,0,0.6,0.3,0.9c0.3,0.2,0.2,0.3,0.6,0.5c0.3,0.1,0.5,0.2,0.7,0.4c0.2,0.2,0.1-0.2,0.2,0.3c0,0.2,0,0.3-0.1,0.4l-0.2-0.2
		c-0.1-0.1,0-0.2-0.3-0.2c-0.5,0.1,0.2,0.2-0.4,0.3c-0.2-0.5,0-0.5,0.1-0.8c-0.6-0.2-1-0.1-1.3-0.5c0-0.1-0.1-0.1-0.1-0.2L93.5,82
		l-0.3,0.6c-0.7-0.4-0.9-0.7-1.3-0.4c0,0.2,0.1,0.3,0.2,0.7c0.2,0.1,0.4,0.2,0.6,0.3c0.2,0.1,0.2,0.1,0.4,0.2l0.7,0.4
		c0.1,0.1,0.2,0.1,0.3,0.2l-0.1,0.5c0,0,0,0,0,0.1c0.2,0.1,0.4,0.3,0.6,0.4c-0.1-0.2-0.2-0.3-0.3-0.4c0.8,0,0.9,0.4,1.3,0.8
		c0.2,0.2,0.3,0.3,0.5,0.6c0.1,0.1,0.2,0.2,0.2,0.3c0.2,0.2,0,0.1,0.4,0.2l1,1.1c1.1,1.1,0.5,0.8,0.9,1.3c1.1,1.3,0.5,1-0.1,3
		c-0.3-0.1-0.3,0-0.6-0.3c-0.2-0.5-0.2-0.2-0.6-0.5c-1-1-0.8-0.6-1.1-0.9c-0.5-0.4-0.5-0.5-0.6-0.5c-0.1,0-0.2-0.1-0.3-0.1
		c0,0-0.1-0.1-0.1-0.1c-0.1,0-0.1-0.1-0.2-0.1c-0.2-0.1-0.3-0.3-0.4-0.4c-0.1,0-0.1-0.1-0.2-0.1c-0.3-0.2-0.3-0.1-0.6-0.4
		c0,0-0.1-0.1-0.1-0.1c-0.1-0.1-0.2-0.2-0.3-0.3c-0.2,0-0.5,0.2-1.2,0.6c-0.5-0.2-0.7-0.3-1-0.4c0.1,0.2,0.3,0.1,0.9,0.6
		c0.2,0.1,0.2,0.2,0.4,0.4l0.4,0.2c0,0,0,0,0.1,0c0.1,0.4,0.4,0.4,0.7,0.7c0.2,0.1,0.2,0.2,0.3,0.4c0.2,0.3,0.2,0.2,0.2,0.4
		c0.2,0.2,0.4,0.3,0.6,0.4l0.4,0.4c-0.9-0.2,0.1-0.2-1.3-0.7c0.2,0.6,0.1,0.3,0.2,0.5c0.1,0.1,0.1,0,0.1,0.1
		c0.2,0.2,0.4,0.3,0.6,0.4c0.2,0.3,0.1,0.3,0.2,0.6c0.3,0.6,0.1,0.5,0.1,0.5c0,0,0,0.1-0.2,0.1c-0.5,0.1-0.4-0.3-1.1-0.5l0,0
		c0.4,0.5,0,0.5,0.4,1l0.5,0.8c0.4,0.8,0.4,0,0.5,0.9c-0.4-0.3-1.3-0.8-1.5-1.2c-0.5-0.8-0.3-0.3-0.6-0.7l-0.5-0.6l-0.1,0
		c-0.2-0.2,0-0.1-0.2-0.2c-0.2-0.1-0.2,0-0.3-0.2c-0.1-0.5-0.9-0.6-1.3-0.8l-1.8-1.1c-0.6-0.3-0.5-0.2-1-0.7c0,0,0,0,0.1,0
		c-0.1-0.2-0.2-0.4-0.2-0.5c-0.1-0.1-0.2-0.1-0.3-0.2c-0.1,0-0.2-0.1-0.3-0.1l-0.3-0.2l0.1-0.7c0,0,0,0,0,0
		c-0.1-0.2-0.1-0.3-0.1-0.5c-0.1-0.8-0.6-2.3-0.7-2.8c-0.1-0.4-0.1-0.5-0.4-0.8c-0.4-0.6-0.1-0.5-0.6-0.5c-0.2,0.3-0.4,0.6-0.7,0.5
		c0-0.9-0.1-0.5-0.2-0.8c0,0,0,0.1-0.1,0.1c-0.2,0.3-0.2,0.8-0.2,0.8c0,0,0,0,0,0l0,0.3c0-0.2,0-0.5,0-0.6c-0.5,0-0.4,0.1-0.4-0.2
		l0.1,0c0.6-1.3,0.5-0.7,0.2-1.8c-0.2-0.7-0.4-0.7-0.4-1.4c0-0.5-0.1-0.3,0-0.6l0.1-0.1c0.4,0.7,0.4,0.8,0.8,0.8
		c0.2-0.7,0.2-0.3,0.7-0.6c0.3-0.2-0.1-0.1,0.4-0.3l1,0.6c0.7,0.3,0.5,0,0.4-0.5c1.5,0.6,1.7,0.5,1.9,1.3l0.3-0.1
		c0.2,0,1,0.2,1.3,0.3l0.1,0.1c0.6,0.4,0.1,0,0.9,0.3l0.4,0.1c0.7,0,0.4,0.1,1.1,0.2l0.2,0c0,0,0,0,0.1,0l0.4,0.2
		c-0.1-0.1-0.1-0.1-0.3-0.2c-0.9-0.4-0.3-0.3-0.8-0.6c-0.6-0.3-0.7-0.1-1.1-0.2c-0.3,0-0.2-0.1-0.5-0.1c-0.4,0-0.5,0-0.8-0.2
		l-0.2-0.1c0,0-0.1,0-0.1-0.1l0.3-0.3c0.5-0.2,0.5,0.2,0.9-0.2c-0.6-0.5-0.9-0.4-1.8-0.6c-0.1,0-0.2-0.1-0.3-0.1
		c-0.3-0.1-0.5,0-0.6-0.2l1.6-0.1c0.5,0,0.8-0.5,2.4,0l0.3,0.1c0.4,0.2,0.7,0,1.3,0.1l0-0.7l1.1,0.1c0.4,0,0.1,0,0.5,0.3
		c0.2,0.2,0.3,0.1,0.5,0.3c0.2,0.2-0.1,0,0.5,0.4l-0.3-1.2c0.4-0.1,0.7-0.1,1.1,0.1c0.2,0.1,0.3,0.1,0.5,0.2
		c0.1,0.1,0.4,0.2,0.5,0.2l0.5,0.3l0,0l0,0c-0.1-0.4-0.2-0.3-0.2-0.5c0-0.3,0.1-0.2,0.2-0.6c-0.6-0.5-0.5-0.3-1.5-0.4l0-0.5
		l-0.7-0.1c1.2-1,0.3-0.3,0.7-0.8c1.4,0.5,1.2,0.2,1.8,1.1c0.2,0.3,0.5,0.5,0.7,0.7c0.3,0.4-0.1,0.1,0.6,0.8
		c0.2,0.2,0.9,1.4,1.1,1.7c0.1,0.2,0.1,0.1,0.2,0.3c0.3,0.6,0.1,0.2,0.4,0.6c0.3,0.4,0.3,0.5,0.2,1.1l-1.2,0.2l-0.8-0.6
		c-0.3-0.3-1.2-0.8-1.5-1.2c0.2,0.2,0.3,0.4,0.4,0.5l0.4,0.2c0.5,0.3,1.1,0.8,1,1.4l0,0.1c0,0,0,0,0,0.1c-0.1,0.2-0.3,0.3-0.4,0.5
		l1.1,1.1l0.6,0.5c0.3,0.3,0.4,0.3,0.5,0.7C102.5,85.8,102.3,85.7,102.1,85.5z"/>
</g>
<path id="red_3_" class="st2" d="M42.4,83.2c3.1-3.9,5.1-5.5,9.4-7.8C55.1,60.6,63.7,52.1,70,44.5c0-0.1,1.5-2.2,2.5-3.2
	c0,0,0,0,0,0c-7.6,0.2-13.5,2.8-17.2,5.4C50.9,49.8,46,53.9,43.1,62c-0.8,2.2-1.4,4.2-1.7,6.2c-0.8,4.4-0.4,8.3,0.1,11.3
	C41.7,81.1,42.2,82.4,42.4,83.2C42.4,83.2,42.4,83.2,42.4,83.2z M102.7,61.6"/>
<path class="st0" d="M190.8,40.5c-0.9-2.5-2.5-4.6-4.9-6.2c-2.4-1.6-5.2-2.4-8.5-2.4c0,0-1,0-1.3,0c-0.8,0.1-1.8,0.2-3,0.5
	c-1.2,0.3-2.1,0.7-2.9,1.2c-2.2,1.6-3.7,3.7-4.6,6l-16.4,40.8l-9.4-12.7c3.3-1.2,6.1-2.6,8.4-4.1c2.3-1.5,4.1-3.4,5.7-5.7
	c1.3-2.2,1.9-4.5,1.9-6.8c0-4.9-2.4-9.2-7.3-12.8c-4.9-3.6-10.6-5.5-17.2-5.5h-17.6c-2.1,0.1-4.7,1.4-6.6,2.9
	c-1.8,1.5-3,3.2-3.5,5.2l0.7,8.4c0,0,0.5,1.1,1.3,2.2c1.8,2.5,3.7,6.5,4.4,8.6c0.6,1.8,1.1,3.4,1.6,5.9c0.2,0.9,0.5,3.3,0.5,3.8
	c0.4,4.4,0,8.7-0.6,11.7c0,0,0,0,0,0c-1.4,6.3-3.1,9.9-6.7,15.1l15.6,0V44.9h11.7c1.9,1.1,3.4,2.2,4.5,3.4c1.1,1.1,1.6,2.4,1.6,3.9
	c0,2.5-2,4.5-6,6c-1.9,0.6-3.8,1.2-5.7,1.7c-3.5,1.2-5.2,3.2-5.2,5.9c0,0.9,0.2,1.9,0.6,3L141,96.7h20.3l0-0.1l4.6-12.2h24.1
	l4.4,12.2l17.9-0.2L190.8,40.5z M170.2,72.6l7.9-27.8l7.1,27.8H170.2z"/>
<g>
	<path class="st3" d="M110,104.8c1.4,0,2.4,0.4,3.1,1.1c0.7,0.7,1.1,1.7,1.1,3c0,1.3-0.4,2.3-1.1,3c-0.7,0.7-1.8,1.1-3.1,1.1h-4.2
		v5.6H104v-13.7H110z M109.4,111.4c1,0,1.8-0.2,2.3-0.6c0.5-0.4,0.7-1.1,0.7-1.9c0-0.8-0.2-1.4-0.7-1.9c-0.5-0.4-1.2-0.6-2.3-0.6
		h-3.6v5H109.4z"/>
	<path class="st3" d="M115.9,111.6c0.2-0.6,0.5-1.2,0.9-1.7c0.4-0.5,0.9-0.8,1.5-1.1c0.6-0.3,1.3-0.4,2.1-0.4c0.8,0,1.5,0.1,2.1,0.4
		c0.6,0.3,1.1,0.6,1.5,1.1c0.4,0.5,0.7,1,0.9,1.7c0.2,0.6,0.3,1.3,0.3,2c0,0.7-0.1,1.4-0.3,2c-0.2,0.6-0.5,1.2-0.9,1.6
		c-0.4,0.5-0.9,0.8-1.5,1.1c-0.6,0.3-1.3,0.4-2.1,0.4c-0.8,0-1.5-0.1-2.1-0.4c-0.6-0.3-1.1-0.6-1.5-1.1c-0.4-0.5-0.7-1-0.9-1.6
		c-0.2-0.6-0.3-1.3-0.3-2C115.6,112.9,115.7,112.2,115.9,111.6z M117.6,115.2c0.2,0.5,0.4,0.9,0.7,1.2c0.3,0.3,0.6,0.6,1,0.7
		c0.4,0.2,0.8,0.3,1.2,0.3c0.4,0,0.8-0.1,1.2-0.3c0.4-0.2,0.7-0.4,1-0.7c0.3-0.3,0.5-0.7,0.7-1.2c0.2-0.5,0.2-1,0.2-1.6
		c0-0.6-0.1-1.1-0.2-1.6c-0.2-0.5-0.4-0.9-0.7-1.2c-0.3-0.3-0.6-0.6-1-0.7c-0.4-0.2-0.8-0.2-1.2-0.2c-0.4,0-0.8,0.1-1.2,0.2
		c-0.4,0.2-0.7,0.4-1,0.7c-0.3,0.3-0.5,0.7-0.7,1.2c-0.2,0.5-0.2,1-0.2,1.6C117.4,114.2,117.4,114.7,117.6,115.2z"/>
	<path class="st3" d="M135.3,118.6l-2-7.9h0l-2,7.9h-1.8l-3.2-9.9h1.8l2.2,8.1h0l2-8.1h1.8l2.1,8.1h0l2.2-8.1h1.7l-3.2,9.9H135.3z"
		/>
	<path class="st3" d="M148.8,117.9c-0.7,0.6-1.7,0.8-2.8,0.8c-0.8,0-1.5-0.1-2.1-0.4c-0.6-0.3-1.1-0.6-1.5-1.1
		c-0.4-0.5-0.7-1-0.9-1.7c-0.2-0.6-0.3-1.3-0.3-2.1c0-0.8,0.1-1.4,0.3-2.1c0.2-0.6,0.6-1.2,1-1.6c0.4-0.5,0.9-0.8,1.5-1.1
		c0.6-0.3,1.2-0.4,1.9-0.4c0.9,0,1.6,0.2,2.2,0.5c0.6,0.4,1,0.8,1.4,1.4c0.4,0.6,0.6,1.2,0.7,1.8c0.1,0.7,0.2,1.3,0.2,1.9h-7.4
		c0,0.4,0,0.8,0.2,1.2c0.1,0.4,0.3,0.7,0.6,1c0.3,0.3,0.6,0.5,1,0.7c0.4,0.2,0.9,0.3,1.4,0.3c0.7,0,1.3-0.2,1.7-0.5
		c0.4-0.3,0.7-0.8,0.9-1.5h1.6C150,116.5,149.5,117.4,148.8,117.9z M148.4,111.5c-0.1-0.3-0.3-0.6-0.6-0.9c-0.2-0.2-0.5-0.4-0.9-0.6
		c-0.3-0.1-0.7-0.2-1.1-0.2c-0.4,0-0.8,0.1-1.1,0.2c-0.3,0.1-0.6,0.3-0.9,0.6c-0.2,0.3-0.4,0.6-0.6,0.9c-0.1,0.3-0.2,0.7-0.2,1.1
		h5.7C148.6,112.3,148.5,111.9,148.4,111.5z"/>
	<path class="st3" d="M153.5,108.6v2.1h0c0.4-0.8,0.9-1.4,1.5-1.8c0.6-0.4,1.3-0.6,2.2-0.5v1.7c-0.7,0-1.2,0.1-1.7,0.3
		c-0.5,0.2-0.8,0.4-1.1,0.8c-0.3,0.3-0.5,0.8-0.6,1.3c-0.1,0.5-0.2,1.1-0.2,1.7v4.4H152v-9.9H153.5z"/>
	<path class="st3" d="M163.6,111.6c0.2-0.6,0.5-1.2,0.9-1.7c0.4-0.5,0.9-0.8,1.5-1.1c0.6-0.3,1.3-0.4,2.1-0.4c0.8,0,1.5,0.1,2.1,0.4
		c0.6,0.3,1.1,0.6,1.5,1.1c0.4,0.5,0.7,1,0.9,1.7c0.2,0.6,0.3,1.3,0.3,2c0,0.7-0.1,1.4-0.3,2c-0.2,0.6-0.5,1.2-0.9,1.6
		c-0.4,0.5-0.9,0.8-1.5,1.1c-0.6,0.3-1.3,0.4-2.1,0.4c-0.8,0-1.5-0.1-2.1-0.4c-0.6-0.3-1.1-0.6-1.5-1.1c-0.4-0.5-0.7-1-0.9-1.6
		c-0.2-0.6-0.3-1.3-0.3-2C163.3,112.9,163.4,112.2,163.6,111.6z M165.2,115.2c0.2,0.5,0.4,0.9,0.7,1.2c0.3,0.3,0.6,0.6,1,0.7
		c0.4,0.2,0.8,0.3,1.2,0.3s0.8-0.1,1.2-0.3c0.4-0.2,0.7-0.4,1-0.7c0.3-0.3,0.5-0.7,0.7-1.2c0.2-0.5,0.2-1,0.2-1.6
		c0-0.6-0.1-1.1-0.2-1.6c-0.2-0.5-0.4-0.9-0.7-1.2c-0.3-0.3-0.6-0.6-1-0.7c-0.4-0.2-0.8-0.2-1.2-0.2s-0.8,0.1-1.2,0.2
		c-0.4,0.2-0.7,0.4-1,0.7c-0.3,0.3-0.5,0.7-0.7,1.2c-0.2,0.5-0.2,1-0.2,1.6C165,114.2,165.1,114.7,165.2,115.2z"/>
	<path class="st3" d="M173.8,110.1v-1.4h1.7v-1.5c0-0.8,0.2-1.4,0.7-1.8c0.5-0.4,1.1-0.6,2-0.6c0.2,0,0.3,0,0.5,0
		c0.2,0,0.4,0.1,0.5,0.1v1.4c-0.1-0.1-0.3-0.1-0.5-0.1c-0.2,0-0.3,0-0.5,0c-0.4,0-0.7,0.1-0.9,0.2c-0.2,0.2-0.3,0.4-0.3,0.9v1.4h1.9
		v1.4h-1.9v8.5h-1.6v-8.5H173.8z"/>
	<path class="st3" d="M195.7,117.5c-0.9,0.9-2.3,1.3-4,1.3c-1.8,0-3.1-0.4-4.1-1.3c-1-0.8-1.5-2.2-1.5-4v-8.8h1.8v8.8
		c0,1.2,0.3,2.2,1,2.8c0.7,0.6,1.6,1,2.8,1c1.2,0,2.1-0.3,2.7-1c0.6-0.6,0.9-1.6,0.9-2.8v-8.8h1.8v8.8
		C197.1,115.4,196.6,116.7,195.7,117.5z"/>
	<path class="st3" d="M201.2,108.6v1.6h0c0.7-1.2,1.8-1.8,3.2-1.8c0.7,0,1.2,0.1,1.6,0.3c0.4,0.2,0.8,0.4,1.1,0.7
		c0.3,0.3,0.5,0.7,0.6,1.1c0.1,0.4,0.2,0.9,0.2,1.5v6.5h-1.6v-6.7c0-0.6-0.2-1.1-0.5-1.5c-0.4-0.4-0.9-0.5-1.5-0.5
		c-0.5,0-0.9,0.1-1.3,0.2c-0.4,0.2-0.7,0.4-0.9,0.7c-0.2,0.3-0.4,0.6-0.5,1c-0.1,0.4-0.2,0.8-0.2,1.2v5.6h-1.6v-9.9H201.2z"/>
	<path class="st3" d="M217.6,118.6v-1.3h0c-0.3,0.6-0.7,0.9-1.3,1.2c-0.6,0.2-1.2,0.4-1.9,0.4c-0.8,0-1.4-0.1-2-0.4
		c-0.6-0.3-1-0.7-1.4-1.1c-0.4-0.5-0.7-1-0.9-1.7c-0.2-0.6-0.3-1.3-0.3-2c0-0.7,0.1-1.4,0.3-2c0.2-0.6,0.5-1.2,0.8-1.6
		c0.4-0.5,0.9-0.8,1.4-1.1c0.6-0.3,1.2-0.4,2-0.4c0.3,0,0.5,0,0.8,0.1c0.3,0.1,0.6,0.1,0.9,0.3c0.3,0.1,0.6,0.3,0.8,0.5
		c0.3,0.2,0.5,0.4,0.7,0.7h0v-5.1h1.6v13.7H217.6z M211.8,115c0.1,0.4,0.3,0.8,0.6,1.2c0.2,0.3,0.6,0.6,1,0.8
		c0.4,0.2,0.8,0.3,1.4,0.3c0.6,0,1-0.1,1.4-0.3c0.4-0.2,0.7-0.5,0.9-0.9c0.2-0.4,0.4-0.8,0.5-1.2c0.1-0.4,0.2-0.9,0.2-1.4
		c0-0.5-0.1-1-0.2-1.4c-0.1-0.5-0.3-0.9-0.5-1.2c-0.2-0.3-0.6-0.6-1-0.8c-0.4-0.2-0.9-0.3-1.4-0.3c-0.6,0-1,0.1-1.4,0.3
		c-0.4,0.2-0.7,0.5-0.9,0.9c-0.2,0.4-0.4,0.8-0.5,1.2c-0.1,0.5-0.2,0.9-0.2,1.4C211.6,114.1,211.6,114.6,211.8,115z"/>
	<path class="st3" d="M228.8,117.9c-0.7,0.6-1.7,0.8-2.8,0.8c-0.8,0-1.5-0.1-2.1-0.4c-0.6-0.3-1.1-0.6-1.5-1.1
		c-0.4-0.5-0.7-1-0.9-1.7c-0.2-0.6-0.3-1.3-0.3-2.1c0-0.8,0.1-1.4,0.3-2.1c0.2-0.6,0.6-1.2,1-1.6c0.4-0.5,0.9-0.8,1.5-1.1
		c0.6-0.3,1.2-0.4,1.9-0.4c0.9,0,1.6,0.2,2.2,0.5c0.6,0.4,1,0.8,1.4,1.4c0.4,0.6,0.6,1.2,0.7,1.8c0.1,0.7,0.2,1.3,0.2,1.9H223
		c0,0.4,0,0.8,0.2,1.2c0.1,0.4,0.3,0.7,0.6,1c0.3,0.3,0.6,0.5,1,0.7c0.4,0.2,0.9,0.3,1.4,0.3c0.7,0,1.3-0.2,1.7-0.5
		c0.4-0.3,0.7-0.8,0.9-1.5h1.6C230,116.5,229.5,117.4,228.8,117.9z M228.4,111.5c-0.1-0.3-0.3-0.6-0.6-0.9c-0.2-0.2-0.5-0.4-0.9-0.6
		c-0.3-0.1-0.7-0.2-1.1-0.2c-0.4,0-0.8,0.1-1.1,0.2c-0.3,0.1-0.6,0.3-0.9,0.6c-0.2,0.3-0.4,0.6-0.6,0.9c-0.1,0.3-0.2,0.7-0.3,1.1
		h5.7C228.6,112.3,228.6,111.9,228.4,111.5z"/>
	<path class="st3" d="M233.6,108.6v2.1h0c0.4-0.8,0.9-1.4,1.5-1.8s1.3-0.6,2.2-0.5v1.7c-0.7,0-1.2,0.1-1.7,0.3
		c-0.5,0.2-0.8,0.4-1.1,0.8c-0.3,0.3-0.5,0.8-0.6,1.3c-0.1,0.5-0.2,1.1-0.2,1.7v4.4H232v-9.9H233.6z"/>
	<path class="st3" d="M239.7,116.3c0.2,0.2,0.4,0.4,0.6,0.6c0.2,0.1,0.5,0.3,0.8,0.3c0.3,0.1,0.6,0.1,1,0.1c0.3,0,0.5,0,0.8-0.1
		c0.3,0,0.5-0.1,0.8-0.2c0.2-0.1,0.4-0.3,0.6-0.5c0.2-0.2,0.2-0.5,0.2-0.8c0-0.4-0.2-0.7-0.5-1c-0.3-0.2-0.7-0.4-1.2-0.5
		c-0.5-0.1-1-0.3-1.6-0.4c-0.6-0.1-1.1-0.3-1.6-0.5c-0.5-0.2-0.9-0.5-1.2-0.8c-0.3-0.4-0.5-0.9-0.5-1.5c0-0.5,0.1-0.9,0.3-1.3
		c0.2-0.4,0.5-0.6,0.9-0.9c0.4-0.2,0.7-0.4,1.2-0.5c0.4-0.1,0.9-0.2,1.3-0.2c0.6,0,1.1,0,1.6,0.1c0.5,0.1,0.9,0.3,1.3,0.5
		c0.4,0.2,0.7,0.6,0.9,1c0.2,0.4,0.3,0.9,0.4,1.5h-1.6c0-0.3-0.1-0.6-0.3-0.8c-0.1-0.2-0.3-0.4-0.5-0.5c-0.2-0.1-0.5-0.2-0.7-0.3
		c-0.3-0.1-0.5-0.1-0.8-0.1c-0.2,0-0.5,0-0.7,0.1c-0.2,0-0.5,0.1-0.7,0.2c-0.2,0.1-0.4,0.2-0.5,0.4c-0.1,0.2-0.2,0.4-0.2,0.6
		c0,0.3,0.1,0.5,0.3,0.7c0.2,0.2,0.5,0.3,0.8,0.5c0.3,0.1,0.7,0.2,1,0.3c0.4,0.1,0.8,0.2,1.2,0.3c0.4,0.1,0.8,0.2,1.2,0.3
		c0.4,0.1,0.7,0.3,1,0.5c0.3,0.2,0.5,0.5,0.7,0.8c0.2,0.3,0.3,0.7,0.3,1.2c0,0.6-0.1,1.1-0.4,1.5c-0.3,0.4-0.6,0.7-1,1
		c-0.4,0.2-0.9,0.4-1.4,0.5c-0.5,0.1-1,0.1-1.5,0.1c-0.6,0-1.1-0.1-1.6-0.2c-0.5-0.1-0.9-0.3-1.3-0.6c-0.4-0.3-0.7-0.6-0.9-1
		c-0.2-0.4-0.4-1-0.4-1.6h1.6C239.5,115.8,239.6,116.1,239.7,116.3z"/>
	<path class="st3" d="M252.3,108.6v1.4h-2v6.2c0,0.2,0,0.3,0,0.5c0,0.1,0.1,0.2,0.2,0.3c0.1,0.1,0.2,0.1,0.4,0.1c0.2,0,0.4,0,0.6,0
		h0.7v1.4h-1.2c-0.4,0-0.8,0-1.1-0.1c-0.3-0.1-0.5-0.2-0.7-0.3c-0.2-0.2-0.3-0.4-0.4-0.7c-0.1-0.3-0.1-0.7-0.1-1.1v-6.3H247v-1.4
		h1.7v-3h1.6v3H252.3z"/>
	<path class="st3" d="M261.8,118.8c-0.4,0-0.8-0.1-1-0.4c-0.2-0.2-0.4-0.6-0.4-1.2c-0.4,0.5-1,0.9-1.6,1.2c-0.6,0.2-1.2,0.4-1.9,0.4
		c-0.4,0-0.9,0-1.3-0.1c-0.4-0.1-0.7-0.3-1-0.5c-0.3-0.2-0.5-0.5-0.7-0.9c-0.2-0.4-0.3-0.8-0.3-1.3c0-0.6,0.1-1,0.3-1.4
		c0.2-0.4,0.4-0.6,0.8-0.9c0.3-0.2,0.7-0.4,1.1-0.5c0.4-0.1,0.8-0.2,1.2-0.3c0.4-0.1,0.9-0.2,1.3-0.2c0.4,0,0.8-0.1,1.1-0.2
		c0.3-0.1,0.6-0.2,0.7-0.4c0.2-0.2,0.3-0.4,0.3-0.7c0-0.4-0.1-0.6-0.2-0.9c-0.1-0.2-0.3-0.4-0.5-0.5c-0.2-0.1-0.4-0.2-0.7-0.2
		c-0.3,0-0.5-0.1-0.8-0.1c-0.7,0-1.3,0.1-1.7,0.4c-0.5,0.3-0.7,0.8-0.7,1.5H254c0-0.6,0.2-1.1,0.4-1.6c0.2-0.4,0.5-0.8,0.9-1
		c0.4-0.3,0.8-0.5,1.3-0.6c0.5-0.1,1-0.2,1.6-0.2c0.4,0,0.9,0,1.3,0.1c0.4,0.1,0.8,0.2,1.2,0.4c0.4,0.2,0.6,0.5,0.9,0.8
		c0.2,0.4,0.3,0.8,0.3,1.4v5.1c0,0.4,0,0.7,0.1,0.8c0,0.2,0.2,0.3,0.5,0.3c0.1,0,0.3,0,0.5-0.1v1.3
		C262.6,118.7,262.3,118.8,261.8,118.8z M259.5,113.8c-0.3,0.1-0.7,0.1-1,0.2c-0.4,0-0.7,0.1-1.1,0.2c-0.4,0.1-0.7,0.2-1,0.3
		c-0.3,0.1-0.5,0.3-0.7,0.5c-0.2,0.2-0.3,0.6-0.3,1c0,0.3,0.1,0.5,0.2,0.7c0.1,0.2,0.3,0.3,0.4,0.5c0.2,0.1,0.4,0.2,0.6,0.2
		c0.2,0.1,0.5,0.1,0.7,0.1c0.5,0,1-0.1,1.4-0.2c0.4-0.1,0.7-0.3,0.9-0.6c0.2-0.2,0.4-0.5,0.5-0.7c0.1-0.3,0.2-0.5,0.2-0.7v-1.7
		C260.1,113.6,259.8,113.7,259.5,113.8z"/>
	<path class="st3" d="M266,108.6v1.6h0c0.7-1.2,1.8-1.8,3.2-1.8c0.7,0,1.2,0.1,1.6,0.3c0.4,0.2,0.8,0.4,1.1,0.7
		c0.3,0.3,0.5,0.7,0.6,1.1c0.1,0.4,0.2,0.9,0.2,1.5v6.5H271v-6.7c0-0.6-0.2-1.1-0.5-1.5c-0.4-0.4-0.9-0.5-1.5-0.5
		c-0.5,0-0.9,0.1-1.3,0.2s-0.7,0.4-0.9,0.7c-0.2,0.3-0.4,0.6-0.5,1c-0.1,0.4-0.2,0.8-0.2,1.2v5.6h-1.6v-9.9H266z"/>
	<path class="st3" d="M282.4,118.6v-1.3h0c-0.3,0.6-0.7,0.9-1.3,1.2c-0.6,0.2-1.2,0.4-1.9,0.4c-0.8,0-1.4-0.1-2-0.4
		c-0.6-0.3-1-0.7-1.4-1.1c-0.4-0.5-0.7-1-0.9-1.7c-0.2-0.6-0.3-1.3-0.3-2c0-0.7,0.1-1.4,0.3-2c0.2-0.6,0.5-1.2,0.8-1.6
		c0.4-0.5,0.9-0.8,1.4-1.1c0.6-0.3,1.2-0.4,2-0.4c0.3,0,0.5,0,0.8,0.1c0.3,0.1,0.6,0.1,0.9,0.3c0.3,0.1,0.6,0.3,0.8,0.5
		c0.3,0.2,0.5,0.4,0.7,0.7h0v-5.1h1.6v13.7H282.4z M276.5,115c0.1,0.4,0.3,0.8,0.6,1.2c0.2,0.3,0.6,0.6,1,0.8
		c0.4,0.2,0.8,0.3,1.4,0.3c0.6,0,1-0.1,1.4-0.3c0.4-0.2,0.7-0.5,0.9-0.9c0.2-0.4,0.4-0.8,0.5-1.2c0.1-0.4,0.2-0.9,0.2-1.4
		c0-0.5-0.1-1-0.2-1.4c-0.1-0.5-0.3-0.9-0.5-1.2c-0.2-0.3-0.6-0.6-1-0.8c-0.4-0.2-0.9-0.3-1.4-0.3c-0.6,0-1,0.1-1.4,0.3
		c-0.4,0.2-0.7,0.5-0.9,0.9c-0.2,0.4-0.4,0.8-0.5,1.2c-0.1,0.5-0.2,0.9-0.2,1.4C276.3,114.1,276.4,114.6,276.5,115z"/>
	<path class="st3" d="M286.6,106.8v-2h1.6v2H286.6z M288.2,108.6v9.9h-1.6v-9.9H288.2z"/>
	<path class="st3" d="M292.3,108.6v1.6h0c0.7-1.2,1.8-1.8,3.2-1.8c0.7,0,1.2,0.1,1.6,0.3c0.4,0.2,0.8,0.4,1.1,0.7
		c0.3,0.3,0.5,0.7,0.6,1.1c0.1,0.4,0.2,0.9,0.2,1.5v6.5h-1.6v-6.7c0-0.6-0.2-1.1-0.5-1.5c-0.4-0.4-0.9-0.5-1.5-0.5
		c-0.5,0-0.9,0.1-1.3,0.2c-0.4,0.2-0.7,0.4-0.9,0.7c-0.2,0.3-0.4,0.6-0.5,1c-0.1,0.4-0.2,0.8-0.2,1.2v5.6h-1.6v-9.9H292.3z"/>
	<path class="st3" d="M308.9,121.4c-0.7,0.8-1.9,1.2-3.5,1.2c-0.5,0-0.9-0.1-1.4-0.2c-0.5-0.1-0.9-0.3-1.3-0.5
		c-0.4-0.2-0.7-0.5-1-0.9c-0.3-0.4-0.4-0.8-0.4-1.4h1.6c0,0.3,0.1,0.5,0.3,0.7c0.2,0.2,0.4,0.4,0.6,0.5c0.2,0.1,0.5,0.2,0.8,0.3
		c0.3,0.1,0.6,0.1,0.8,0.1c0.5,0,1-0.1,1.4-0.3c0.4-0.2,0.7-0.4,0.9-0.8c0.2-0.3,0.4-0.7,0.5-1.2c0.1-0.5,0.2-1,0.2-1.5v-0.7h0
		c-0.3,0.6-0.7,1.1-1.3,1.4c-0.6,0.3-1.2,0.4-1.8,0.4c-0.7,0-1.4-0.1-1.9-0.4c-0.6-0.3-1-0.6-1.4-1.1c-0.4-0.5-0.6-1-0.8-1.6
		c-0.2-0.6-0.3-1.3-0.3-1.9c0-0.6,0.1-1.2,0.2-1.8c0.2-0.6,0.4-1.2,0.8-1.7c0.4-0.5,0.8-0.9,1.4-1.2c0.6-0.3,1.3-0.5,2.2-0.5
		c0.6,0,1.2,0.1,1.7,0.4c0.5,0.3,0.9,0.7,1.2,1.2h0v-1.4h1.5v9.1C310,119.3,309.6,120.6,308.9,121.4z M306.8,116.9
		c0.4-0.2,0.7-0.5,0.9-0.9c0.2-0.4,0.4-0.8,0.5-1.2c0.1-0.5,0.2-0.9,0.2-1.4c0-0.4-0.1-0.9-0.2-1.3c-0.1-0.4-0.3-0.8-0.5-1.1
		c-0.2-0.3-0.5-0.6-0.9-0.8c-0.4-0.2-0.8-0.3-1.3-0.3c-0.5,0-1,0.1-1.3,0.3c-0.4,0.2-0.7,0.5-0.9,0.8c-0.2,0.3-0.4,0.7-0.5,1.2
		c-0.1,0.4-0.2,0.9-0.2,1.4c0,0.4,0,0.9,0.1,1.3c0.1,0.4,0.2,0.9,0.5,1.2c0.2,0.4,0.5,0.7,0.9,0.9c0.4,0.2,0.8,0.3,1.3,0.3
		S306.4,117.1,306.8,116.9z"/>
</g>
</svg>
