<?xml version="1.0" encoding="utf-8"?>
<!-- Generator: Adobe Illustrator 19.0.0, SVG Export Plug-In . SVG Version: 6.00 Build 0)  -->
<svg version="1.1" id="Layer_1" xmlns="http://www.w3.org/2000/svg" xmlns:xlink="http://www.w3.org/1999/xlink" x="0px" y="0px"
	 viewBox="0 0 439.1 245.8" style="enable-background:new 0 0 439.1 245.8;" xml:space="preserve">
<style type="text/css">
	.st0{clip-path:url(#SVGID_4_);}
	.st1{fill:#010101;}
	.st2{fill-rule:evenodd;clip-rule:evenodd;fill:#FFFFFF;}
	.st3{fill-rule:evenodd;clip-rule:evenodd;fill:#010101;}
	.st4{fill:#FFFFFF;}
	.st5{fill:#991B1E;}
</style>
<g id="XMLID_47_">
	<g id="XMLID_25_">
		<defs>
			<rect id="SVGID_1_" x="-23.7" y="-32" width="484.3" height="307.8"/>
		</defs>
		<clipPath id="SVGID_2_">
			<use xlink:href="#SVGID_1_"  style="overflow:visible;"/>
		</clipPath>
	</g>
	<g id="XMLID_19_">
		<defs>
			<rect id="SVGID_3_" x="-23.7" y="-32" width="484.3" height="307.8"/>
		</defs>
		<clipPath id="SVGID_4_">
			<use xlink:href="#SVGID_3_"  style="overflow:visible;"/>
		</clipPath>
		<g id="XMLID_24_" class="st0">
			<path class="st1" d="M248.2,101l-4,10.3c-0.4,0.5-0.9,0.9-1.5,1.2c-0.7,0.3-1.4,0.4-2.1,0.4c-0.9,0-1.7-0.2-2.5-0.7
				c-0.3-0.2-0.5-0.5-0.7-0.7c-0.2-0.3-0.4-0.6-0.5-0.9l-6.8-18.4h5.9l4.8,14.5l4.9-14.5h7.7c0.7,0.1,1.2,0.3,1.5,0.9l7.4,13.2h0.3
				V92.4h5v18.1c-0.3,0.8-0.8,1.4-1.4,1.9c-0.5,0.4-1.3,0.6-2.3,0.6c-0.7,0-1.3-0.1-1.8-0.3c-0.5-0.2-1.4-0.8-1.5-1l-7.2-13h-0.3
				v14.1h-4.9V101z"/>
		</g>
		<g id="XMLID_21_" class="st0">
			<path class="st1" d="M221.1,105.1l2.5-8.9l2.3,8.9H221.1z M227.7,94.9c-0.3-0.8-0.8-1.5-1.6-2c-0.8-0.5-1.7-0.8-2.7-0.8
				c0,0-0.3,0-0.4,0c-0.3,0-0.6,0-1,0.2c-0.4,0.1-0.7,0.2-0.9,0.4c-0.7,0.5-1.2,1.2-1.5,1.9l-5.2,13l-3-4c1.1-0.4,2-0.8,2.7-1.3
				c0.7-0.5,1.3-1.1,1.8-1.8c0.4-0.7,0.6-1.4,0.6-2.2c0-1.6-0.8-2.9-2.3-4.1c-1.6-1.2-3.4-1.7-5.5-1.7H203c-0.7,0-1.5,0.4-2.1,0.9
				c-0.6,0.5-1,1-1.1,1.7l0,2.7l0,15v0h5.4V96.3h3.7c0.6,0.4,1.1,0.7,1.4,1.1c0.3,0.4,0.5,0.8,0.5,1.2c0,0.8-0.6,1.4-1.9,1.9
				c-0.6,0.2-1.2,0.4-1.8,0.6c-1.1,0.4-1.7,1-1.7,1.9c0,0.3,0.1,0.6,0.2,1l6.1,8.9h6.5l0,0l1.5-3.9h7.7l1.4,3.9l5.7-0.1L227.7,94.9z
				"/>
		</g>
	</g>
	<g id="XMLID_18_">
		<path id="XMLID_32_" d="M205.4,127.9v3.9h0.1c2-3,4.8-4.5,8.6-4.5c1.6,0,3.1,0.3,4.5,1s2.3,1.9,2.8,3.5c0.9-1.4,2.1-2.6,3.5-3.3
			c1.5-0.8,3.1-1.2,4.8-1.2c1.3,0,2.5,0.1,3.6,0.4c1.1,0.3,2,0.7,2.8,1.4c0.8,0.6,1.4,1.4,1.8,2.4s0.6,2.2,0.6,3.5v19.5h-4.4V137
			c0-0.8-0.1-1.6-0.2-2.3c-0.1-0.7-0.4-1.3-0.8-1.9c-0.4-0.5-0.9-1-1.6-1.3c-0.7-0.3-1.5-0.5-2.6-0.5c-2.2,0-3.9,0.6-5.1,1.9
			c-1.2,1.2-1.9,2.9-1.9,4.9v16.6h-4.4V137c0-0.9-0.1-1.6-0.2-2.4s-0.4-1.3-0.8-1.9c-0.4-0.5-0.9-0.9-1.5-1.2
			c-0.6-0.3-1.4-0.4-2.4-0.4c-1.3,0-2.4,0.3-3.3,0.8c-0.9,0.5-1.6,1.1-2.2,1.9s-1,1.5-1.2,2.2c-0.3,0.8-0.4,1.4-0.4,1.9v16.6h-4.4
			v-26.6H205.4z"/>
		<path id="XMLID_34_" d="M268.7,154.4c-0.8,0.4-1.8,0.7-3.1,0.7c-1.1,0-2-0.3-2.7-1s-1-1.7-1-3.1c-1.2,1.4-2.6,2.5-4.2,3.1
			c-1.6,0.6-3.3,1-5.2,1c-1.2,0-2.3-0.1-3.4-0.4c-1.1-0.3-2-0.7-2.8-1.3c-0.8-0.6-1.4-1.3-1.9-2.3c-0.5-0.9-0.7-2.1-0.7-3.4
			c0-1.5,0.3-2.7,0.8-3.7c0.5-1,1.2-1.7,2-2.3c0.8-0.6,1.8-1.1,2.9-1.4c1.1-0.3,2.2-0.6,3.3-0.8c1.2-0.2,2.3-0.4,3.4-0.5
			c1.1-0.1,2-0.3,2.9-0.5c0.8-0.2,1.5-0.5,2-1c0.5-0.4,0.7-1.1,0.7-1.9c0-1-0.2-1.7-0.5-2.3c-0.4-0.6-0.8-1-1.4-1.3
			c-0.6-0.3-1.2-0.5-1.9-0.6c-0.7-0.1-1.4-0.2-2.1-0.2c-1.9,0-3.4,0.4-4.6,1.1c-1.2,0.7-1.9,2-2,4h-4.4c0.1-1.6,0.4-3,1-4.2
			c0.6-1.1,1.4-2,2.5-2.8c1-0.7,2.2-1.2,3.5-1.5c1.3-0.3,2.7-0.5,4.2-0.5c1.2,0,2.4,0.1,3.6,0.3s2.3,0.5,3.2,1.1
			c1,0.5,1.7,1.3,2.3,2.2c0.6,1,0.9,2.2,0.9,3.7v13.6c0,1,0.1,1.8,0.2,2.3c0.1,0.5,0.5,0.7,1.2,0.7c0.4,0,0.8-0.1,1.3-0.2V154.4z
			 M261.6,140.7c-0.5,0.4-1.3,0.7-2.2,0.9c-0.9,0.2-1.8,0.3-2.8,0.5s-2,0.3-3,0.4c-1,0.2-1.9,0.4-2.7,0.7c-0.8,0.3-1.4,0.8-1.9,1.5
			c-0.5,0.6-0.7,1.5-0.7,2.6c0,0.7,0.1,1.3,0.4,1.8c0.3,0.5,0.7,0.9,1.1,1.2s1,0.5,1.6,0.7s1.3,0.2,2,0.2c1.4,0,2.7-0.2,3.7-0.6
			c1-0.4,1.9-0.9,2.5-1.5c0.7-0.6,1.1-1.2,1.4-1.9c0.3-0.7,0.5-1.4,0.5-2V140.7z"/>
		<path id="XMLID_37_" d="M276.9,127.9v4.2h0.1c1.8-3.2,4.7-4.8,8.6-4.8c1.7,0,3.2,0.2,4.4,0.7c1.2,0.5,2.1,1.1,2.8,2
			s1.2,1.9,1.5,3.1c0.3,1.2,0.4,2.5,0.4,3.9v17.5h-4.4v-18c0-1.6-0.5-2.9-1.4-3.9c-1-1-2.3-1.4-4-1.4c-1.3,0-2.5,0.2-3.5,0.6
			c-1,0.4-1.8,1-2.4,1.7c-0.7,0.8-1.1,1.6-1.5,2.6c-0.3,1-0.5,2.1-0.5,3.3v15h-4.4v-26.6H276.9z"/>
		<path id="XMLID_39_" d="M324.9,154.4c-0.8,0.4-1.8,0.7-3.1,0.7c-1.1,0-2-0.3-2.7-1s-1-1.7-1-3.1c-1.2,1.4-2.6,2.5-4.2,3.1
			c-1.6,0.6-3.3,1-5.2,1c-1.2,0-2.3-0.1-3.4-0.4c-1.1-0.3-2-0.7-2.8-1.3c-0.8-0.6-1.4-1.3-1.9-2.3c-0.5-0.9-0.7-2.1-0.7-3.4
			c0-1.5,0.3-2.7,0.8-3.7c0.5-1,1.2-1.7,2-2.3c0.8-0.6,1.8-1.1,2.9-1.4c1.1-0.3,2.2-0.6,3.3-0.8c1.2-0.2,2.3-0.4,3.4-0.5
			c1.1-0.1,2-0.3,2.9-0.5c0.8-0.2,1.5-0.5,2-1c0.5-0.4,0.7-1.1,0.7-1.9c0-1-0.2-1.7-0.5-2.3c-0.4-0.6-0.8-1-1.4-1.3
			c-0.6-0.3-1.2-0.5-1.9-0.6c-0.7-0.1-1.4-0.2-2.1-0.2c-1.9,0-3.4,0.4-4.6,1.1c-1.2,0.7-1.9,2-2,4h-4.4c0.1-1.6,0.4-3,1-4.2
			c0.6-1.1,1.4-2,2.5-2.8c1-0.7,2.2-1.2,3.5-1.5c1.3-0.3,2.7-0.5,4.2-0.5c1.2,0,2.4,0.1,3.6,0.3s2.3,0.5,3.2,1.1
			c1,0.5,1.7,1.3,2.3,2.2c0.6,1,0.9,2.2,0.9,3.7v13.6c0,1,0.1,1.8,0.2,2.3c0.1,0.5,0.5,0.7,1.2,0.7c0.4,0,0.8-0.1,1.3-0.2V154.4z
			 M317.8,140.7c-0.5,0.4-1.3,0.7-2.2,0.9c-0.9,0.2-1.8,0.3-2.8,0.5s-2,0.3-3,0.4c-1,0.2-1.9,0.4-2.7,0.7c-0.8,0.3-1.4,0.8-1.9,1.5
			c-0.5,0.6-0.7,1.5-0.7,2.6c0,0.7,0.1,1.3,0.4,1.8c0.3,0.5,0.7,0.9,1.1,1.2s1,0.5,1.6,0.7s1.3,0.2,2,0.2c1.4,0,2.7-0.2,3.7-0.6
			c1-0.4,1.9-0.9,2.5-1.5c0.7-0.6,1.1-1.2,1.4-1.9c0.3-0.7,0.5-1.4,0.5-2V140.7z"/>
		<path id="XMLID_42_" d="M348.9,162c-2,2.2-5.1,3.2-9.4,3.2c-1.2,0-2.5-0.1-3.8-0.4c-1.3-0.3-2.5-0.7-3.5-1.3
			c-1-0.6-1.9-1.4-2.6-2.4c-0.7-1-1.1-2.2-1.1-3.7h4.4c0,0.8,0.3,1.5,0.7,2c0.5,0.5,1,1,1.7,1.3c0.7,0.3,1.4,0.6,2.2,0.7
			c0.8,0.2,1.5,0.2,2.3,0.2c1.4,0,2.7-0.2,3.6-0.7c1-0.5,1.8-1.2,2.5-2.1c0.7-0.9,1.1-1.9,1.4-3.2s0.4-2.6,0.4-4.1v-1.7h-0.1
			c-0.8,1.6-1.9,2.9-3.4,3.6c-1.5,0.8-3.1,1.2-4.9,1.2c-2,0-3.7-0.4-5.2-1.1c-1.5-0.7-2.7-1.7-3.7-2.9c-1-1.2-1.7-2.6-2.2-4.3
			s-0.7-3.3-0.7-5.2c0-1.6,0.2-3.2,0.6-4.9s1.1-3.2,2.1-4.5c1-1.4,2.2-2.5,3.8-3.3s3.5-1.3,5.8-1.3c1.7,0,3.2,0.4,4.6,1.1
			s2.5,1.8,3.3,3.3h0.1v-3.8h4.1v24.3C351.9,156.5,350.9,159.8,348.9,162z M343.3,150c1-0.6,1.8-1.4,2.4-2.4c0.6-1,1.1-2.1,1.4-3.3
			c0.3-1.2,0.4-2.5,0.4-3.7c0-1.2-0.1-2.3-0.4-3.4c-0.3-1.1-0.7-2.2-1.3-3.1c-0.6-0.9-1.4-1.6-2.3-2.2c-1-0.5-2.1-0.8-3.5-0.8
			c-1.4,0-2.6,0.3-3.6,0.8c-1,0.5-1.8,1.2-2.4,2.1c-0.6,0.9-1.1,1.9-1.4,3.1c-0.3,1.2-0.4,2.4-0.4,3.6c0,1.2,0.1,2.4,0.4,3.6
			c0.2,1.2,0.7,2.3,1.2,3.3s1.4,1.8,2.3,2.4c1,0.6,2.2,0.9,3.6,0.9S342.3,150.6,343.3,150z"/>
		<path id="XMLID_45_" d="M377.3,152.8c-2,1.5-4.5,2.3-7.5,2.3c-2.1,0-4-0.3-5.5-1c-1.6-0.7-2.9-1.6-3.9-2.9
			c-1.1-1.2-1.9-2.7-2.4-4.4c-0.5-1.7-0.8-3.6-0.9-5.6c0-2,0.3-3.9,0.9-5.6c0.6-1.7,1.5-3.1,2.6-4.4c1.1-1.2,2.4-2.2,4-2.9
			c1.5-0.7,3.2-1,5-1c2.4,0,4.3,0.5,5.9,1.5s2.8,2.2,3.8,3.7c0.9,1.5,1.6,3.2,2,4.9c0.4,1.8,0.5,3.5,0.4,5.1h-19.9
			c0,1.2,0.1,2.3,0.4,3.3c0.3,1,0.8,2,1.5,2.8c0.7,0.8,1.6,1.4,2.6,1.9c1.1,0.5,2.3,0.7,3.8,0.7c1.9,0,3.4-0.4,4.5-1.3
			s2-2.2,2.3-3.9h4.3C380.5,149,379.2,151.3,377.3,152.8z M376.2,135.7c-0.4-0.9-0.9-1.7-1.6-2.4c-0.7-0.7-1.5-1.2-2.4-1.6
			c-0.9-0.4-1.9-0.6-3-0.6c-1.1,0-2.2,0.2-3.1,0.6c-0.9,0.4-1.7,0.9-2.3,1.6c-0.7,0.7-1.2,1.5-1.5,2.4c-0.4,0.9-0.6,1.9-0.7,2.9
			h15.3C376.8,137.6,376.6,136.6,376.2,135.7z"/>
	</g>
</g>
<g id="XMLID_16_">
	<circle class="st2" cx="122.7" cy="120.6" r="60.9"/>
</g>
<g id="XMLID_12_">
	<g id="XMLID_13_">
		<path class="st1" d="M145.9,151.9H95.5c-3.4,0-6.2-2.8-6.2-6.2V95.4c0-3.4,2.8-6.2,6.2-6.2h50.4c3.4,0,6.2,2.8,6.2,6.2v50.4
			C152,149.2,149.2,151.9,145.9,151.9z M96.3,144.9H145V96.2H96.3V144.9z"/>
	</g>
</g>
<g id="XMLID_7_">
	<g id="XMLID_11_">
		<path class="st3" d="M104.2,110.2c3.3-3.2,6.7,3.7,8.6,6.5c2.4,3.4,4.1,6.3,5.5,8.6c7.7-11.3,16.6-22.2,26.1-32.6
			c3-3.3,6.6-7.1,10.1-9.3c0.7-0.5,3.3-0.8,3.6,1.7c0.3,2.5-3.8,5-5,6.2c-11.4,11.4-20.3,24.1-29,38.6c-0.8,1.4-2.8,5.6-5.3,5.7
			c-3.9,0.2-7.2-9.1-8.6-11.7c-1.2-2.3-2.5-4.4-3.6-6.5C105.4,115.3,103.5,113.1,104.2,110.2z"/>
	</g>
	<g id="XMLID_8_">
		<path class="st4" d="M118.7,138.6c-5,0-8-6.5-10.2-11.3c-0.4-0.8-0.7-1.6-1-2c-0.7-1.2-1.3-2.4-1.9-3.5c-0.6-1-1.1-2-1.7-3
			c-0.2-0.3-0.4-0.7-0.6-1.1c-1.2-2-2.9-4.7-2.1-8.3l0.2-0.9l0.6-0.6c1.4-1.4,2.9-1.7,3.9-1.7c3.9,0,6.5,4.2,8.5,7.3
			c0.3,0.5,0.6,0.9,0.8,1.3c1.2,1.8,2.3,3.4,3.2,4.9c6.8-9.5,14.7-19.3,23.8-29.1c2.9-3.1,6.8-7.4,10.7-9.8c0.8-0.5,1.9-0.8,3-0.8
			c2.8,0,4.9,1.9,5.2,4.7c0.4,3.6-2.8,6.2-4.9,7.9c-0.4,0.3-0.8,0.6-1,0.8c-10,10-18.8,21.7-28.5,38c-0.1,0.2-0.2,0.4-0.4,0.6
			c-1.3,2.4-3.6,6.4-7.4,6.6L118.7,138.6z M111.6,120.3c0.4,0.7,0.8,1.4,1.2,2.1c0.3,0.6,0.7,1.4,1.2,2.4c2.1,4.6,3.7,7.2,4.7,7.7
			c0.5-0.4,1.3-1.5,2.4-3.4c0.2-0.3,0.3-0.6,0.4-0.8c3.9-6.5,7.7-12.4,11.4-17.7c-4.4,5.5-8.5,11-12.1,16.3l-2.6,3.8l-3-4.9
			C114.1,124.2,113,122.4,111.6,120.3z"/>
	</g>
</g>
<g id="XMLID_1_">
	<g id="XMLID_6_">
		<path class="st3" d="M104.1,110.4c3.3-3.2,6.7,3.7,8.6,6.5c2.4,3.4,4.1,6.3,5.5,8.6c7.7-11.3,16.6-22.2,26.1-32.6
			c3-3.3,6.6-7.1,10.1-9.3c0.7-0.5,3.3-0.8,3.6,1.7c0.3,2.5-3.8,5-5,6.2c-11.4,11.4-20.3,24.1-29,38.6c-0.8,1.4-2.8,5.6-5.3,5.7
			c-3.9,0.2-7.2-9.1-8.6-11.7c-1.2-2.3-2.5-4.4-3.6-6.5C105.3,115.5,103.4,113.3,104.1,110.4z"/>
	</g>
	<g id="XMLID_2_">
		<path class="st1" d="M118.6,136.3c-3.4,0-6.1-5.9-7.9-9.8c-0.4-0.9-0.8-1.7-1-2.2c-0.6-1.2-1.3-2.3-1.9-3.4c-0.6-1-1.1-2.1-1.7-3
			c-0.2-0.4-0.4-0.8-0.7-1.1c-1.1-1.8-2.3-3.8-1.8-6.4l0-0.1l0.1-0.1c0.7-0.6,1.4-1,2.1-1c2.5,0,4.7,3.5,6.3,6.1
			c0.3,0.5,0.6,1,0.9,1.4c2,3,3.6,5.5,4.9,7.7l0.2,0.3c7.1-10.4,15.8-21.2,25.7-32c2.9-3.2,6.6-7.1,10.2-9.4c0.4-0.2,1-0.4,1.6-0.4
			c1.5,0,2.5,0.9,2.7,2.5c0.2,2.2-2.2,4.2-4,5.7c-0.5,0.4-0.9,0.7-1.2,1c-10.1,10.1-19.1,22-28.9,38.5c-0.1,0.2-0.2,0.4-0.4,0.7
			c-1.1,1.9-2.9,5.2-5.3,5.3L118.6,136.3z M104.5,110.7c-0.4,2.1,0.6,3.8,1.7,5.5c0.2,0.4,0.5,0.8,0.7,1.2c0.5,1,1.1,2,1.7,3
			c0.6,1.1,1.3,2.3,1.9,3.4c0.3,0.5,0.7,1.3,1.1,2.2c1.6,3.5,4.3,9.2,7,9.2l0.1,0c1.8-0.1,3.5-3.1,4.5-4.8c0.2-0.3,0.3-0.5,0.4-0.7
			c9.9-16.5,18.8-28.5,29.1-38.7c0.3-0.3,0.7-0.6,1.2-1.1c1.5-1.2,3.8-3.1,3.7-4.8c-0.1-1-0.7-1.6-1.7-1.6c-0.5,0-0.9,0.1-1.1,0.3
			c-3.5,2.2-7.1,6.1-10,9.3c-10.1,11-18.9,21.9-26.1,32.5l-0.4,0.6l-1-1.6c-1.3-2.2-2.9-4.7-4.9-7.6c-0.3-0.4-0.6-0.9-0.9-1.4
			c-1.4-2.3-3.6-5.7-5.5-5.7C105.4,110.1,104.9,110.3,104.5,110.7z"/>
	</g>
</g>
<g id="XMLID_1450_">
	<path id="XMLID_17_" class="st5" d="M122.6,189c-36.1,0-65.4-29.4-65.4-65.4c0-36.1,29.4-65.4,65.4-65.4S188,87.4,188,123.5
		C188,159.6,158.7,189,122.6,189z M122.6,67.1c-31.1,0-56.4,25.3-56.4,56.4c0,31.1,25.3,56.4,56.4,56.4s56.4-25.3,56.4-56.4
		C179,92.4,153.7,67.1,122.6,67.1z"/>
</g>
</svg>
