<?xml version="1.0" encoding="utf-8"?>
<!-- Generator: Adobe Illustrator 19.0.0, SVG Export Plug-In . SVG Version: 6.00 Build 0)  -->
<svg version="1.1" id="Layer_1" xmlns="http://www.w3.org/2000/svg" xmlns:xlink="http://www.w3.org/1999/xlink" x="0px" y="0px"
	 viewBox="0 0 433.3 245.8" style="enable-background:new 0 0 433.3 245.8;" xml:space="preserve">
<style type="text/css">
	.st0{fill:#010101;}
	.st1{fill-rule:evenodd;clip-rule:evenodd;fill:#FFFFFF;}
	.st2{fill:#991B1E;}
</style>
<g id="XMLID_1350_">
	<defs>
		<line id="SVGID_1_" x1="-22.7" y1="85.7" x2="461.6" y2="85.7"/>
	</defs>
	<clipPath id="SVGID_2_">
		<use xlink:href="#SVGID_1_"  style="overflow:visible;"/>
	</clipPath>
</g>
<g id="XMLID_1239_">
	<defs>
		<line id="SVGID_3_" x1="-22.7" y1="85.7" x2="461.6" y2="85.7"/>
	</defs>
	<clipPath id="SVGID_4_">
		<use xlink:href="#SVGID_3_"  style="overflow:visible;"/>
	</clipPath>
</g>
<g id="XMLID_21_">
	<path class="st0" d="M249.2,102.7l-4,10.3c-0.4,0.5-0.9,0.9-1.5,1.2c-0.7,0.3-1.4,0.4-2.1,0.4c-0.9,0-1.7-0.2-2.5-0.7
		c-0.3-0.2-0.5-0.5-0.7-0.7c-0.2-0.3-0.4-0.6-0.5-0.9L231.1,94h5.9l4.8,14.5l4.9-14.5h7.7c0.7,0.1,1.2,0.3,1.5,0.9l7.4,13.2h0.3V94
		h5v18.1c-0.3,0.8-0.8,1.4-1.4,1.9c-0.5,0.4-1.3,0.6-2.3,0.6c-0.7,0-1.3-0.1-1.8-0.3c-0.5-0.2-1.4-0.8-1.5-1l-7.2-13h-0.3v14.1h-4.9
		V102.7z"/>
</g>
<g id="XMLID_18_">
	<path class="st0" d="M222.1,106.8l2.5-8.9l2.3,8.9H222.1z M228.7,96.5c-0.3-0.8-0.8-1.5-1.6-2c-0.8-0.5-1.7-0.8-2.7-0.8
		c0,0-0.3,0-0.4,0c-0.3,0-0.6,0-1,0.2c-0.4,0.1-0.7,0.2-0.9,0.4c-0.7,0.5-1.2,1.2-1.5,1.9l-5.2,13l-3-4c1.1-0.4,2-0.8,2.7-1.3
		c0.7-0.5,1.3-1.1,1.8-1.8c0.4-0.7,0.6-1.4,0.6-2.2c0-1.6-0.8-2.9-2.3-4.1c-1.6-1.2-3.4-1.7-5.5-1.7H204c-0.7,0-1.5,0.4-2.1,0.9
		s-1,1-1.1,1.7l0,2.7l0,15v0h5.4V98h3.7c0.6,0.4,1.1,0.7,1.4,1.1c0.3,0.4,0.5,0.8,0.5,1.2c0,0.8-0.6,1.4-1.9,1.9
		c-0.6,0.2-1.2,0.4-1.8,0.6c-1.1,0.4-1.7,1-1.7,1.9c0,0.3,0.1,0.6,0.2,1l6.1,8.9h6.5l0,0l1.5-3.9h7.7l1.4,3.9l5.7-0.1L228.7,96.5z"
		/>
</g>
<g id="XMLID_17_">
	<path id="XMLID_28_" d="M206.8,129.5v3.6h0.1c0.7-1.5,1.9-2.5,3.4-3.2c1.5-0.7,3.2-1,5.1-1c2.1,0,3.8,0.4,5.4,1.1
		c1.5,0.8,2.8,1.8,3.8,3.1c1,1.3,1.8,2.8,2.3,4.4c0.5,1.7,0.8,3.5,0.8,5.3s-0.2,3.7-0.7,5.3c-0.5,1.7-1.3,3.1-2.3,4.4
		s-2.3,2.2-3.8,3c-1.5,0.7-3.3,1.1-5.3,1.1c-0.7,0-1.4-0.1-2.2-0.2c-0.8-0.1-1.6-0.4-2.4-0.7c-0.8-0.3-1.5-0.7-2.2-1.3
		c-0.7-0.5-1.3-1.2-1.8-2h-0.1v13.7h-4.4v-36.7H206.8z M222.5,139c-0.3-1.2-0.8-2.2-1.5-3.2c-0.7-0.9-1.5-1.7-2.6-2.2
		c-1-0.5-2.3-0.8-3.7-0.8c-1.5,0-2.7,0.3-3.8,0.9c-1,0.6-1.9,1.3-2.5,2.3c-0.7,0.9-1.1,2-1.4,3.2c-0.3,1.2-0.4,2.4-0.4,3.6
		c0,1.3,0.2,2.6,0.5,3.8c0.3,1.2,0.8,2.3,1.5,3.2c0.7,0.9,1.5,1.7,2.6,2.2c1.1,0.6,2.3,0.8,3.9,0.8c1.5,0,2.8-0.3,3.8-0.9
		c1-0.6,1.8-1.4,2.4-2.3c0.6-1,1.1-2.1,1.3-3.3c0.3-1.2,0.4-2.5,0.4-3.8C223,141.3,222.9,140.1,222.5,139z"/>
	<path id="XMLID_31_" d="M233,124.7v-5.3h4.4v5.3H233z M237.4,129.5v26.6H233v-26.6H237.4z"/>
	<path id="XMLID_34_" d="M248.7,129.5v3.6h0.1c0.7-1.5,1.9-2.5,3.4-3.2c1.5-0.7,3.2-1,5.1-1c2.1,0,3.8,0.4,5.4,1.1
		c1.5,0.8,2.8,1.8,3.8,3.1c1,1.3,1.8,2.8,2.3,4.4c0.5,1.7,0.8,3.5,0.8,5.3s-0.2,3.7-0.7,5.3c-0.5,1.7-1.3,3.1-2.3,4.4
		s-2.3,2.2-3.8,3c-1.5,0.7-3.3,1.1-5.3,1.1c-0.7,0-1.4-0.1-2.2-0.2c-0.8-0.1-1.6-0.4-2.4-0.7s-1.5-0.7-2.2-1.3s-1.3-1.2-1.8-2h-0.1
		v13.7h-4.4v-36.7H248.7z M264.4,139c-0.3-1.2-0.8-2.2-1.5-3.2c-0.7-0.9-1.5-1.7-2.6-2.2c-1-0.5-2.3-0.8-3.7-0.8
		c-1.5,0-2.7,0.3-3.8,0.9c-1,0.6-1.9,1.3-2.5,2.3c-0.7,0.9-1.1,2-1.4,3.2c-0.3,1.2-0.4,2.4-0.4,3.6c0,1.3,0.2,2.6,0.5,3.8
		c0.3,1.2,0.8,2.3,1.5,3.2c0.7,0.9,1.5,1.7,2.6,2.2s2.3,0.8,3.9,0.8s2.8-0.3,3.8-0.9c1-0.6,1.8-1.4,2.4-2.3c0.6-1,1.1-2.1,1.3-3.3
		c0.3-1.2,0.4-2.5,0.4-3.8C264.9,141.3,264.8,140.1,264.4,139z"/>
	<path id="XMLID_37_" d="M293.5,154.4c-2,1.5-4.5,2.3-7.5,2.3c-2.1,0-4-0.3-5.5-1c-1.6-0.7-2.9-1.6-3.9-2.9
		c-1.1-1.2-1.9-2.7-2.4-4.4c-0.5-1.7-0.8-3.6-0.9-5.6c0-2,0.3-3.9,0.9-5.6c0.6-1.7,1.5-3.1,2.6-4.4c1.1-1.2,2.4-2.2,4-2.9
		c1.5-0.7,3.2-1,5-1c2.4,0,4.3,0.5,5.9,1.5s2.8,2.2,3.8,3.7c0.9,1.5,1.6,3.2,2,4.9c0.4,1.8,0.5,3.5,0.4,5.1h-19.9
		c0,1.2,0.1,2.3,0.4,3.3c0.3,1,0.8,2,1.5,2.8c0.7,0.8,1.6,1.4,2.6,1.9c1.1,0.5,2.3,0.7,3.8,0.7c1.9,0,3.4-0.4,4.5-1.3s2-2.2,2.3-3.9
		h4.3C296.8,150.7,295.5,152.9,293.5,154.4z M292.4,137.3c-0.4-0.9-0.9-1.7-1.6-2.4c-0.7-0.7-1.5-1.2-2.4-1.6
		c-0.9-0.4-1.9-0.6-3-0.6c-1.1,0-2.2,0.2-3.1,0.6c-0.9,0.4-1.7,0.9-2.3,1.6c-0.7,0.7-1.2,1.5-1.5,2.4c-0.4,0.9-0.6,1.9-0.7,2.9h15.3
		C293.1,139.2,292.8,138.3,292.4,137.3z"/>
	<path id="XMLID_40_" d="M306.9,119.4v36.7h-4.4v-36.7H306.9z"/>
	<path id="XMLID_42_" d="M314,124.7v-5.3h4.4v5.3H314z M318.3,129.5v26.6H314v-26.6H318.3z"/>
	<path id="XMLID_45_" d="M329.2,129.5v4.2h0.1c1.8-3.2,4.7-4.8,8.6-4.8c1.7,0,3.2,0.2,4.4,0.7c1.2,0.5,2.1,1.1,2.8,2
		s1.2,1.9,1.5,3.1c0.3,1.2,0.4,2.5,0.4,3.9v17.5h-4.4v-18c0-1.6-0.5-2.9-1.4-3.9c-1-1-2.3-1.4-4-1.4c-1.3,0-2.5,0.2-3.5,0.6
		c-1,0.4-1.8,1-2.4,1.7c-0.7,0.8-1.1,1.6-1.5,2.6c-0.3,1-0.5,2.1-0.5,3.3v15h-4.4v-26.6H329.2z"/>
	<path id="XMLID_47_" d="M372.5,154.4c-2,1.5-4.5,2.3-7.5,2.3c-2.1,0-4-0.3-5.5-1c-1.6-0.7-2.9-1.6-3.9-2.9
		c-1.1-1.2-1.9-2.7-2.4-4.4c-0.5-1.7-0.8-3.6-0.9-5.6c0-2,0.3-3.9,0.9-5.6c0.6-1.7,1.5-3.1,2.6-4.4c1.1-1.2,2.4-2.2,4-2.9
		c1.5-0.7,3.2-1,5-1c2.4,0,4.3,0.5,5.9,1.5s2.8,2.2,3.8,3.7c0.9,1.5,1.6,3.2,2,4.9c0.4,1.8,0.5,3.5,0.4,5.1h-19.9
		c0,1.2,0.1,2.3,0.4,3.3c0.3,1,0.8,2,1.5,2.8c0.7,0.8,1.6,1.4,2.6,1.9c1.1,0.5,2.3,0.7,3.8,0.7c1.9,0,3.4-0.4,4.5-1.3s2-2.2,2.3-3.9
		h4.3C375.8,150.7,374.5,152.9,372.5,154.4z M371.4,137.3c-0.4-0.9-0.9-1.7-1.6-2.4c-0.7-0.7-1.5-1.2-2.4-1.6
		c-0.9-0.4-1.9-0.6-3-0.6c-1.1,0-2.2,0.2-3.1,0.6c-0.9,0.4-1.7,0.9-2.3,1.6c-0.7,0.7-1.2,1.5-1.5,2.4c-0.4,0.9-0.6,1.9-0.7,2.9h15.3
		C372.1,139.2,371.8,138.3,371.4,137.3z"/>
</g>
<g id="XMLID_16_">
	<circle class="st1" cx="123.7" cy="124.2" r="60.9"/>
</g>
<g id="XMLID_14_">
	<g id="XMLID_15_">
		<path class="st0" d="M121.1,159.3H90.2v-7h30.9c2.7,0,4.8-2.2,4.8-4.8v-45.3c0-2.7-2.2-4.8-4.8-4.8H90.2v-7h30.9
			c6.5,0,11.8,5.3,11.8,11.8v45.3C132.9,154,127.6,159.3,121.1,159.3z"/>
	</g>
</g>
<g id="XMLID_11_">
	<g id="XMLID_13_">
		<line class="st0" x1="131.3" y1="124.2" x2="169.1" y2="124.2"/>
	</g>
	<g id="XMLID_12_">
		<rect x="131.3" y="120.7" class="st0" width="37.8" height="7"/>
	</g>
</g>
<g id="XMLID_6_">
	<g id="XMLID_10_">
		<rect x="123.9" y="110.3" class="st0" width="11.1" height="27.3"/>
	</g>
	<g id="XMLID_7_">
		<path class="st0" d="M136.5,139.1h-14.1v-30.3h14.1V139.1z M125.4,136.1h8.1v-24.3h-8.1V136.1z"/>
	</g>
</g>
<g id="XMLID_1_">
	<g id="XMLID_5_">
		<rect x="134.1" y="119.2" class="st0" width="9.1" height="10"/>
	</g>
	<g id="XMLID_2_">
		<path class="st0" d="M144.7,130.7h-12.1v-13h12.1V130.7z M135.6,127.7h6.1v-7h-6.1V127.7z"/>
	</g>
</g>
<g id="XMLID_1449_">
	<path id="XMLID_25_" class="st2" d="M122.8,190.3c-36.1,0-65.4-29.4-65.4-65.4c0-36.1,29.4-65.4,65.4-65.4
		c36.1,0,65.4,29.4,65.4,65.4C188.2,161,158.9,190.3,122.8,190.3z M122.8,68.5c-31.1,0-56.4,25.3-56.4,56.4
		c0,31.1,25.3,56.4,56.4,56.4c31.1,0,56.4-25.3,56.4-56.4C179.2,93.8,153.9,68.5,122.8,68.5z"/>
</g>
</svg>
