<?xml version="1.0" encoding="utf-8"?>
<!-- Generator: Adobe Illustrator 19.0.0, SVG Export Plug-In . SVG Version: 6.00 Build 0)  -->
<svg version="1.1" id="Layer_1" xmlns="http://www.w3.org/2000/svg" xmlns:xlink="http://www.w3.org/1999/xlink" x="0px" y="0px"
	 viewBox="0 0 433.3 245.8" style="enable-background:new 0 0 433.3 245.8;" xml:space="preserve">
<style type="text/css">
	.st0{fill:none;stroke:#991C20;stroke-width:0.25;}
	.st1{fill:#010101;}
	.st2{fill-rule:evenodd;clip-rule:evenodd;fill:#FFFFFF;}
	.st3{fill:#FFFFFF;}
	.st4{fill:#991B1E;}
</style>
<g id="XMLID_1929_">
	<g id="XMLID_1942_">
		<path class="st0" d="M56.8,53"/>
	</g>
	<g id="XMLID_1945_">
		<path class="st0" d="M375.8,53.5"/>
	</g>
</g>
<g id="XMLID_31_">
	<path class="st1" d="M248.2,102l-4,10.3c-0.4,0.5-0.9,0.9-1.5,1.2c-0.7,0.3-1.4,0.4-2.1,0.4c-0.9,0-1.7-0.2-2.5-0.7
		c-0.3-0.2-0.5-0.5-0.7-0.7c-0.2-0.3-0.4-0.6-0.5-0.9l-6.8-18.4h5.9l4.8,14.5l4.9-14.5h7.7c0.7,0.1,1.2,0.3,1.5,0.9l7.4,13.2h0.3
		V93.4h5v18.1c-0.3,0.8-0.8,1.4-1.4,1.9c-0.5,0.4-1.3,0.6-2.3,0.6c-0.7,0-1.3-0.1-1.8-0.3c-0.5-0.2-1.4-0.8-1.5-1l-7.2-13h-0.3v14.1
		h-4.9V102z"/>
</g>
<g id="XMLID_28_">
	<path class="st1" d="M221.1,106.1l2.5-8.9l2.3,8.9H221.1z M227.7,95.9c-0.3-0.8-0.8-1.5-1.6-2c-0.8-0.5-1.7-0.8-2.7-0.8
		c0,0-0.3,0-0.4,0c-0.3,0-0.6,0-1,0.2c-0.4,0.1-0.7,0.2-0.9,0.4c-0.7,0.5-1.2,1.2-1.5,1.9l-5.2,13l-3-4c1.1-0.4,2-0.8,2.7-1.3
		c0.7-0.5,1.3-1.1,1.8-1.8c0.4-0.7,0.6-1.4,0.6-2.2c0-1.6-0.8-2.9-2.3-4.1c-1.6-1.2-3.4-1.7-5.5-1.7H203c-0.7,0-1.5,0.4-2.1,0.9
		c-0.6,0.5-1,1-1.1,1.7l0,2.7l0,15v0h5.4V97.3h3.7c0.6,0.4,1.1,0.7,1.4,1.1c0.3,0.4,0.5,0.8,0.5,1.2c0,0.8-0.6,1.4-1.9,1.9
		c-0.6,0.2-1.2,0.4-1.8,0.6c-1.1,0.4-1.7,1-1.7,1.9c0,0.3,0.1,0.6,0.2,1l6.1,8.9h6.5l0,0l1.5-3.9h7.7l1.4,3.9l5.7-0.1L227.7,95.9z"
		/>
</g>
<g id="XMLID_27_">
	<path id="XMLID_36_" d="M205.8,128.9v3.6h0.1c0.7-1.5,1.9-2.5,3.4-3.2c1.5-0.7,3.2-1,5.1-1c2.1,0,3.8,0.4,5.4,1.1
		c1.5,0.8,2.8,1.8,3.8,3.1c1,1.3,1.8,2.8,2.3,4.4c0.5,1.7,0.8,3.5,0.8,5.3s-0.2,3.7-0.7,5.3c-0.5,1.7-1.3,3.1-2.3,4.4
		s-2.3,2.2-3.8,3c-1.5,0.7-3.3,1.1-5.3,1.1c-0.7,0-1.4-0.1-2.2-0.2c-0.8-0.1-1.6-0.4-2.4-0.7c-0.8-0.3-1.5-0.7-2.2-1.3
		c-0.7-0.5-1.3-1.2-1.8-2h-0.1v13.7h-4.4v-36.7H205.8z M221.5,138.3c-0.3-1.2-0.8-2.2-1.5-3.2c-0.7-0.9-1.5-1.7-2.6-2.2
		c-1-0.5-2.3-0.8-3.7-0.8c-1.5,0-2.7,0.3-3.8,0.9c-1,0.6-1.9,1.3-2.5,2.3c-0.7,0.9-1.1,2-1.4,3.2c-0.3,1.2-0.4,2.4-0.4,3.6
		c0,1.3,0.2,2.6,0.5,3.8c0.3,1.2,0.8,2.3,1.5,3.2c0.7,0.9,1.5,1.7,2.6,2.2c1.1,0.6,2.3,0.8,3.9,0.8c1.5,0,2.8-0.3,3.8-0.9
		c1-0.6,1.8-1.4,2.4-2.3c0.6-1,1.1-2.1,1.3-3.3c0.3-1.2,0.4-2.5,0.4-3.8C222,140.7,221.9,139.5,221.5,138.3z"/>
	<path id="XMLID_39_" d="M235.7,128.9v5.6h0.1c1.1-2.2,2.4-3.8,3.9-4.8c1.5-1,3.5-1.5,5.9-1.4v4.6c-1.7,0-3.2,0.2-4.5,0.7
		c-1.2,0.5-2.2,1.2-3,2.1c-0.8,0.9-1.3,2-1.6,3.4c-0.3,1.3-0.5,2.8-0.5,4.5v11.8h-4.4v-26.6H235.7z"/>
	<path id="XMLID_41_" d="M267.7,153.8c-2,1.5-4.5,2.3-7.5,2.3c-2.1,0-4-0.3-5.5-1c-1.6-0.7-2.9-1.6-3.9-2.9
		c-1.1-1.2-1.9-2.7-2.4-4.4c-0.5-1.7-0.8-3.6-0.9-5.6c0-2,0.3-3.9,0.9-5.6c0.6-1.7,1.5-3.1,2.6-4.4c1.1-1.2,2.4-2.2,4-2.9
		c1.5-0.7,3.2-1,5-1c2.4,0,4.3,0.5,5.9,1.5s2.8,2.2,3.8,3.7c0.9,1.5,1.6,3.2,2,4.9c0.4,1.8,0.5,3.5,0.4,5.1h-19.9
		c0,1.2,0.1,2.3,0.4,3.3c0.3,1,0.8,2,1.5,2.8c0.7,0.8,1.6,1.4,2.6,1.9c1.1,0.5,2.3,0.7,3.8,0.7c1.9,0,3.4-0.4,4.5-1.3s2-2.2,2.3-3.9
		h4.3C271,150,269.7,152.3,267.7,153.8z M266.7,136.7c-0.4-0.9-0.9-1.7-1.6-2.4c-0.7-0.7-1.5-1.2-2.4-1.6c-0.9-0.4-1.9-0.6-3-0.6
		c-1.1,0-2.2,0.2-3.1,0.6c-0.9,0.4-1.7,0.9-2.3,1.6c-0.7,0.7-1.2,1.5-1.5,2.4c-0.4,0.9-0.6,1.9-0.7,2.9h15.3
		C267.3,138.6,267.1,137.6,266.7,136.7z"/>
	<path id="XMLID_44_" d="M283.8,155.5l-9.9-26.6h4.9l7.5,22.2h0.1l7.2-22.2h4.6l-9.7,26.6H283.8z"/>
	<path id="XMLID_46_" d="M302.5,124.1v-5.3h4.4v5.3H302.5z M306.8,128.9v26.6h-4.4v-26.6H306.8z"/>
	<path id="XMLID_49_" d="M332.4,153.8c-2,1.5-4.5,2.3-7.5,2.3c-2.1,0-4-0.3-5.5-1c-1.6-0.7-2.9-1.6-3.9-2.9
		c-1.1-1.2-1.9-2.7-2.4-4.4c-0.5-1.7-0.8-3.6-0.9-5.6c0-2,0.3-3.9,0.9-5.6c0.6-1.7,1.5-3.1,2.6-4.4c1.1-1.2,2.4-2.2,4-2.9
		c1.5-0.7,3.2-1,5-1c2.4,0,4.3,0.5,5.9,1.5s2.8,2.2,3.8,3.7c0.9,1.5,1.6,3.2,2,4.9c0.4,1.8,0.5,3.5,0.4,5.1h-19.9
		c0,1.2,0.1,2.3,0.4,3.3c0.3,1,0.8,2,1.5,2.8c0.7,0.8,1.6,1.4,2.6,1.9c1.1,0.5,2.3,0.7,3.8,0.7c1.9,0,3.4-0.4,4.5-1.3s2-2.2,2.3-3.9
		h4.3C335.7,150,334.4,152.3,332.4,153.8z M331.4,136.7c-0.4-0.9-0.9-1.7-1.6-2.4c-0.7-0.7-1.5-1.2-2.4-1.6c-0.9-0.4-1.9-0.6-3-0.6
		c-1.1,0-2.2,0.2-3.1,0.6c-0.9,0.4-1.7,0.9-2.3,1.6c-0.7,0.7-1.2,1.5-1.5,2.4c-0.4,0.9-0.6,1.9-0.7,2.9h15.3
		C332,138.6,331.8,137.6,331.4,136.7z"/>
	<path id="XMLID_52_" d="M362.9,155.5l-5.4-21.1h-0.1l-5.3,21.1h-4.7l-8.5-26.6h4.8l6,21.7h0.1l5.3-21.7h4.8l5.6,21.7h0.1l6-21.7
		h4.5l-8.5,26.6H362.9z"/>
</g>
<g id="XMLID_1_">
	<g id="XMLID_26_">
		<circle class="st2" cx="122.7" cy="123.6" r="60.9"/>
	</g>
	<g id="XMLID_2_">
		<g id="XMLID_22_">
			<g id="XMLID_23_">
				<path class="st1" d="M145.6,161.6h-42.9c-4,0-7.3-3.3-7.3-7.4V92.6c0-4.1,3.3-7.4,7.3-7.4h42.9c4,0,7.3,3.3,7.3,7.4v61.5
					C152.9,158.3,149.6,161.6,145.6,161.6z M102.8,92.2c-0.1,0-0.3,0.2-0.3,0.4v61.5c0,0.3,0.2,0.4,0.3,0.4h42.9
					c0.1,0,0.3-0.2,0.3-0.4V92.6c0-0.3-0.2-0.4-0.3-0.4H102.8z"/>
			</g>
		</g>
		<g id="XMLID_20_">
			<g id="XMLID_21_">
				<rect x="106" y="143" class="st1" width="35" height="4"/>
			</g>
		</g>
		<g id="XMLID_15_">
			<g id="XMLID_19_">
				<circle class="st3" cx="104.4" cy="97" r="14.6"/>
			</g>
			<g id="XMLID_16_">
				<path class="st1" d="M104.4,114.6c-9.7,0-17.6-7.9-17.6-17.6c0-9.7,7.9-17.6,17.6-17.6S122,87.3,122,97
					C122,106.7,114.1,114.6,104.4,114.6z M104.4,85.4c-6.4,0-11.6,5.2-11.6,11.6c0,6.4,5.2,11.6,11.6,11.6S116,103.4,116,97
					C116,90.6,110.8,85.4,104.4,85.4z"/>
			</g>
		</g>
		<g id="XMLID_13_">
			<g id="XMLID_14_">
				
					<rect x="84.7" y="103.9" transform="matrix(0.7071 0.7071 -0.7071 0.7071 107.3788 -28.1925)" class="st1" width="6" height="23.3"/>
			</g>
		</g>
		<g id="XMLID_11_">
			<g id="XMLID_12_">
				<rect x="106" y="133" class="st1" width="35" height="4"/>
			</g>
		</g>
		<g id="XMLID_9_">
			<g id="XMLID_10_">
				<rect x="106" y="123" class="st1" width="35" height="4"/>
			</g>
		</g>
		<g id="XMLID_7_">
			<g id="XMLID_8_">
				<rect x="123" y="113" class="st1" width="18" height="4"/>
			</g>
		</g>
		<g id="XMLID_5_">
			<g id="XMLID_6_">
				<rect x="126" y="104" class="st1" width="15" height="4"/>
			</g>
		</g>
		<g id="XMLID_3_">
			<g id="XMLID_4_">
				<rect x="119" y="113" class="st1" width="22" height="4"/>
			</g>
		</g>
	</g>
</g>
<g id="XMLID_1448_">
	<path id="XMLID_33_" class="st4" d="M121.6,190c-36.1,0-65.4-29.4-65.4-65.4c0-36.1,29.4-65.4,65.4-65.4
		c36.1,0,65.4,29.4,65.4,65.4C187,160.6,157.7,190,121.6,190z M121.6,68.1c-31.1,0-56.4,25.3-56.4,56.4c0,31.1,25.3,56.4,56.4,56.4
		c31.1,0,56.4-25.3,56.4-56.4C178,93.4,152.7,68.1,121.6,68.1z"/>
</g>
</svg>
