<?xml version="1.0" encoding="utf-8"?>
<!-- Generator: Adobe Illustrator 19.0.0, SVG Export Plug-In . SVG Version: 6.00 Build 0)  -->
<svg version="1.1" id="Layer_1" xmlns="http://www.w3.org/2000/svg" xmlns:xlink="http://www.w3.org/1999/xlink" x="0px" y="0px"
	 viewBox="0 0 382 245.8" style="enable-background:new 0 0 382 245.8;" xml:space="preserve">
<style type="text/css">
	.st0{fill:#010101;}
	.st1{fill:none;}
	.st2{fill-rule:evenodd;clip-rule:evenodd;fill:#FFFFFF;}
	.st3{fill:#991B1E;}
</style>
<g id="XMLID_1506_">
	<path class="st0" d="M248.2,100.5l-4,10.3c-0.4,0.5-0.9,0.9-1.5,1.2c-0.7,0.3-1.4,0.4-2.1,0.4c-0.9,0-1.7-0.2-2.5-0.7
		c-0.3-0.2-0.5-0.5-0.7-0.7c-0.2-0.3-0.4-0.6-0.5-0.9l-6.8-18.4h5.9l4.8,14.5l4.9-14.5h7.7c0.7,0.1,1.2,0.3,1.5,0.9l7.4,13.2h0.3
		V91.8h5v18.1c-0.3,0.8-0.8,1.4-1.4,1.9c-0.5,0.4-1.3,0.6-2.3,0.6c-0.7,0-1.3-0.1-1.8-0.3c-0.5-0.2-1.4-0.8-1.5-1l-7.2-13h-0.3v14.1
		h-4.9V100.5z"/>
</g>
<g id="XMLID_1503_">
	<path class="st0" d="M221.1,104.6l2.5-8.9l2.3,8.9H221.1z M227.7,94.3c-0.3-0.8-0.8-1.5-1.6-2c-0.8-0.5-1.7-0.8-2.7-0.8
		c0,0-0.3,0-0.4,0c-0.3,0-0.6,0-1,0.2c-0.4,0.1-0.7,0.2-0.9,0.4c-0.7,0.5-1.2,1.2-1.5,1.9l-5.2,13l-3-4c1.1-0.4,2-0.8,2.7-1.3
		c0.7-0.5,1.3-1.1,1.8-1.8c0.4-0.7,0.6-1.4,0.6-2.2c0-1.6-0.8-2.9-2.3-4.1c-1.6-1.2-3.4-1.7-5.5-1.7H203c-0.7,0-1.5,0.4-2.1,0.9
		c-0.6,0.5-1,1-1.1,1.7l0,2.7l0,15v0h5.4V95.7h3.7c0.6,0.4,1.1,0.7,1.4,1.1c0.3,0.4,0.5,0.8,0.5,1.2c0,0.8-0.6,1.4-1.9,1.9
		c-0.6,0.2-1.2,0.4-1.8,0.6c-1.1,0.4-1.7,1-1.7,1.9c0,0.3,0.1,0.6,0.2,1l6.1,8.9h6.5l0,0l1.5-3.9h7.7l1.4,3.9l5.7-0.1L227.7,94.3z"
		/>
</g>
<g id="XMLID_1388_">
	<path id="XMLID_5_" d="M205.3,127.3v5.6h0.1c1.1-2.2,2.4-3.8,3.9-4.8c1.5-1,3.5-1.5,5.9-1.4v4.6c-1.7,0-3.2,0.2-4.5,0.7
		c-1.2,0.5-2.2,1.2-3,2.1c-0.8,0.9-1.3,2-1.6,3.4c-0.3,1.3-0.5,2.8-0.5,4.5v11.8h-4.4v-26.6H205.3z"/>
	<path id="XMLID_7_" d="M237.2,152.2c-2,1.5-4.5,2.3-7.5,2.3c-2.1,0-4-0.3-5.5-1c-1.6-0.7-2.9-1.6-3.9-2.9c-1.1-1.2-1.9-2.7-2.4-4.4
		c-0.5-1.7-0.8-3.6-0.9-5.6c0-2,0.3-3.9,0.9-5.6c0.6-1.7,1.5-3.1,2.6-4.4c1.1-1.2,2.4-2.2,4-2.9c1.5-0.7,3.2-1,5-1
		c2.4,0,4.3,0.5,5.9,1.5s2.8,2.2,3.8,3.7c0.9,1.5,1.6,3.2,2,4.9c0.4,1.8,0.5,3.5,0.4,5.1h-19.9c0,1.2,0.1,2.3,0.4,3.3
		c0.3,1,0.8,2,1.5,2.8c0.7,0.8,1.6,1.4,2.6,1.9c1.1,0.5,2.3,0.7,3.8,0.7c1.9,0,3.4-0.4,4.5-1.3s2-2.2,2.3-3.9h4.3
		C240.5,148.4,239.2,150.7,237.2,152.2z M236.2,135.1c-0.4-0.9-0.9-1.7-1.6-2.4c-0.7-0.7-1.5-1.2-2.4-1.6c-0.9-0.4-1.9-0.6-3-0.6
		c-1.1,0-2.2,0.2-3.1,0.6c-0.9,0.4-1.7,0.9-2.3,1.6c-0.7,0.7-1.2,1.5-1.5,2.4c-0.4,0.9-0.6,1.9-0.7,2.9h15.3
		C236.8,137,236.6,136.1,236.2,135.1z"/>
	<path id="XMLID_10_" d="M243.4,131.2v-3.9h4.5v-4c0-2.2,0.6-3.8,1.9-4.9c1.2-1.1,3.1-1.7,5.5-1.7c0.4,0,0.9,0,1.4,0.1
		s1,0.2,1.4,0.3v3.8c-0.4-0.1-0.8-0.2-1.2-0.3c-0.4-0.1-0.9-0.1-1.2-0.1c-1.1,0-1.9,0.2-2.5,0.6s-0.9,1.2-0.9,2.4v3.7h5.1v3.9h-5.1
		v22.7h-4.4v-22.7H243.4z"/>
	<path id="XMLID_12_" d="M261.5,122.5v-5.3h4.4v5.3H261.5z M265.9,127.3v26.6h-4.4v-26.6H265.9z"/>
	<path id="XMLID_15_" d="M276.8,127.3v4.2h0.1c1.8-3.2,4.7-4.8,8.6-4.8c1.7,0,3.2,0.2,4.4,0.7c1.2,0.5,2.1,1.1,2.8,2
		s1.2,1.9,1.5,3.1c0.3,1.2,0.4,2.5,0.4,3.9v17.5h-4.4v-18c0-1.6-0.5-2.9-1.4-3.9c-1-1-2.3-1.4-4-1.4c-1.3,0-2.5,0.2-3.5,0.6
		c-1,0.4-1.8,1-2.4,1.7c-0.7,0.8-1.1,1.6-1.5,2.6c-0.3,1-0.5,2.1-0.5,3.3v15h-4.4v-26.6H276.8z"/>
	<path id="XMLID_17_" d="M320,152.2c-2,1.5-4.5,2.3-7.5,2.3c-2.1,0-4-0.3-5.5-1c-1.6-0.7-2.9-1.6-3.9-2.9c-1.1-1.2-1.9-2.7-2.4-4.4
		c-0.5-1.7-0.8-3.6-0.9-5.6c0-2,0.3-3.9,0.9-5.6c0.6-1.7,1.5-3.1,2.6-4.4c1.1-1.2,2.4-2.2,4-2.9c1.5-0.7,3.2-1,5-1
		c2.4,0,4.3,0.5,5.9,1.5s2.8,2.2,3.8,3.7c0.9,1.5,1.6,3.2,2,4.9c0.4,1.8,0.5,3.5,0.4,5.1h-19.9c0,1.2,0.1,2.3,0.4,3.3
		c0.3,1,0.8,2,1.5,2.8c0.7,0.8,1.6,1.4,2.6,1.9c1.1,0.5,2.3,0.7,3.8,0.7c1.9,0,3.4-0.4,4.5-1.3s2-2.2,2.3-3.9h4.3
		C323.3,148.4,322,150.7,320,152.2z M319,135.1c-0.4-0.9-0.9-1.7-1.6-2.4c-0.7-0.7-1.5-1.2-2.4-1.6c-0.9-0.4-1.9-0.6-3-0.6
		c-1.1,0-2.2,0.2-3.1,0.6c-0.9,0.4-1.7,0.9-2.3,1.6c-0.7,0.7-1.2,1.5-1.5,2.4c-0.4,0.9-0.6,1.9-0.7,2.9h15.3
		C319.6,137,319.4,136.1,319,135.1z"/>
</g>
<line id="XMLID_1377_" class="st1" x1="-0.9" y1="-32.6" x2="-0.9" y2="275.3"/>
<g id="XMLID_1354_">
	<g id="XMLID_1355_">
		<g id="XMLID_1359_">
			<circle class="st2" cx="122.5" cy="122.3" r="60.9"/>
		</g>
		<g id="XMLID_1358_">
			<path class="st0" d="M95.8,89.1c22.3-20.7,69-9.3,70.2,30.7c1.3,45.8-43.4,41.7-59.1,30.9c22.3,8.5,51.7-1.9,48.6-31.4
				C152.7,92.3,124,74.9,95.8,89.1z"/>
		</g>
		<g id="XMLID_1357_">
			<path class="st0" d="M124.9,91.3c-35.6-4.7-47.6,18.6-45.7,35.1c4.7,42.5,46.5,43.8,63.5,34.4c-30,7.4-52-10.2-52.7-33.6
				C89.7,115.8,93.5,94.3,124.9,91.3z"/>
		</g>
		<g id="XMLID_1356_">
			<path id="XMLID_2_" class="st3" d="M122.5,187.7c-36.1,0-65.4-29.4-65.4-65.4c0-36.1,29.4-65.4,65.4-65.4S188,86.2,188,122.3
				C188,158.3,158.6,187.7,122.5,187.7z M122.5,65.8c-31.1,0-56.4,25.3-56.4,56.4c0,31.1,25.3,56.4,56.4,56.4s56.4-25.3,56.4-56.4
				C179,91.1,153.6,65.8,122.5,65.8z"/>
		</g>
	</g>
</g>
</svg>
