<?xml version="1.0" encoding="utf-8"?>
<!-- Generator: Adobe Illustrator 19.0.0, SVG Export Plug-In . SVG Version: 6.00 Build 0)  -->
<svg version="1.1" id="Layer_1" xmlns="http://www.w3.org/2000/svg" xmlns:xlink="http://www.w3.org/1999/xlink" x="0px" y="0px"
	 viewBox="0 0 434.3 245.9" style="enable-background:new 0 0 434.3 245.9;" xml:space="preserve">
<style type="text/css">
	.st0{fill-rule:evenodd;clip-rule:evenodd;fill:#FFFFFF;}
	.st1{fill:#991B1E;}
	.st2{fill-rule:evenodd;clip-rule:evenodd;fill:#010101;}
	.st3{fill:#010101;}
	.st4{fill:none;stroke:#991C20;stroke-width:0.25;}
</style>
<g id="XMLID_593_">
	<g id="XMLID_598_">
		<g id="XMLID_600_">
			<circle class="st0" cx="122.2" cy="122.7" r="60.9"/>
		</g>
		<g id="XMLID_599_">
			<path id="XMLID_20_" class="st1" d="M122.2,188.2c-36.1,0-65.4-29.4-65.4-65.4c0-36.1,29.4-65.4,65.4-65.4s65.4,29.4,65.4,65.4
				C187.6,158.8,158.3,188.2,122.2,188.2z M122.2,66.3c-31.1,0-56.4,25.3-56.4,56.4c0,31.1,25.3,56.4,56.4,56.4s56.4-25.3,56.4-56.4
				C178.6,91.6,153.3,66.3,122.2,66.3z"/>
		</g>
	</g>
	<g id="XMLID_597_">
		<path class="st2" d="M122,79.5c0,0,20.6-2.2,21.4,23.3c-0.1,0.1,1.1,3.9-3.4,3.9s-4.8-0.7-4.8-3.3c0-2.2-0.9-15.6-12.9-15.6
			c-12.4,0-12.7,14.3-12.7,15c0,1.4,0.5,4.1-4.7,4.1c-5.1,0-3.9-4.5-3.8-4.5S99.9,79.5,122,79.5z"/>
	</g>
	<g id="XMLID_594_">
		<path class="st2" d="M144.4,110.6c-12.4,0-37.1,0-44.1,0c-7,0-8.8,6-8.8,8.9c0,8.2,0,24.8,0,31.4c0,5.5,4.6,8.1,7.1,8.1
			c12.5,0,42.9,0,47,0s6.7-4.4,6.7-6.6c0-8.6,0-29.3,0-34.6C152.3,112.7,147,110.6,144.4,110.6z M126.9,136.3
			c-0.6,0.8-1.3,2-1.3,4.8s-0.5,6.2-3.5,6.2s-3.8-3.4-3.8-5.7s0.1-3.8-1.6-6.2c-1.1-1.5-1.1-2.3-0.9-4.5c0.2-2.8,3.5-5.5,6.3-5.5
			c3.5,0,6.2,3.4,6.4,5.5C128.6,132.6,128.7,133.9,126.9,136.3z"/>
	</g>
</g>
<g id="XMLID_788_">
	<g id="XMLID_805_">
		<g id="XMLID_958_">
			<path class="st3" d="M248.1,101l-4,10.3c-0.4,0.5-0.9,0.9-1.5,1.2c-0.7,0.3-1.4,0.4-2.1,0.4c-0.9,0-1.7-0.2-2.5-0.7
				c-0.3-0.2-0.5-0.5-0.7-0.7c-0.2-0.3-0.4-0.6-0.5-0.9L230,92.4h5.9l4.8,14.5l4.9-14.5h7.7c0.7,0.1,1.2,0.3,1.5,0.9l7.4,13.2h0.3
				V92.4h5v18.1c-0.3,0.8-0.8,1.4-1.4,1.9c-0.5,0.4-1.3,0.6-2.3,0.6c-0.7,0-1.3-0.1-1.8-0.3c-0.5-0.2-1.4-0.8-1.5-1l-7.2-13H253
				v14.1h-4.9V101z"/>
		</g>
		<g id="XMLID_952_">
			<path class="st3" d="M221,105.1l2.5-8.9l2.3,8.9H221z M227.5,94.9c-0.3-0.8-0.8-1.5-1.6-2c-0.8-0.5-1.7-0.8-2.7-0.8
				c0,0-0.3,0-0.4,0c-0.3,0-0.6,0-1,0.2c-0.4,0.1-0.7,0.2-0.9,0.4c-0.7,0.5-1.2,1.2-1.5,1.9l-5.2,13l-3-4c1.1-0.4,2-0.8,2.7-1.3
				c0.7-0.5,1.3-1.1,1.8-1.8c0.4-0.7,0.6-1.4,0.6-2.2c0-1.6-0.8-2.9-2.3-4.1c-1.6-1.2-3.4-1.7-5.5-1.7h-5.6c-0.7,0-1.5,0.4-2.1,0.9
				s-1,1-1.1,1.7l0,2.7l0,15v0h5.4V96.3h3.7c0.6,0.4,1.1,0.7,1.4,1.1c0.3,0.4,0.5,0.8,0.5,1.2c0,0.8-0.6,1.4-1.9,1.9
				c-0.6,0.2-1.2,0.4-1.8,0.6c-1.1,0.4-1.7,1-1.7,1.9c0,0.3,0.1,0.6,0.2,1l6.1,8.9h6.5l0,0l1.5-3.9h7.7l1.4,3.9l5.7-0.1L227.5,94.9z
				"/>
		</g>
	</g>
	<path id="XMLID_287_" class="st4" d="M439,57.4"/>
	<path id="XMLID_286_" class="st4" d="M-19.8,57.4"/>
	<path id="XMLID_292_" class="st4" d="M439,188.4"/>
	<path id="XMLID_288_" class="st4" d="M-19.8,188.4"/>
	<path id="XMLID_303_" class="st4" d="M56.7-6.7"/>
	<path id="XMLID_298_" class="st4" d="M56.7,264"/>
	<path id="XMLID_297_" class="st4" d="M377.6-6.2"/>
	<path id="XMLID_294_" class="st4" d="M377.6,264.5"/>
	<g id="XMLID_800_">
		<path id="XMLID_2_" d="M204.5,148.5c0.4,0.7,1,1.2,1.6,1.6c0.7,0.4,1.4,0.7,2.3,0.8c0.8,0.2,1.7,0.3,2.6,0.3
			c0.7,0,1.4-0.1,2.2-0.2c0.8-0.1,1.4-0.3,2.1-0.6c0.6-0.3,1.2-0.7,1.6-1.2s0.6-1.2,0.6-2c0-1.1-0.4-2-1.3-2.6
			c-0.9-0.6-1.9-1.1-3.2-1.4c-1.3-0.4-2.7-0.7-4.2-1c-1.5-0.3-2.9-0.7-4.2-1.2c-1.3-0.5-2.4-1.3-3.2-2.2c-0.9-1-1.3-2.3-1.3-4
			c0-1.3,0.3-2.5,0.9-3.4c0.6-1,1.4-1.7,2.3-2.3c0.9-0.6,2-1,3.2-1.3c1.2-0.3,2.4-0.4,3.5-0.4c1.5,0,2.9,0.1,4.2,0.4
			c1.3,0.3,2.4,0.7,3.4,1.3c1,0.6,1.8,1.5,2.3,2.6c0.6,1.1,0.9,2.4,1,4h-4.4c-0.1-0.9-0.3-1.6-0.7-2.1c-0.4-0.6-0.9-1-1.4-1.4
			c-0.6-0.3-1.2-0.6-1.9-0.7c-0.7-0.2-1.4-0.2-2.1-0.2c-0.7,0-1.3,0.1-2,0.2c-0.7,0.1-1.3,0.3-1.8,0.5c-0.5,0.3-1,0.6-1.3,1
			c-0.3,0.4-0.5,1-0.5,1.7c0,0.8,0.3,1.4,0.8,1.9c0.5,0.5,1.2,0.9,2,1.2c0.8,0.3,1.7,0.6,2.8,0.8c1,0.2,2.1,0.5,3.1,0.7
			c1.1,0.2,2.2,0.5,3.2,0.9c1,0.3,2,0.8,2.8,1.4s1.5,1.3,2,2.1c0.5,0.9,0.7,1.9,0.7,3.2c0,1.6-0.3,2.9-1,4c-0.7,1.1-1.5,1.9-2.6,2.6
			c-1.1,0.7-2.3,1.1-3.6,1.4c-1.4,0.3-2.7,0.4-4,0.4c-1.5,0-2.9-0.2-4.2-0.5c-1.3-0.3-2.5-0.8-3.5-1.5c-1-0.7-1.9-1.6-2.5-2.8
			c-0.6-1.1-1-2.5-1-4.2h4.4C203.9,147,204.1,147.9,204.5,148.5z"/>
		<path id="XMLID_4_" d="M245.7,152.8c-2,1.5-4.5,2.3-7.5,2.3c-2.1,0-4-0.3-5.5-1c-1.6-0.7-2.9-1.6-3.9-2.9
			c-1.1-1.2-1.9-2.7-2.4-4.4c-0.5-1.7-0.8-3.6-0.9-5.6c0-2,0.3-3.9,0.9-5.6c0.6-1.7,1.5-3.1,2.6-4.4c1.1-1.2,2.4-2.2,4-2.9
			c1.5-0.7,3.2-1,5-1c2.4,0,4.3,0.5,5.9,1.5s2.8,2.2,3.8,3.7c0.9,1.5,1.6,3.2,2,4.9c0.4,1.8,0.5,3.5,0.4,5.1h-19.9
			c0,1.2,0.1,2.3,0.4,3.3c0.3,1,0.8,2,1.5,2.8c0.7,0.8,1.6,1.4,2.6,1.9c1.1,0.5,2.3,0.7,3.8,0.7c1.9,0,3.4-0.4,4.5-1.3
			s2-2.2,2.3-3.9h4.3C249,149,247.7,151.3,245.7,152.8z M244.6,135.7c-0.4-0.9-0.9-1.7-1.6-2.4c-0.7-0.7-1.5-1.2-2.4-1.6
			c-0.9-0.4-1.9-0.6-3-0.6c-1.1,0-2.2,0.2-3.1,0.6c-0.9,0.4-1.7,0.9-2.3,1.6c-0.7,0.7-1.2,1.5-1.5,2.4c-0.4,0.9-0.6,1.9-0.7,2.9
			h15.3C245.3,137.6,245,136.6,244.6,135.7z"/>
		<path id="XMLID_7_" d="M270.4,132.5c-1.1-0.9-2.6-1.4-4.4-1.4c-1.6,0-2.9,0.3-4,0.9c-1.1,0.6-1.9,1.4-2.5,2.3
			c-0.6,1-1.1,2.1-1.4,3.3c-0.3,1.3-0.4,2.5-0.4,3.9c0,1.2,0.1,2.4,0.4,3.6c0.3,1.2,0.7,2.2,1.4,3.1c0.6,0.9,1.4,1.6,2.4,2.2
			c1,0.5,2.2,0.8,3.5,0.8c2.2,0,3.8-0.6,5.1-1.7c1.2-1.1,2-2.7,2.2-4.8h4.5c-0.5,3.3-1.7,5.8-3.7,7.6c-2,1.8-4.7,2.7-8,2.7
			c-2,0-3.8-0.3-5.4-1c-1.6-0.7-2.9-1.6-3.9-2.8c-1-1.2-1.8-2.6-2.4-4.3c-0.5-1.7-0.8-3.5-0.8-5.5c0-2,0.3-3.8,0.8-5.6
			c0.5-1.7,1.3-3.2,2.3-4.5c1-1.3,2.4-2.3,3.9-3c1.6-0.7,3.4-1.1,5.5-1.1c1.5,0,2.9,0.2,4.2,0.5c1.3,0.4,2.5,0.9,3.5,1.7
			c1,0.8,1.8,1.7,2.5,2.9c0.7,1.1,1.1,2.5,1.2,4.1h-4.5C272.2,134.7,271.5,133.4,270.4,132.5z"/>
		<path id="XMLID_9_" d="M300,154.5v-4.2h-0.1c-0.9,1.6-2.1,2.9-3.5,3.6c-1.4,0.8-3.1,1.2-5.1,1.2c-1.7,0-3.2-0.2-4.4-0.7
			c-1.2-0.5-2.1-1.1-2.8-2s-1.2-1.9-1.5-3.1c-0.3-1.2-0.4-2.5-0.4-3.9v-17.5h4.4v18c0,1.6,0.5,2.9,1.4,3.9c1,1,2.3,1.4,4,1.4
			c1.3,0,2.5-0.2,3.5-0.6c1-0.4,1.8-1,2.4-1.7c0.7-0.8,1.1-1.6,1.5-2.6c0.3-1,0.5-2.1,0.5-3.3v-15h4.4v26.6H300z"/>
		<path id="XMLID_11_" d="M314.6,127.9v5.6h0.1c1.1-2.2,2.4-3.8,3.9-4.8c1.5-1,3.5-1.5,5.9-1.4v4.6c-1.7,0-3.2,0.2-4.5,0.7
			c-1.2,0.5-2.2,1.2-3,2.1c-0.8,0.9-1.3,2-1.6,3.4c-0.3,1.3-0.5,2.8-0.5,4.5v11.8h-4.4v-26.6H314.6z"/>
		<path id="XMLID_13_" d="M328,123.1v-5.3h4.4v5.3H328z M332.4,127.9v26.6H328v-26.6H332.4z"/>
		<path id="XMLID_16_" d="M350.6,127.9v3.9h-5.3v16.5c0,0.5,0,0.9,0.1,1.2c0.1,0.3,0.2,0.5,0.5,0.7c0.2,0.2,0.6,0.3,1,0.3
			s1,0.1,1.7,0.1h2v3.9h-3.3c-1.1,0-2.1-0.1-2.9-0.2s-1.5-0.4-2-0.8c-0.5-0.4-0.9-1-1.1-1.7c-0.2-0.8-0.4-1.7-0.4-3v-16.9h-4.5v-3.9
			h4.5v-8h4.4v8H350.6z"/>
		<path id="XMLID_18_" d="M365.8,158c-0.5,1.3-1,2.4-1.5,3.3c-0.5,0.9-1,1.6-1.6,2.2s-1.3,1-2,1.2c-0.7,0.3-1.6,0.4-2.5,0.4
			c-0.5,0-1,0-1.5-0.1c-0.5-0.1-1-0.2-1.5-0.4v-4c0.4,0.2,0.8,0.3,1.3,0.4s0.9,0.2,1.3,0.2c0.9,0,1.6-0.2,2.2-0.6
			c0.6-0.4,1.1-1,1.4-1.8l1.8-4.5l-10.5-26.4h4.9l7.8,21.7h0.1l7.5-21.7h4.6L365.8,158z"/>
	</g>
</g>
</svg>
